<?xml version="1.0" encoding="UTF-8"?>
<svg xmlns:cc="http://creativecommons.org/ns#" xmlns:dc="http://purl.org/dc/elements/1.1/"
     xmlns:rdf="http://www.w3.org/1999/02/22-rdf-syntax-ns#" width="40.737mm" height="40.737mm"
     version="1.1" viewBox="0 0 40.737 40.737"
     xmlns="http://www.w3.org/2000/svg">
    <metadata>
        <rdf:RDF>
            <cc:Work rdf:about="">
                <dc:format>image/svg+xml</dc:format>
                <dc:type rdf:resource="http://purl.org/dc/dcmitype/StillImage"/>
                <dc:title/>
            </cc:Work>
        </rdf:RDF>
    </metadata>
    <g transform="translate(-68.766 -83.867)">
        <circle cx="89.134" cy="104.24" r="18.756" fill="#fff" stroke="#ffc700" stroke-width="3.2249"/>
        <g transform="translate(-1.5799 -.086304)">
            <path d="m98.95 99.72h-18.187c-0.48119 0-0.87477 0.40887-0.87477 0.90816v11.278c0 0.49915 0.39358 0.90802 0.87477 0.90802h18.187c0.48119 0 0.87478-0.40887 0.87478-0.90802v-11.278c0-0.49929-0.3936-0.90816-0.87478-0.90816"
                  fill="#d2dadc"/>
            <path d="m81.325 100.51h17.063c0.38721 0 0.70404 0.32068 0.70404 0.71258v10.401c0 0.23181-0.11109 0.43783-0.28155 0.5679l-17.835-11.587c0.10322-0.0601 0.22228-0.095 0.34918-0.095"
                  fill="#2b3e5a"/>
            <path d="m80.976 100.6 17.835 11.587c-0.11793 0.0904-0.26402 0.14428-0.4222 0.14428h-17.063c-0.38721 0-0.70418-0.32025-0.70418-0.71218v-10.401c0-0.26346 0.14362-0.49414 0.355-0.61761"
                  fill="#334b66"/>
            <path d="m101.34 115.17-0.011-0.28925-22.831 0.19224v0.11355c0 0.30592 0.32287 0.55383 0.72099 0.55383h21.4c0.40651 0 0.73272-0.25783 0.72073-0.57037"
                  fill="#8ca2ac"/>
            <path d="m99.247 112.77h-18.633c-0.42982 0-0.86927 0.14291-0.97869 0.32068l-1.1033 1.7914c-0.13725 0.22297 0.15352 0.40956 0.64933 0.40956h21.498c0.49583 0 0.78659-0.18659 0.64919-0.40956l-1.1032-1.7914c-0.10943-0.17777-0.54902-0.32068-0.97853-0.32068"
                  fill="#d2dadc"/>
            <g fill="#afbec4">
                <path d="m98.437 113.46h-17.011c-0.39246 0-0.74866 0.0653-0.79223 0.14609l-0.4112 0.76204c-0.04784 0.0889 0.25368 0.16193 0.6707 0.16193h18.077c0.41684 0 0.71836-0.073 0.67042-0.16193l-0.41095-0.76204c-0.04353-0.0807-0.39991-0.14609-0.79223-0.14609"/>
                <path d="m98.181 112.95h-16.501c-0.38047 0-0.70125 0.0176-0.71296 0.0394l-0.10668 0.19721c-0.01214 0.0226 0.29478 0.0409 0.68157 0.0409h16.777c0.38682 0 0.69342-0.0183 0.68157-0.0409l-0.10679-0.19721c-0.01171-0.0218-0.33253-0.0394-0.713-0.0394"/>
                <path d="m94.121 114.62h-8.38c-0.19318 0-0.35856 0.0289-0.36752 0.0642l-0.08128 0.32701c-0.0091 0.0371 0.14538 0.0678 0.34339 0.0678h8.5908c0.19819 0 0.35267-0.0307 0.34343-0.0678l-0.08131-0.32701c-0.0088-0.0353-0.17417-0.0642-0.36752-0.0642"/>
            </g>
            <path d="m95.026 98.191h-11.381v12.953h8.0162l3.3649-3.1682v-9.7846" fill="#4bc2bb"/>
            <path d="m94.333 98.98h-9.9956v11.376h7.0402l2.9554-2.7828v-8.5933" fill="#fff"/>
            <g fill="#37688b">
                <path d="m93.465 104.58h-8.5824v1.3629h8.5824v-1.3629"/>
                <path d="m93.465 100.4h-8.5824v1.3621h8.5824v-1.3621"/>
                <path d="m93.465 102.49h-8.5824v1.3621h8.5824v-1.3621"/>
                <path d="m93.465 106.68h-8.5824v1.3625h8.5824v-1.3625"/>
            </g>
            <path d="m95.026 107.98-3.3649 3.1682v-3.1682z" fill="#66ccca"/>
            <path d="m95.303 97.999c-0.07207 0.0611-0.1487 0.11328-0.22698 0.16151-0.75819 0.46855-1.7646 0.32702-2.3595-0.37275-0.65525-0.77227-0.56141-1.9298 0.21114-2.5866 0.06738-0.0572 0.13875-0.10668 0.21152-0.15243 0.76027-0.47914 1.776-0.3423 2.3745 0.36368 0.65624 0.77226 0.56183 1.9297-0.21068 2.5866m2.5683-1.495-0.20687-1.1325-0.86582 0.0106c-0.08117-0.17889-0.18189-0.3521-0.30191-0.51692l0.4305-0.74539-0.88593-0.73448-0.6495 0.55852c-0.18422-0.0882-0.3762-0.15667-0.57298-0.20504l-0.14718-0.83883-1.1509 7e-3 -0.13684 0.83813c-0.19717 0.0506-0.39038 0.12181-0.57697 0.21389l-0.64685-0.54339-0.02494 0.0217-0.85231 0.72348 0.43268 0.72856c-0.12058 0.16923-0.222 0.34946-0.30328 0.53619l-0.84515-4.32e-4 -0.19293 1.1346 0.80504 0.28194c0.0164 0.20242 0.05405 0.40347 0.11275 0.60039l-0.65306 0.54681 0.58152 0.99303 0.80617-0.30441c0.14386 0.14453 0.29972 0.27231 0.46496 0.38104l-0.15021 0.84762 1.0837 0.38735 0.42598-0.75872c0.19706 0.0176 0.39631 0.0161 0.59365-6e-3l0.43381 0.7517 1.0789-0.40005-0.08269-0.4378-0.08008-0.42083c0.078-0.0546 0.15476-0.11313 0.22864-0.17529 0.07786-0.0667 0.15116-0.13589 0.22063-0.20783l0.81827 0.29891 0.56956-1.0002-0.67553-0.55355c0.05277-0.19046 0.08502-0.38625 0.09924-0.58278l0.81608-0.29697"
                  fill="#f0cc16"/>
            <path d="m91.334 100.87c-0.07179 0.0504-0.14743 0.0923-0.22363 0.13049-0.74196 0.36975-1.6622 0.15406-2.1544-0.5443-0.54169-0.77047-0.35719-1.8351 0.41398-2.3785 0.06724-0.0469 0.13737-0.0868 0.20877-0.12308 0.74454-0.37963 1.6739-0.16687 2.169 0.53717 0.54254 0.77089 0.35733 1.8349-0.4137 2.3782zm2.5051-1.1682-0.09592-1.0665-0.80282-0.0627c-0.06022-0.17321-0.13878-0.34187-0.23622-0.50493l0.46179-0.65359-0.75875-0.7553-0.64876 0.46207c-0.1633-0.097-0.33514-0.17667-0.51347-0.23812l-0.06558-0.7891-1.0666-0.0907-0.19759 0.7644c-0.18687 0.0303-0.37207 0.0801-0.55259 0.14965l-0.55316-0.55782-0.02494 0.0176-0.85079 0.59835 0.33941 0.71162c-0.12598 0.14676-0.23509 0.30508-0.32604 0.47128l-0.78303-0.0716-0.27436 1.0343 0.7221 0.32907c-0.0019 0.1892 0.01584 0.37829 0.05359 0.56597l-0.65098 0.45116 0.45491 0.96877 0.77237-0.21386c0.121 0.14605 0.25481 0.27767 0.39839 0.39233l-0.21043 0.77223 0.97127 0.4505 0.45847-0.66672c0.18105 0.0328 0.36572 0.0483 0.55037 0.0444l0.33846 0.73272 1.033-0.27933-0.03955-0.41247-0.03859-0.39687c0.07676-0.0441 0.15296-0.0916 0.22641-0.14316 0.07786-0.0547 0.15159-0.11261 0.22214-0.17364l0.73272 0.34576 0.61182-0.87838-0.57905-0.56938c0.06505-0.17212 0.11151-0.35074 0.14097-0.53206l0.78108-0.20603"
                  fill="#ee2146"/>
            <path d="m102.58 97.123v1.4023h-0.96355v-1.4023c0-0.65373-0.53329-1.1868-1.187-1.1868h-0.9186c-0.65525 0-1.1869 0.53305-1.1869 1.1868v1.4023h-0.96351v-1.4023c0-1.185 0.96351-2.1506 2.1504-2.1506h0.9186c0.0595 0 0.11878 3e-3 0.17681 8e-3 1.1032 0.09 1.9738 1.0167 1.9738 2.1424"
                  fill="#45b5bf"/>
            <path d="m102.58 98.042c-0.10199-0.0581-0.22021-0.0914-0.34604-0.0914h-0.19692v-0.95882c0-0.61171-0.52187-1.1099-1.1626-1.1099h-0.8993c-0.12527 0-0.24751 0.0191-0.35994 0.0547h-0.10432c-0.65525 0-1.1869 0.53305-1.1869 1.1868v0.82723h-0.45586v-0.95882c0-1.1084 0.94576-2.0108 2.107-2.0108h0.63116c1.1032 0.09 1.9738 1.0167 1.9738 2.1424v0.9186"
                  fill="#59c8cf"/>
            <path d="m102.93 102.07v-3.417c0-0.38654-0.31338-0.69991-0.69991-0.69991h-4.6933c-0.14841 0-0.2854 0.047-0.39867 0.12569l5.5951 4.476c0.12125-0.12597 0.19678-0.29644 0.19678-0.48482"
                  fill="#51c5c6"/>
            <path d="m97.138 98.076c-0.18161 0.12665-0.3011 0.33581-0.3011 0.57422v3.417c0 0.38643 0.31323 0.69963 0.69977 0.69963h4.6933c0.1979 0 0.37567-0.0825 0.50313-0.21481l-5.5951-4.476"
                  fill="#45b5bf"/>
            <path d="m102.17 102.1-4.6522-3.7218c0.08738-0.0617 0.19403-0.0984 0.30939-0.0984h4.1169c0.29559 0 0.53509 0.23978 0.53509 0.53552v2.7992c0 0.2148-0.12651 0.40001-0.30921 0.48546"
                  fill="#58c7ca"/>
            <path d="m101.94 102.15h-4.1169c-0.29559 0-0.53523-0.23989-0.53523-0.5352v-2.7992c0-0.18024 0.08915-0.34012 0.22585-0.43713l4.6522 3.7218c-0.0687 0.0317-0.14513 0.0497-0.22588 0.0497"
                  fill="#4ac0c7"/>
            <path d="m100.4 100.29c0 0.25012-0.20271 0.45269-0.45283 0.45269-0.25012 0-0.45282-0.20257-0.45282-0.45269s0.20271-0.45297 0.45282-0.45297c0.25012 0 0.45283 0.20285 0.45283 0.45297"
                  fill="#2b3e5a"/>
            <path d="m99.684 100.11v1.4279h0.52243v-1.4279h-0.52243" fill="#2b3e5a"/>
        </g>
    </g>
</svg>
