<?xml version="1.0" encoding="UTF-8"?>
<svg xmlns:cc="http://creativecommons.org/ns#" xmlns:dc="http://purl.org/dc/elements/1.1/"
     xmlns:rdf="http://www.w3.org/1999/02/22-rdf-syntax-ns#" width="22.642mm" height="22.642mm"
     version="1.1" viewBox="0 0 22.642 22.642"
     xmlns="http://www.w3.org/2000/svg">
    <metadata>
        <rdf:RDF>
            <cc:Work rdf:about="">
                <dc:format>image/svg+xml</dc:format>
                <dc:type rdf:resource="http://purl.org/dc/dcmitype/StillImage"/>
                <dc:title/>
            </cc:Work>
        </rdf:RDF>
    </metadata>
    <g transform="translate(-95.646 -71.456)">
        <g transform="matrix(.0067871 0 0 -.0067871 33.88 182.09)">
            <path d="m12437 14632c0-921.4-746.7-1668.1-1668.1-1668.1-921.05 0-1667.9 746.7-1667.9 1668.1 0 921 746.85 1667.9 1667.9 1667.9 921.4 0 1668.1-746.9 1668.1-1667.9"
                  fill="#ffc700"/>
        </g>
        <g transform="matrix(.0061297 0 0 -.0061297 33.88 182.09)">
            <path d="m10078 16262c0.4 12.6 0.9 25.1 1.5 37.6-0.6-12.5-1.1-25-1.5-37.6" fill="#3aa8a0"/>
        </g>
        <g transform="matrix(.0061483 0 0 -.0061483 33.88 182.09)">
            <path d="m10049 16262c0.8 12.7 1.6 25.4 2.6 38-1-12.6-1.8-25.3-2.6-38" fill="#3aa8a0"/>
        </g>
        <g transform="matrix(.0061669 0 0 -.0061669 33.88 182.09)">
            <path d="m10022 16260c1.1 13.3 2.3 26.6 3.8 39.9-1.4-13.3-2.7-26.6-3.8-39.9" fill="#3aa8a0"/>
        </g>
        <g transform="matrix(.0061111 0 0 -.0061111 33.88 182.09)">
            <path d="m10107 16250c0 16.6 0.3 33.1 0.7 49.5-0.4-16.4-0.7-32.9-0.7-49.5" fill="#3aa8a0"/>
        </g>
        <g transform="matrix(.0061855 0 0 -.0061855 33.88 182.09)">
            <path d="m9996.9 16258c1.59 14.1 3.26 28.2 5.16 42.2-1.9-14-3.57-28.1-5.16-42.2" fill="#3aa8a0"/>
        </g>
        <g transform="matrix(.0060488 0 0 -.0060488 33.88 182.09)">
            <path d="m10219 16252c-1.5 16.1-2.7 32.2-3.7 48.3 1-16.2 2.2-32.3 3.7-48.3" fill="#3aa8a0"/>
        </g>
        <g transform="matrix(.006077 0 0 -.006077 33.88 182.09)">
            <path d="m10165 16282-0.6 18.3 0.6-18.3" fill="#3aa8a0"/>
        </g>
        <g transform="matrix(.0060621 0 0 -.0060621 33.88 182.09)">
            <path d="m10192 16276c-0.4 8.1-0.8 16.1-1.1 24.1 0.3-8 0.7-16.1 1.1-24.1" fill="#3aa8a0"/>
        </g>
        <g transform="matrix(.006204 0 0 -.006204 33.88 182.09)">
            <path d="m9972.9 16256c2.04 14.8 4.19 29.5 6.56 44.2-2.37-14.7-4.56-29.4-6.56-44.2" fill="#3aa8a0"/>
        </g>
        <g transform="matrix(.0062222 0 0 -.0062222 33.88 182.09)">
            <path d="m9950.5 16254c2.48 15.3 5.15 30.5 8.04 45.7-2.89-15.2-5.56-30.4-8.04-45.7" fill="#3aa8a0"/>
        </g>
        <g transform="matrix(.0062402 0 0 -.0062402 33.88 182.09)">
            <path d="m9929.9 16254c2.96 15.5 6.07 30.9 9.4 46.3-3.33-15.4-6.44-30.8-9.4-46.3" fill="#3aa8a0"/>
        </g>
        <g transform="matrix(.0060238 0 0 -.0060238 33.88 182.09)">
            <path d="m10264 16286c-0.5 4.8-1.1 9.6-1.5 14.4 0.4-4.8 1-9.6 1.5-14.4" fill="#3aa8a0"/>
        </g>
        <g transform="matrix(.0062048 0 0 -.0062048 33.88 182.09)">
            <path d="m9978.1 16298c0.12 0.7 0.27 1.5 0.38 2.2-0.11-0.7-0.26-1.5-0.38-2.2" fill="#308e84"/>
        </g>
        <g transform="matrix(.0060702 0 0 -.0060702 33.88 182.09)">
            <path d="m10177 16278c-0.3 7.2-0.6 14.4-0.8 21.6 0.2-7.2 0.5-14.4 0.8-21.6" fill="#308e84"/>
        </g>
        <g transform="matrix(.0062403 0 0 -.0062403 33.88 182.09)">
            <path d="m9939.3 16300-0.04-0.2 0.04 0.2" fill="#308e84"/>
        </g>
        <g transform="matrix(.0060309 0 0 -.0060309 33.88 182.09)">
            <path d="m10251 16281c-0.6 6.3-1.1 12.7-1.7 19 0.6-6.3 1.1-12.6 1.7-19" fill="#308e84"/>
        </g>
        <g transform="matrix(.0060532 0 0 -.0060532 33.88 182.09)">
            <path d="m10208 16288c-0.2 4-0.6 7.9-0.8 11.9 0.2-4 0.6-7.9 0.8-11.9" fill="#308e84"/>
        </g>
        <g transform="matrix(.0060926 0 0 -.0060926 33.88 182.09)">
            <path d="m10138 16258c-0.3 13.9-0.5 27.8-0.5 41.7 0-13.8 0.2-27.7 0.5-41.7" fill="#308e84"/>
        </g>
        <g transform="matrix(.0061695 0 0 -.0061695 33.88 182.09)">
            <path d="m10022 16293c0.2 2.3 0.5 4.5 0.8 6.8-0.3-2.3-0.6-4.5-0.8-6.8" fill="#308e84"/>
        </g>
        <g transform="matrix(.0061871 0 0 -.0061871 33.88 182.09)">
            <path d="m9999.4 16296c0.19 1.4 0.42 2.9 0.56 4.3-0.14-1.4-0.37-2.9-0.56-4.3" fill="#308e84"/>
        </g>
        <g transform="matrix(.006134 0 0 -.006134 33.88 182.09)">
            <path d="m10072 16289c0.2 3.8 0.5 7.6 0.7 11.4-0.2-3.8-0.5-7.6-0.7-11.4" fill="#308e84"/>
        </g>
        <g transform="matrix(.0061518 0 0 -.0061518 33.88 182.09)">
            <path d="m10046 16291c0.2 3.1 0.6 6.2 0.8 9.3-0.2-3.1-0.6-6.2-0.8-9.3" fill="#308e84"/>
        </g>
        <g transform="matrix(.0062225 0 0 -.0062225 33.88 182.09)">
            <path d="m9958.1 16299 0.11 0.7-0.11-0.7" fill="#308e84"/>
        </g>
        <g transform="matrix(.0061156 0 0 -.0061156 33.88 182.09)">
            <path d="m10101 16288c0.1 4 0.3 7.9 0.4 11.9-0.1-4-0.3-7.9-0.4-11.9" fill="#308e84"/>
        </g>
        <g transform="matrix(.0064402 0 0 -.0064402 33.88 182.09)">
            <path d="m12350 14523 293.1 118.2-587 1063.5-828.8 595-994.7-97.1-601.51-408.8-0.04-0.2c-3.23-14.9-6.24-29.8-9.11-44.8l-0.11-0.7c-2.79-14.7-5.37-29.4-7.77-44.2-0.11-0.7-0.25-1.4-0.36-2.1-2.29-14.2-4.35-28.4-6.32-42.6-0.18-1.4-0.4-2.8-0.58-4.2-1.81-13.4-3.41-26.9-4.93-40.5-0.22-2.1-0.51-4.3-0.73-6.5-1.38-12.7-2.54-25.4-3.63-38.2-0.22-2.9-0.54-5.9-0.76-8.8-0.98-12.1-1.74-24.2-2.47-36.3-0.18-3.6-0.47-7.2-0.69-10.9-0.62-11.8-1.05-23.8-1.42-35.7-0.14-3.8-0.36-7.5-0.43-11.3-0.44-15.6-0.65-31.2-0.65-46.9 0-13.2 0.21-26.3 0.5-39.4 0.15-5.8 0.33-11.6 0.51-17.3 0.22-6.8 0.47-13.6 0.76-20.4 0.33-7.5 0.69-15 1.09-22.6 0.22-3.7 0.51-7.4 0.73-11.2 0.94-15 2.07-30.2 3.41-45.3 0.51-6 0.98-11.9 1.56-17.8 0.44-4.5 0.95-9 1.42-13.5 78.92-744.5 622.53-1350.1 1335.2-1521.6l1317.8 686.2 95.9 126"
                  fill="#ffa900"/>
        </g>
        <g transform="matrix(.0058099 0 0 -.0058099 33.88 182.09)">
            <path d="m11833 16178c0-67.5-49.7-122.3-111-122.3s-111.1 54.8-111.1 122.3 49.8 122.3 111.1 122.3 111-54.8 111-122.3"
                  fill="#fdfdea"/>
        </g>
        <g transform="matrix(.0058139 0 0 -.0058139 33.88 182.09)">
            <path d="m13559 16174c0-69.6-50.5-126-112.8-126s-112.8 56.4-112.8 126 50.5 126 112.8 126 112.8-56.4 112.8-126"
                  fill="#fdfdea"/>
        </g>
        <g transform="matrix(.0061305 0 0 -.0061305 33.88 182.09)">
            <path d="m12620 16300v-438.7l367.4 25 3.5 49.9-99.8 324.6-271.1 39.2" fill="#363537"/>
        </g>
        <g transform="matrix(.005868 0 0 -.005868 33.88 182.09)">
            <path d="m13818 16180h-202.2v119.9h202.2v-119.9" fill="#f38618"/>
        </g>
        <g transform="matrix(.0058572 0 0 -.0058572 33.88 182.09)">
            <path d="m13383 15995c-13.3-12.2-31-19.7-50.5-19.7-19.4 0-37.1 7.5-50.4 19.7-14.8 13.6-24.1 33.1-24.1 54.8 0 4.7 0.5 9.2 1.3 13.6 6.4 34.7 36.7 61 73.2 61 36.7 0 67-26.3 73.4-61 0.8-4.4 1.3-8.9 1.3-13.6 0-21.7-9.4-41.2-24.2-54.8zm-50.5 304.7c-137.9 0-249.8-111.9-249.8-249.9s111.9-249.8 249.8-249.8c138 0 249.9 111.8 249.9 249.8s-111.9 249.9-249.9 249.9"
                  fill="#231f20"/>
        </g>
        <g transform="matrix(.0058572 0 0 -.0058572 33.88 182.09)">
            <path d="m11686 15995c-13.3-12.2-30.9-19.7-50.4-19.7s-37.1 7.5-50.4 19.7c-14.8 13.6-24.2 33.1-24.2 54.8 0 4.7 0.5 9.2 1.3 13.6 1.9 10.6 6.1 20.4 12.1 29 13.4 19.3 35.8 32 61.2 32s47.7-12.7 61.2-32c5.9-8.6 10.1-18.4 12.1-29 0.8-4.4 1.3-8.9 1.3-13.6 0-21.7-9.4-41.2-24.2-54.8zm-49.8 304.7h-1.2c-123.2-0.3-225.5-89.8-245.6-207.3-2.4-13.9-3.7-28-3.7-42.6 0-138 111.9-249.8 249.9-249.8s249.8 111.8 249.8 249.8c0 14.6-1.3 28.7-3.7 42.6-20.1 117.5-122.3 207-245.5 207.3"
                  fill="#231f20"/>
        </g>
        <g transform="matrix(.0062288 0 0 -.0062288 33.88 182.09)">
            <path d="m13012 15247c-60.8-2.1-122.6-2.1-183.4-1-1.1 36.7-1.1 72.3 0 109 60.8 1 121.6 1 182.3 0 2.1-36.7 2.1-72.3 1.1-108zm-561.3 429c-1 104.2-3 208.5 1 312.8 69.8 0 140.7 1 210.5-1.9 27.6-103.3 61-205.7 88.6-310-100.4-1.9-199.8-0.9-300.1-0.9zm572.6-421.1c-1 107.2 2 213.5-2 320.7-34.2 15.7-68.7 31.4-103.2 47.4-24 11.2-48.1 22.6-71.9 34.3-3.2 1.2-6.2 2.7-9 4.2-48.7 26.2-47.2 91.9-65.8 138.4-19.3 78.9-51 155.6-70.3 234.4-12.2 49.9-19.4 100.6-15.3 153.3-140.2 1.9-298.2 1-437.4 0h17.3l-18.7-0.3-0.7-172 0.7-0.6c-0.5-228.8-2.3-458-0.1-686.9h-26.1v916.7c0 30.9-24.9 55.9-55.9 55.9h-1443.7c-30.8 0-55.9-25-55.9-55.9v-916.7h-6.7v-195h36.2c0.2 0.9 0.2 1.7 0.4 2.5 15.6 90.9 78.8 162.9 161.5 192.5h-0.8 0.2c42 17 111.9 25.4 178.6-4.2l1.2 0.1c77.6-31.8 136.2-101.4 151.1-188.4 0.1-0.8 0.2-1.6 0.4-2.5l1081.2 0.1c34.5 109.2 120.1 214.4 243.1 221.3 135.8 19.7 261.7-84.6 291.2-214.4 89.5-1 179.1-1 268.6-1 0 37.4 1 75.7 1 113.1-16.8 1-32.4 2-49.2 3"
                  fill="#fff"/>
        </g>
        <g transform="matrix(.0062148 0 0 -.0062148 33.88 182.09)">
            <path d="m12160 16300h-1344.4v-898.5h1344.4v898.5" fill="#b3b3b3"/>
        </g>
        <g transform="matrix(.006123 0 0 -.006123 33.88 182.09)">
            <path d="m11635 16300h-621.2v-687.3h621.2v687.3" fill="#fbfcfc"/>
        </g>
        <g transform="matrix(.006123 0 0 -.006123 33.88 182.09)">
            <path d="m12301 16300h-621.2v-687.3h621.2v687.3" fill="#fbfcfc"/>
        </g>
        <g transform="matrix(.0062288 0 0 -.0062288 33.88 182.09)">
            <path d="m10690 15969c57.3 0 105.1 39.9 117.4 93.5 12.4-53.6 60.2-93.5 117.5-93.5h11.6c63.5 0 117.7 49.1 122.4 111.4 13.6-51.9 60.7-90.2 116.8-90.2h11.5c59 0 108 42.3 118.6 98.1 10.6-55.8 59.6-98.1 118.5-98.1h11.6c57.2 0 105.1 39.9 117.5 93.3 8-58.9 58.4-104.4 119.5-104.4h11.6c58.9 0 107.9 42.3 118.5 98.1 10.6-55.8 59.6-98.1 118.5-98.1h11.6c64.4 0 116.9 50.4 120.5 113.8 13.8-51.5 60.7-89.4 116.6-89.4h11.6c13.8 0 27.2 2.4 39.6 6.7v233.5c0 30.9-24.9 55.9-55.9 55.9h-1443.7c-30.8 0-55.9-25-55.9-55.9v-274.1c4.1-0.4 8.3-0.6 12.5-0.6h11.6"
                  fill="#b3b3b3"/>
        </g>
        <g transform="matrix(.0061864 0 0 -.0061864 33.88 182.09)">
            <path d="m12773 16298c-141.2 2-300.3 1-440.5 0h17.5l-18.9-0.3-0.6-164.9c26.1 16.8 45.4 43.3 52.6 74.5 8.1-59.3 58.9-105 120.4-105h11.7c59.3 0 108.7 42.5 119.3 98.7 10.7-56.2 60-98.7 119.4-98.7h11.6c11.4 0 22.3 1.7 32.8 4.6-3.5 12.2-6.9 24.4-9.9 36.7-12.4 50.3-19.6 101.4-15.4 154.4"
                  fill="#b3b3b3"/>
        </g>
        <g transform="matrix(.0064028 0 0 -.0064028 33.88 182.09)">
            <path d="m10494 16230c-0.3 1.5-0.8 3-1 4.5 0.4 2.4 0.7 4.8 1 7.3-0.3 2-0.4 4-0.6 6.1-0.2 2.8-0.4 5.7-0.4 8.6 0-2.9 0.1-5.8 0.4-8.6 0.2-2.1 0.3-4.1 0.6-6.1 0.3-2.5 0.6-4.9 1.1-7.3-0.3-1.5-0.7-3-1.1-4.5zm22.6-510c-0.3 2-0.5 4.1-0.7 6.1-0.2 2.9-0.4 5.7-0.4 8.6v565.4h-241.9v-565.4c0-64.8 52.6-117.4 117.4-117.4h11.3c55.8 0 102.2 38.9 114.3 91-0.4 1.5-0.8 2.9-1.1 4.4 0.5 2.4 0.8 4.9 1.1 7.3"
                  fill="#ef3c4c"/>
        </g>
        <g transform="matrix(.0064641 0 0 -.0064641 33.88 182.09)">
            <path d="m10416 16149 149.2 150.8-142.4-0.2-246.4-150.6v-3.7h239.6v3.7" fill="#b91e26"/>
        </g>
        <g transform="matrix(.0064642 0 0 -.0064642 33.88 182.09)">
            <path d="m10416 16145h239.6v3.7l95.4 151.1-185.8-0.3-149.2-150.8v-3.7" fill="#e8dae6"/>
        </g>
        <g transform="matrix(.0064028 0 0 -.0064028 33.88 182.09)">
            <path d="m10758 16300h-241.9v-565.4c0-2.9 0.2-5.7 0.4-8.6 0.2-2 0.4-4.1 0.7-6.1 0.3-2.4 0.5-4.9 1-7.3-0.3-1.5-0.7-2.9-1-4.4 12-52.1 58.5-91 114.2-91h11.3c61.8 0 114.5 47.8 119.1 108.4-2.5 9.5-3.8 19.4-3.8 29.7v544.7"
                  fill="#fff"/>
        </g>
        <g transform="matrix(.0061807 0 0 -.0061807 33.88 182.09)">
            <path d="m10894 16300c0-3 0.2-6 0.4-8.9-0.2 2.9-0.4 5.9-0.4 8.9" fill="#fff"/>
        </g>
        <g transform="matrix(.0063857 0 0 -.0063857 33.88 182.09)">
            <path d="m10522 16291c-0.2 2.8-0.4 5.7-0.4 8.6 0-2.9 0.2-5.8 0.4-8.6" fill="#54555a"/>
        </g>
        <g transform="matrix(.0063799 0 0 -.0063799 33.88 182.09)">
            <path d="m10531 16293c0.2-1.5 0.7-3 1-4.5 0.4 1.5 0.8 3 1 4.5-0.4 2.4-0.7 4.8-1 7.3-0.3-2.5-0.6-4.9-1-7.3"
                  fill="#54555a"/>
        </g>
        <g transform="matrix(.0064028 0 0 -.0064028 33.88 182.09)">
            <path d="m11000 16300h-241.8l-0.1-544.7c0-10.3 1.3-20.2 3.8-29.7 13.1-50.4 59-87.7 113.6-87.7h11.2c57.4 0 105 41.1 115.3 95.4-1.3 7.1-2 14.5-2 22v544.7"
                  fill="#ef3c4c"/>
        </g>
        <g transform="matrix(.0064643 0 0 -.0064643 33.88 182.09)">
            <path d="m10656 16145h239.4v3.7l54.1 151.4-197.8-0.3-95.9-151.1 0.2-0.8v-2.9" fill="#b91e26"/>
        </g>
        <g transform="matrix(.0064645 0 0 -.0064645 33.88 182.09)">
            <path d="m10895 16145h239.6v155.4l-185.5-0.3-54.1-151.4v-3.7" fill="#e8dae6"/>
        </g>
        <g transform="matrix(.0064028 0 0 -.0064028 33.88 182.09)">
            <path d="m11242 16300h-241.8v-544.7c0-7.5 0.7-14.9 2-22 10.3-54.3 58-95.4 115.3-95.4h11.3c55.6 0 102.2 38.8 114.3 90.7-0.7 5.2-1.1 10.5-1.1 15.9v555.5"
                  fill="#fff"/>
        </g>
        <g transform="matrix(.0064646 0 0 -.0064646 33.88 182.09)">
            <path d="m11374 16144v1.1h-0.7v154.6l-238.9-0.4v-155.3h239.6" fill="#b91e26"/>
        </g>
        <g transform="matrix(.0064028 0 0 -.0064028 33.88 182.09)">
            <path d="m11484 16300h-241.9v-555.5c0-5.4 0.4-10.7 1.1-15.9 7.8-57.3 56.9-101.5 116.3-101.5h11.3c57.3 0 105 41.1 115.3 95.4-1.4 7.1-2.1 14.5-2.1 22v555.5"
                  fill="#ef3c4c"/>
        </g>
        <g transform="matrix(.0064647 0 0 -.0064647 33.88 182.09)">
            <path d="m11374 16148v-3.6h239.5v3.6l-59.4 152.4-180.8-0.3v-152.1h0.7" fill="#e8dae6"/>
        </g>
        <g transform="matrix(.0064028 0 0 -.0064028 33.88 182.09)">
            <path d="m11725 16300h-241.8v-555.5c0-7.5 0.7-14.9 2.1-22 10.3-54.3 58-95.4 115.3-95.4h11.3c62.5 0 113.7 49 117.1 110.7-2.6 9.7-4 19.9-4 30.4v531.8"
                  fill="#fff"/>
        </g>
        <g transform="matrix(.0064028 0 0 -.0064028 33.88 182.09)">
            <path d="m11967 16300h-241.9v-531.8c0-10.5 1.4-20.7 4-30.4 13.4-50.1 59.1-87 113.4-87h11.3c55.7 0 102.2 38.7 114.3 90.7-0.7 5.2-1.1 10.5-1.1 15.9v542.6"
                  fill="#ef3c4c"/>
        </g>
        <g transform="matrix(.0064648 0 0 -.0064648 33.88 182.09)">
            <path d="m11613 16144h239.5v3.3l-53.9 79.7-49.7 73.3-195.4-0.3 59.5-152.4v-3.6" fill="#b91e26"/>
        </g>
        <g transform="matrix(.006465 0 0 -.006465 33.88 182.09)">
            <path d="m11852 16147v-3.3h239.6v2.6l-164.2 154-178.8-0.3 49.5-73.2 53.9-79.5v-0.3" fill="#e8dae6"/>
        </g>
        <g transform="matrix(.0064028 0 0 -.0064028 33.88 182.09)">
            <path d="m12209 16300h-241.9v-542.6c0-5.4 0.4-10.7 1.1-15.9 7.8-57.3 56.8-101.5 116.3-101.5h11.3c57.3 0 104.9 41.1 115.3 95.4-1.4 7.1-2.1 14.5-2.1 22v542.6"
                  fill="#fff"/>
        </g>
        <g transform="matrix(.0064651 0 0 -.0064651 33.88 182.09)">
            <path d="m12335 16143v3.7l-226.9 153.2-179.9-0.3 163.2-152.9v-3.7h243.6" fill="#b91e26"/>
        </g>
        <g transform="matrix(.0064028 0 0 -.0064028 33.88 182.09)">
            <path d="m12209 16300v-542.6c0-7.5 0.7-14.9 2.1-22 10.3-54.3 58-95.4 115.3-95.4h11.2c64.9 0 117.4 52.6 117.4 117.4v542.6h-246"
                  fill="#ef3c4c"/>
        </g>
        <g transform="matrix(.0059775 0 0 -.0059775 33.88 182.09)">
            <path d="m11380 16300h-24.5v-22.3h24.5v22.3" fill="#ee3b50"/>
        </g>
        <g transform="matrix(.0059693 0 0 -.0059693 33.88 182.09)">
            <path d="m11370 16300v-78.1h24.6v78.1h-24.6" fill="#7eceb1"/>
        </g>
        <g transform="matrix(.0058998 0 0 -.0058998 33.88 182.09)">
            <path d="m11474 16241h85.8v58.7h-85.8v-58.7" fill="#7eceb1"/>
        </g>
        <g transform="matrix(.0059488 0 0 -.0059488 33.88 182.09)">
            <path d="m11464 16257c0 23.5-19.1 42.6-42.6 42.6s-42.5-19.1-42.5-42.6v-35.8h85.1v35.8" fill="#7eceb1"/>
        </g>
        <g transform="matrix(.0059202 0 0 -.0059202 33.88 182.09)">
            <path d="m11434 16300v-56.3h85.5v56.3h-85.5" fill="#ee3b50"/>
        </g>
        <g transform="matrix(.0059775 0 0 -.0059775 33.88 182.09)">
            <path d="m11493 16300h-24.5v-22.3h24.5v22.3" fill="#ee3b50"/>
        </g>
        <g transform="matrix(.0059693 0 0 -.0059693 33.88 182.09)">
            <path d="m11484 16300v-78.1h24.5v78.1h-24.5" fill="#7eceb1"/>
        </g>
        <g transform="matrix(.0058998 0 0 -.0058998 33.88 182.09)">
            <path d="m11588 16241h85.9v58.7h-85.9v-58.7" fill="#7eceb1"/>
        </g>
        <g transform="matrix(.0059488 0 0 -.0059488 33.88 182.09)">
            <path d="m11578 16257c0 23.5-19 42.6-42.6 42.6-23.5 0-42.5-19.1-42.5-42.6v-35.8h85.1v35.8" fill="#7eceb1"/>
        </g>
        <g transform="matrix(.0059202 0 0 -.0059202 33.88 182.09)">
            <path d="m11548 16300v-56.3h85.6v56.3h-85.6" fill="#ee3b50"/>
        </g>
        <g transform="matrix(.0059775 0 0 -.0059775 33.88 182.09)">
            <path d="m11606 16300h-24.6v-22.3h24.6v22.3" fill="#ee3b50"/>
        </g>
        <g transform="matrix(.0059693 0 0 -.0059693 33.88 182.09)">
            <path d="m11597 16300v-78.1h24.6v78.1h-24.6" fill="#7eceb1"/>
        </g>
        <g transform="matrix(.0058998 0 0 -.0058998 33.88 182.09)">
            <path d="m11703 16241h85.9v58.7h-85.9v-58.7" fill="#7eceb1"/>
        </g>
        <g transform="matrix(.0059488 0 0 -.0059488 33.88 182.09)">
            <path d="m11692 16257c0 23.5-19.1 42.6-42.6 42.6s-42.6-19.1-42.6-42.6v-35.8h85.2v35.8" fill="#7eceb1"/>
        </g>
        <g transform="matrix(.0059202 0 0 -.0059202 33.88 182.09)">
            <path d="m11663 16300v-56.3h85.6v56.3h-85.6" fill="#ee3b50"/>
        </g>
        <g transform="matrix(.0059775 0 0 -.0059775 33.88 182.09)">
            <path d="m11719 16300h-24.6v-22.3h24.6v22.3" fill="#ee3b50"/>
        </g>
        <g transform="matrix(.0059693 0 0 -.0059693 33.88 182.09)">
            <path d="m11710 16300v-78.1h24.5v78.1h-24.5" fill="#7eceb1"/>
        </g>
        <g transform="matrix(.0058998 0 0 -.0058998 33.88 182.09)">
            <path d="m11818 16241h85.8v58.7h-85.8v-58.7" fill="#7eceb1"/>
        </g>
        <g transform="matrix(.0059488 0 0 -.0059488 33.88 182.09)">
            <path d="m11805 16257c0 23.5-19.1 42.6-42.6 42.6s-42.6-19.1-42.6-42.6v-35.8h85.2v35.8" fill="#7eceb1"/>
        </g>
        <g transform="matrix(.0059202 0 0 -.0059202 33.88 182.09)">
            <path d="m11777 16300v-56.3h85.5v56.3h-85.5" fill="#ee3b50"/>
        </g>
        <g transform="matrix(.0059775 0 0 -.0059775 33.88 182.09)">
            <path d="m11832 16300h-24.5v-22.3h24.5v22.3" fill="#ee3b50"/>
        </g>
        <g transform="matrix(.0059693 0 0 -.0059693 33.88 182.09)">
            <path d="m11824 16300v-78.1h24.6v78.1h-24.6" fill="#7eceb1"/>
        </g>
        <g transform="matrix(.0058998 0 0 -.0058998 33.88 182.09)">
            <path d="m11932 16241h85.8v58.7h-85.8v-58.7" fill="#7eceb1"/>
        </g>
        <g transform="matrix(.0059488 0 0 -.0059488 33.88 182.09)">
            <path d="m11919 16257c0 23.5-19 42.6-42.5 42.6-23.6 0-42.6-19.1-42.6-42.6v-35.8h85.1v35.8" fill="#7eceb1"/>
        </g>
        <g transform="matrix(.0059202 0 0 -.0059202 33.88 182.09)">
            <path d="m11891 16300v-56.3h85.5v56.3h-85.5" fill="#ee3b50"/>
        </g>
        <g transform="matrix(.0060957 0 0 -.0060957 33.88 182.09)">
            <path d="m11158 16300h-24v-21.9h24v21.9" fill="#ee3b50"/>
        </g>
        <g transform="matrix(.0060875 0 0 -.0060875 33.88 182.09)">
            <path d="m11149 16300v-76.6h24v76.6h-24" fill="#7eceb1"/>
        </g>
        <g transform="matrix(.006018 0 0 -.006018 33.88 182.09)">
            <path d="m11248 16242h84.1v57.6h-84.1v-57.6" fill="#7eceb1"/>
        </g>
        <g transform="matrix(.006067 0 0 -.006067 33.88 182.09)">
            <path d="m11240 16258c0 23-18.7 41.7-41.7 41.7-23.1 0-41.8-18.7-41.8-41.7v-35.2h83.5v35.2" fill="#7eceb1"/>
        </g>
        <g transform="matrix(.0060384 0 0 -.0060384 33.88 182.09)">
            <path d="m11210 16300v-55.2h83.9v55.2h-83.9" fill="#ee3b50"/>
        </g>
        <g transform="matrix(.0060957 0 0 -.0060957 33.88 182.09)">
            <path d="m11269 16300h-24v-21.9h24v21.9" fill="#ee3b50"/>
        </g>
        <g transform="matrix(.0060875 0 0 -.0060875 33.88 182.09)">
            <path d="m11260 16300v-76.6h24.1v76.6h-24.1" fill="#7eceb1"/>
        </g>
        <g transform="matrix(.006018 0 0 -.006018 33.88 182.09)">
            <path d="m11360 16242h84.2v57.6h-84.2v-57.6" fill="#7eceb1"/>
        </g>
        <g transform="matrix(.006067 0 0 -.006067 33.88 182.09)">
            <path d="m11352 16258c0 23-18.7 41.7-41.8 41.7s-41.7-18.7-41.7-41.7v-35.2h83.5v35.2" fill="#7eceb1"/>
        </g>
        <g transform="matrix(.0060384 0 0 -.0060384 33.88 182.09)">
            <path d="m11322 16300v-55.2h83.9v55.2h-83.9" fill="#ee3b50"/>
        </g>
        <g transform="matrix(.0060957 0 0 -.0060957 33.88 182.09)">
            <path d="m11380 16300h-24v-21.9h24v21.9" fill="#ee3b50"/>
        </g>
        <g transform="matrix(.0060875 0 0 -.0060875 33.88 182.09)">
            <path d="m11371 16300v-76.6h24.1v76.6h-24.1" fill="#7eceb1"/>
        </g>
        <g transform="matrix(.006018 0 0 -.006018 33.88 182.09)">
            <path d="m11473 16242h84.1v57.6h-84.1v-57.6" fill="#7eceb1"/>
        </g>
        <g transform="matrix(.006067 0 0 -.006067 33.88 182.09)">
            <path d="m11463 16258c0 23-18.7 41.7-41.8 41.7-23 0-41.7-18.7-41.7-41.7v-35.2h83.5v35.2" fill="#7eceb1"/>
        </g>
        <g transform="matrix(.0060384 0 0 -.0060384 33.88 182.09)">
            <path d="m11434 16300v-55.2h83.9v55.2h-83.9" fill="#ee3b50"/>
        </g>
        <g transform="matrix(.0060957 0 0 -.0060957 33.88 182.09)">
            <path d="m11491 16300h-24v-21.9h24v21.9" fill="#ee3b50"/>
        </g>
        <g transform="matrix(.0060875 0 0 -.0060875 33.88 182.09)">
            <path d="m11482 16300v-76.6h24.1v76.6h-24.1" fill="#7eceb1"/>
        </g>
        <g transform="matrix(.006018 0 0 -.006018 33.88 182.09)">
            <path d="m11585 16242h84.1v57.6h-84.1v-57.6" fill="#7eceb1"/>
        </g>
        <g transform="matrix(.006067 0 0 -.006067 33.88 182.09)">
            <path d="m11575 16258c0 23-18.7 41.7-41.8 41.7-23 0-41.7-18.7-41.7-41.7v-35.2h83.5v35.2" fill="#7eceb1"/>
        </g>
        <g transform="matrix(.0060384 0 0 -.0060384 33.88 182.09)">
            <path d="m11546 16300v-55.2h83.9v55.2h-83.9" fill="#ee3b50"/>
        </g>
        <g transform="matrix(.0060957 0 0 -.0060957 33.88 182.09)">
            <path d="m11602 16300h-24v-21.9h24v21.9" fill="#ee3b50"/>
        </g>
        <g transform="matrix(.0060875 0 0 -.0060875 33.88 182.09)">
            <path d="m11593 16300v-76.6h24.1v76.6h-24.1" fill="#7eceb1"/>
        </g>
        <g transform="matrix(.006018 0 0 -.006018 33.88 182.09)">
            <path d="m11697 16242h84.2v57.6h-84.2v-57.6" fill="#7eceb1"/>
        </g>
        <g transform="matrix(.006067 0 0 -.006067 33.88 182.09)">
            <path d="m11686 16258c0 23-18.7 41.7-41.8 41.7-23 0-41.7-18.7-41.7-41.7v-35.2h83.5v35.2" fill="#7eceb1"/>
        </g>
        <g transform="matrix(.0060384 0 0 -.0060384 33.88 182.09)">
            <path d="m11658 16300v-55.2h83.9v55.2h-83.9" fill="#ee3b50"/>
        </g>
        <g transform="matrix(.0059589 0 0 -.0059589 33.88 182.09)">
            <path d="m12061 16276 26.6 23.9 67.6 0.2-24.1-23.9-70.1-0.2" fill="#57c6c2"/>
        </g>
        <g transform="matrix(.0059589 0 0 -.0059589 33.88 182.09)">
            <path d="m12175 16276-19.5 23.7-24.1-23.9 43.6 0.2" fill="#33799d"/>
        </g>
        <g transform="matrix(.0059628 0 0 -.0059628 33.88 182.09)">
            <path d="m12148 16300-67.6-0.2 0.1-10.5 67.6 0.2-0.1 10.5" fill="#d7f1ec"/>
        </g>
        <g transform="matrix(.0059502 0 0 -.0059502 33.88 182.09)">
            <path d="m12149 16300-70.3-0.2 0.3-69.1h70.2l-0.2 69.3" fill="#d7f1ec"/>
        </g>
        <g transform="matrix(.0059055 0 0 -.0059055 33.88 182.09)">
            <path d="m12171 16300 0.3-73 70.8 0.2-0.3 72.8h-70.8" fill="#d7f1ec"/>
        </g>
        <g transform="matrix(.0059502 0 0 -.0059502 33.88 182.09)">
            <path d="m12193 16231-0.2 69.4-43.7-0.1 0.2-69.3h43.7" fill="#57c6c2"/>
        </g>
        <g transform="matrix(.0059055 0 0 -.0059055 33.88 182.09)">
            <path d="m12242 16227 44 0.2-0.2 72.6h-44.1l0.3-72.8" fill="#57c6c2"/>
        </g>
        <g transform="matrix(.0059249 0 0 -.0059249 33.88 182.09)">
            <path d="m12201 16300h-70.5l0.1-53.5h70.5l-0.1 53.5" fill="#57c6c2"/>
        </g>
        <g transform="matrix(.0059249 0 0 -.0059249 33.88 182.09)">
            <path d="m12201 16300 0.1-53.5h44l-0.2 53.5h-43.9" fill="#33799d"/>
        </g>
        <g transform="matrix(.0059589 0 0 -.0059589 33.88 182.09)">
            <path d="m12199 16276 26.5 23.9 67.7 0.2-24.1-23.9-70.1-0.2" fill="#57c6c2"/>
        </g>
        <g transform="matrix(.0059589 0 0 -.0059589 33.88 182.09)">
            <path d="m12312 16276-19.5 23.7-24.1-23.9 43.6 0.2" fill="#33799d"/>
        </g>
        <g transform="matrix(.0059628 0 0 -.0059628 33.88 182.09)">
            <path d="m12285 16300-67.6-0.2 0.1-10.5 67.6 0.2-0.1 10.5" fill="#d7f1ec"/>
        </g>
        <g transform="matrix(.0059502 0 0 -.0059502 33.88 182.09)">
            <path d="m12287 16300-70.2-0.2 0.2-69.1h70.2l-0.2 69.3" fill="#d7f1ec"/>
        </g>
        <g transform="matrix(.0059055 0 0 -.0059055 33.88 182.09)">
            <path d="m12310 16300 0.2-73 70.8 0.2-0.3 72.8h-70.7" fill="#d7f1ec"/>
        </g>
        <g transform="matrix(.0059502 0 0 -.0059502 33.88 182.09)">
            <path d="m12331 16231-0.2 69.4-43.7-0.1 0.2-69.3h43.7" fill="#57c6c2"/>
        </g>
        <g transform="matrix(.0059055 0 0 -.0059055 33.88 182.09)">
            <path d="m12380 16227 44 0.2-0.2 72.6h-44.1l0.3-72.8" fill="#57c6c2"/>
        </g>
        <g transform="matrix(.0059249 0 0 -.0059249 33.88 182.09)">
            <path d="m12339 16300h-70.5l0.2-53.5h70.5l-0.2 53.5" fill="#57c6c2"/>
        </g>
        <g transform="matrix(.0059249 0 0 -.0059249 33.88 182.09)">
            <path d="m12339 16300 0.2-53.5h43.9l-0.1 53.5h-44" fill="#33799d"/>
        </g>
        <g transform="matrix(.0059589 0 0 -.0059589 33.88 182.09)">
            <path d="m12336 16276 26.6 23.9 67.6 0.2-24-23.9-70.2-0.2" fill="#57c6c2"/>
        </g>
        <g transform="matrix(.0059589 0 0 -.0059589 33.88 182.09)">
            <path d="m12450 16276-19.6 23.7-24-23.9 43.6 0.2" fill="#33799d"/>
        </g>
        <g transform="matrix(.0059628 0 0 -.0059628 33.88 182.09)">
            <path d="m12422 16300-67.6-0.2v-10.5l67.6 0.2v10.5" fill="#d7f1ec"/>
        </g>
        <g transform="matrix(.0059502 0 0 -.0059502 33.88 182.09)">
            <path d="m12424 16300-70.3-0.2 0.3-69.1h70.2l-0.2 69.3" fill="#d7f1ec"/>
        </g>
        <g transform="matrix(.0059055 0 0 -.0059055 33.88 182.09)">
            <path d="m12448 16300 0.3-73 70.7 0.2-0.2 72.8h-70.8" fill="#d7f1ec"/>
        </g>
        <g transform="matrix(.0059502 0 0 -.0059502 33.88 182.09)">
            <path d="m12468 16231-0.2 69.4-43.8-0.1 0.3-69.3h43.7" fill="#57c6c2"/>
        </g>
        <g transform="matrix(.0059055 0 0 -.0059055 33.88 182.09)">
            <path d="m12519 16227 44.1 0.2-0.3 72.6h-44l0.2-72.8" fill="#57c6c2"/>
        </g>
        <g transform="matrix(.0059249 0 0 -.0059249 33.88 182.09)">
            <path d="m12478 16300h-70.5l0.2-53.5h70.5l-0.2 53.5" fill="#57c6c2"/>
        </g>
        <g transform="matrix(.0059249 0 0 -.0059249 33.88 182.09)">
            <path d="m12478 16300 0.2-53.5h43.9l-0.2 53.5h-43.9" fill="#33799d"/>
        </g>
        <g transform="matrix(.0059589 0 0 -.0059589 33.88 182.09)">
            <path d="m12473 16276 26.6 23.9 67.6 0.2-24.1-23.9-70.1-0.2" fill="#57c6c2"/>
        </g>
        <g transform="matrix(.0059589 0 0 -.0059589 33.88 182.09)">
            <path d="m12587 16276-19.6 23.7-24.1-23.9 43.7 0.2" fill="#33799d"/>
        </g>
        <g transform="matrix(.0059628 0 0 -.0059628 33.88 182.09)">
            <path d="m12559 16300-67.6-0.2v-10.5l67.6 0.2v10.5" fill="#d7f1ec"/>
        </g>
        <g transform="matrix(.0059502 0 0 -.0059502 33.88 182.09)">
            <path d="m12562 16300-70.2-0.2 0.3-69.1h70.2l-0.3 69.3" fill="#d7f1ec"/>
        </g>
        <g transform="matrix(.0059055 0 0 -.0059055 33.88 182.09)">
            <path d="m12586 16300 0.3-73 70.7 0.2-0.2 72.8h-70.8" fill="#d7f1ec"/>
        </g>
        <g transform="matrix(.0059502 0 0 -.0059502 33.88 182.09)">
            <path d="m12606 16231-0.3 69.4-43.7-0.1 0.3-69.3h43.7" fill="#57c6c2"/>
        </g>
        <g transform="matrix(.0059055 0 0 -.0059055 33.88 182.09)">
            <path d="m12658 16227 44.1 0.2-0.3 72.6h-44l0.2-72.8" fill="#57c6c2"/>
        </g>
        <g transform="matrix(.0059249 0 0 -.0059249 33.88 182.09)">
            <path d="m12616 16300h-70.5l0.2-53.5h70.5l-0.2 53.5" fill="#57c6c2"/>
        </g>
        <g transform="matrix(.0059249 0 0 -.0059249 33.88 182.09)">
            <path d="m12616 16300 0.2-53.5h43.9l-0.2 53.5h-43.9" fill="#33799d"/>
        </g>
        <g transform="matrix(.0060708 0 0 -.0060708 33.88 182.09)">
            <path d="m11846 16276 26.1 23.5 66.4 0.2-23.7-23.4-68.8-0.3" fill="#57c6c2"/>
        </g>
        <g transform="matrix(.0060708 0 0 -.0060708 33.88 182.09)">
            <path d="m11958 16277-19.2 23.3-23.7-23.4 42.9 0.1" fill="#33799d"/>
        </g>
        <g transform="matrix(.0060746 0 0 -.0060746 33.88 182.09)">
            <path d="m11931 16300-66.3-0.2v-10.3l66.4 0.2-0.1 10.3" fill="#d7f1ec"/>
        </g>
        <g transform="matrix(.006062 0 0 -.006062 33.88 182.09)">
            <path d="m11932 16300-68.9-0.2 0.2-67.8h68.9l-0.2 68" fill="#d7f1ec"/>
        </g>
        <g transform="matrix(.0060173 0 0 -.0060173 33.88 182.09)">
            <path d="m11952 16300 0.2-71.7 69.4 0.3-0.2 71.4h-69.4" fill="#d7f1ec"/>
        </g>
        <g transform="matrix(.0060621 0 0 -.0060621 33.88 182.09)">
            <path d="m11975 16232-0.2 68.1-42.9-0.1 0.2-68h42.9" fill="#57c6c2"/>
        </g>
        <g transform="matrix(.0060173 0 0 -.0060173 33.88 182.09)">
            <path d="m12021 16229 43.3 0.1-0.3 71.3h-43.2l0.2-71.4" fill="#57c6c2"/>
        </g>
        <g transform="matrix(.0060368 0 0 -.0060368 33.88 182.09)">
            <path d="m11982 16300h-69.2l0.2-52.5h69.2l-0.2 52.5" fill="#57c6c2"/>
        </g>
        <g transform="matrix(.0060368 0 0 -.0060368 33.88 182.09)">
            <path d="m11982 16300 0.2-52.5h43.1l-0.2 52.5h-43.1" fill="#33799d"/>
        </g>
        <g transform="matrix(.0060708 0 0 -.0060708 33.88 182.09)">
            <path d="m11981 16276 26.1 23.5 66.4 0.2-23.7-23.4-68.8-0.3" fill="#57c6c2"/>
        </g>
        <g transform="matrix(.0060708 0 0 -.0060708 33.88 182.09)">
            <path d="m12093 16277-19.2 23.3-23.7-23.4 42.9 0.1" fill="#33799d"/>
        </g>
        <g transform="matrix(.0060746 0 0 -.0060746 33.88 182.09)">
            <path d="m12066 16300-66.3-0.2v-10.3l66.3 0.2v10.3" fill="#d7f1ec"/>
        </g>
        <g transform="matrix(.006062 0 0 -.006062 33.88 182.09)">
            <path d="m12067 16300-69-0.2 0.3-67.8h68.9l-0.2 68" fill="#d7f1ec"/>
        </g>
        <g transform="matrix(.0060173 0 0 -.0060173 33.88 182.09)">
            <path d="m12088 16300 0.3-71.7 69.4 0.3-0.3 71.4h-69.4" fill="#d7f1ec"/>
        </g>
        <g transform="matrix(.0060621 0 0 -.0060621 33.88 182.09)">
            <path d="m12110 16232-0.2 68.1-42.9-0.1 0.2-68h42.9" fill="#57c6c2"/>
        </g>
        <g transform="matrix(.0060173 0 0 -.0060173 33.88 182.09)">
            <path d="m12157 16229 43.2 0.1-0.2 71.3h-43.3l0.3-71.4" fill="#57c6c2"/>
        </g>
        <g transform="matrix(.0060368 0 0 -.0060368 33.88 182.09)">
            <path d="m12118 16300h-69.2l0.2-52.5h69.2l-0.2 52.5" fill="#57c6c2"/>
        </g>
        <g transform="matrix(.0060368 0 0 -.0060368 33.88 182.09)">
            <path d="m12118 16300 0.2-52.5h43.1l-0.2 52.5h-43.1" fill="#33799d"/>
        </g>
        <g transform="matrix(.0060708 0 0 -.0060708 33.88 182.09)">
            <path d="m12116 16276 26 23.5 66.4 0.2-23.6-23.4-68.8-0.3" fill="#57c6c2"/>
        </g>
        <g transform="matrix(.0060708 0 0 -.0060708 33.88 182.09)">
            <path d="m12227 16277-19.2 23.3-23.6-23.4 42.8 0.1" fill="#33799d"/>
        </g>
        <g transform="matrix(.0060746 0 0 -.0060746 33.88 182.09)">
            <path d="m12200 16300-66.4-0.2 0.1-10.3 66.3 0.2v10.3" fill="#d7f1ec"/>
        </g>
        <g transform="matrix(.006062 0 0 -.006062 33.88 182.09)">
            <path d="m12202 16300-68.9-0.2 0.2-67.8h68.9l-0.2 68" fill="#d7f1ec"/>
        </g>
        <g transform="matrix(.0060173 0 0 -.0060173 33.88 182.09)">
            <path d="m12224 16300 0.2-71.7 69.5 0.3-0.3 71.4h-69.4" fill="#d7f1ec"/>
        </g>
        <g transform="matrix(.0060621 0 0 -.0060621 33.88 182.09)">
            <path d="m12245 16232-0.3 68.1-42.9-0.1 0.2-68h43" fill="#57c6c2"/>
        </g>
        <g transform="matrix(.0060173 0 0 -.0060173 33.88 182.09)">
            <path d="m12293 16229 43.2 0.1-0.3 71.3h-43.2l0.3-71.4" fill="#57c6c2"/>
        </g>
        <g transform="matrix(.0060368 0 0 -.0060368 33.88 182.09)">
            <path d="m12253 16300h-69.3l0.2-52.5h69.2l-0.1 52.5" fill="#57c6c2"/>
        </g>
        <g transform="matrix(.0060368 0 0 -.0060368 33.88 182.09)">
            <path d="m12253 16300 0.1-52.5h43.1l-0.1 52.5h-43.1" fill="#33799d"/>
        </g>
        <g transform="matrix(.0060708 0 0 -.0060708 33.88 182.09)">
            <path d="m12250 16276 26.1 23.5 66.4 0.2-23.7-23.4-68.8-0.3" fill="#57c6c2"/>
        </g>
        <g transform="matrix(.0060708 0 0 -.0060708 33.88 182.09)">
            <path d="m12362 16277-19.2 23.3-23.7-23.4 42.9 0.1" fill="#33799d"/>
        </g>
        <g transform="matrix(.0060746 0 0 -.0060746 33.88 182.09)">
            <path d="m12335 16300-66.3-0.2v-10.3l66.4 0.2-0.1 10.3" fill="#d7f1ec"/>
        </g>
        <g transform="matrix(.006062 0 0 -.006062 33.88 182.09)">
            <path d="m12337 16300-69-0.2 0.3-67.8h68.9l-0.2 68" fill="#d7f1ec"/>
        </g>
        <g transform="matrix(.0060173 0 0 -.0060173 33.88 182.09)">
            <path d="m12360 16300 0.3-71.7 69.4 0.3-0.2 71.4h-69.5" fill="#d7f1ec"/>
        </g>
        <g transform="matrix(.0060621 0 0 -.0060621 33.88 182.09)">
            <path d="m12380 16232-0.2 68.1-43-0.1 0.3-68h42.9" fill="#57c6c2"/>
        </g>
        <g transform="matrix(.0060173 0 0 -.0060173 33.88 182.09)">
            <path d="m12429 16229 43.2 0.1-0.2 71.3h-43.2l0.2-71.4" fill="#57c6c2"/>
        </g>
        <g transform="matrix(.0060368 0 0 -.0060368 33.88 182.09)">
            <path d="m12389 16300h-69.2l0.1-52.5h69.3l-0.2 52.5" fill="#57c6c2"/>
        </g>
        <g transform="matrix(.0060368 0 0 -.0060368 33.88 182.09)">
            <path d="m12389 16300 0.2-52.5h43l-0.1 52.5h-43.1" fill="#33799d"/>
        </g>
    </g>
</svg>
