<?xml version="1.0" encoding="UTF-8"?>
<svg xmlns:cc="http://creativecommons.org/ns#" xmlns:dc="http://purl.org/dc/elements/1.1/"
     xmlns:rdf="http://www.w3.org/1999/02/22-rdf-syntax-ns#" width="22.641mm" height="22.642mm"
     version="1.1" viewBox="0 0 22.641 22.642"
     xmlns="http://www.w3.org/2000/svg">
    <metadata>
        <rdf:RDF>
            <cc:Work rdf:about="">
                <dc:format>image/svg+xml</dc:format>
                <dc:type rdf:resource="http://purl.org/dc/dcmitype/StillImage"/>
                <dc:title/>
            </cc:Work>
        </rdf:RDF>
    </metadata>
    <g transform="matrix(.0051784 0 0 -.0051784 -61.767 30.106)">
        <path d="m16300 3627.5c0-1207.3-978.7-2186.1-2186.1-2186.1-1207.5 0-2186.1 978.82-2186.1 2186.1 0 1207.5 978.6 2186.2 2186.1 2186.2 1207.4 0 2186.1-978.69 2186.1-2186.2"
              fill="#ffc700"/>
    </g>
    <g transform="matrix(.0037982 0 0 -.0037982 -61.767 30.106)">
        <path d="m16300 4469.9c-17.8 114.24-29.6 228.36-34.8 341.49 5.1-115.66 16.8-229.65 34.8-341.49" fill="#3a474c"/>
    </g>
    <g transform="matrix(.00379 0 0 -.00379 -61.767 30.106)">
        <path d="m16300 4838.7c-0.7 16.16-1.2 32.27-1.7 48.3 0.4-16.16 1.1-32.2 1.7-48.3" fill="#3a474c"/>
    </g>
    <g transform="matrix(.0037901 0 0 -.0037901 -61.767 30.106)">
        <path d="m16300 4821.7c-0.2 5.55-0.4 11.17-0.6 16.78 0.2-5.61 0.4-11.16 0.6-16.78" fill="#2c3234"/>
    </g>
    <g transform="matrix(.0037896 0 0 -.0037896 -61.767 30.106)">
        <path d="m16300 4887.5c-0.5 23.08-0.9 46.21-0.9 69.41 0-23.08 0.3-46.21 0.9-69.41" fill="#2c3234"/>
    </g>
    <g transform="matrix(.0050122 0 0 -.0050122 -61.767 30.106)">
        <path d="m15366 4415.9-1632.4 410.13-377.3-270.67-262.5 24.63-770-825.31c0-2.33-0.1-4.61-0.1-6.9 0-17.54 0.3-35.03 0.7-52.47 0.3-12.13 0.7-24.31 1.3-36.53 0.1-4.24 0.2-8.49 0.4-12.68 4-85.73 12.9-172.21 26.4-258.78 162.9-1015.5 1002.6-1804.7 2042-1890.3l1906 1539.5-934.5 1379.4"
              fill="#ffa900"/>
    </g>
    <g transform="matrix(.0041657 0 0 -.0041657 -61.767 30.106)">
        <path d="m16300 3574.2c0-102.58-75.5-185.76-168.6-185.76s-168.6 83.18-168.6 185.76c0 102.6 75.5 185.71 168.6 185.71s168.6-83.11 168.6-185.71"
              fill="#fdfdea"/>
    </g>
    <g transform="matrix(.004839 0 0 -.004839 -61.767 30.106)">
        <path d="m16300 3086.7c0-91.02-66-164.79-147.6-164.79-81.5 0-147.6 73.77-147.6 164.79s66.1 164.84 147.6 164.84c81.6 0 147.6-73.82 147.6-164.84"
              fill="#fdfdea"/>
    </g>
    <g transform="matrix(.0048931 0 0 -.0048931 -61.767 30.106)">
        <path d="m15794 4363.8v-598.43l501.1 34.06 4.9 68.14-136.2 442.72-369.8 53.51" fill="#3aa8a0"/>
    </g>
    <g transform="matrix(.0049896 0 0 -.0049896 -61.767 30.106)">
        <path d="m16300 3192.3h-258.9v153.5h258.9v-153.5" fill="#f38618"/>
    </g>
    <g transform="matrix(.0046582 0 0 -.0046582 -61.767 30.106)">
        <path d="m16219 4958.5h-2102.1c-44.7 0-81.3-36.39-81.3-81.35v-1200.3c0-44.82 36.6-81.31 81.3-81.31h2102.1c45.1 0 81.4 36.49 81.4 81.31v1200.3c0 44.96-36.3 81.35-81.4 81.35"
              fill="#f38618"/>
    </g>
    <g transform="matrix(.0048874 0 0 -.0048874 -61.767 30.106)">
        <path d="m16040 2978.6c-17.3-15.93-40.3-25.69-65.7-25.69s-48.5 9.76-65.9 25.69c-19.3 17.79-31.5 43.29-31.5 71.61 0 6.07 0.6 11.96 1.7 17.65 8.3 45.3 48 79.69 95.7 79.69s87.3-34.39 95.6-79.69c1.1-5.69 1.7-11.58 1.7-17.65 0-28.32-12.2-53.82-31.6-71.61zm-65.7 397.65c-180.1 0-326.1-145.95-326.1-326.04 0-180.1 146-326.04 326.1-326.04 180 0 326 145.94 326 326.04 0 180.09-146 326.04-326 326.04"
              fill="#3aa8a0"/>
    </g>
    <g transform="matrix(.0042235 0 0 -.0042235 -61.767 30.106)">
        <path d="m15999 3446.8c-20-18.43-46.7-29.72-76.1-29.72s-56.1 11.29-76.2 29.72c-22.3 20.65-36.4 50.1-36.4 82.86 0 7.03 0.7 13.84 1.9 20.49 2.9 15.99 9.3 30.83 18.3 43.72 20.3 29.29 54.1 48.44 92.4 48.44s72.1-19.15 92.4-48.44c9-12.89 15.3-27.73 18.3-43.72 1.2-6.65 2-13.46 2-20.49 0-32.76-14.2-62.21-36.6-82.86zm-75.2 460.15h-1.8c-186.1-0.44-340.5-135.56-370.9-313.08-3.6-20.86-5.5-42.29-5.5-64.21 0-208.4 168.9-377.28 377.3-377.28 208.3 0 377.3 168.88 377.3 377.28 0 21.92-2 43.35-5.6 64.21-30.4 177.52-184.8 312.64-370.8 313.08"
              fill="#3aa8a0"/>
    </g>
    <g transform="matrix(.0040906 0 0 -.0040906 -61.767 30.106)">
        <path d="m16300 4033.9h-328.5v-323.25h60.1c0.2 1.37 0.4 2.75 0.6 4.12 25.8 150.65 130.6 270.1 267.8 319.13"
              fill="#f7f7f7"/>
    </g>
    <g transform="matrix(.0050126 0 0 -.0050126 -61.767 30.106)">
        <path d="m16218 3182.7c-82.2-2.84-165.9-2.84-248.1-1.45-1.5 49.68-1.5 97.85 0 147.48 82.2 1.44 164.5 1.44 246.7 0 2.8-49.63 2.8-97.8 1.4-146.03zm-759.4 580.34c-1.3 141.13-4 282.26 1.3 423.34 94.5 0 190.4 1.36 284.9-2.66 37.3-139.77 82.5-278.2 119.8-419.33-135.8-2.66-270.3-1.35-406-1.35zm774.7-569.75c-1.3 145.09 2.8 288.88-2.6 433.98-46.3 21.17-93.1 42.44-139.7 64.18-32.6 15.15-65 30.5-97.3 46.35-4.3 1.64-8.3 3.64-12.1 5.7-66 35.39-63.9 124.38-89 187.3-26.1 106.76-69.1 210.48-95.2 317.05-16.6 67.54-26.3 136.19-20.7 207.46-189.7 2.66-378.2 1.35-566.6 0h-1.8v-0.38l-1 0.84v-233.52l1-0.79c-0.7-309.74-3.2-619.75-0.1-929.48h-1678c111.9-40.02 197.4-137.5 218.5-260.44 0.3-1.12 0.3-2.24 0.5-3.36l1463.1 0.05c46.6 147.76 162.4 290.19 328.8 299.52 183.7 26.63 354.1-114.5 394-290.24 121.2-1.3 242.3-1.3 363.5-1.3 0 50.6 1.3 102.51 1.3 153.11-22.6 1.31-43.9 2.66-66.6 3.97"
              fill="#f7f7f7"/>
    </g>
    <g transform="matrix(.0045925 0 0 -.0045925 -61.767 30.106)">
        <path d="m16300 4561.3c0-471.04-381.8-852.88-852.9-852.88s-852.9 381.84-852.9 852.88 381.8 852.89 852.9 852.89 852.9-381.85 852.9-852.89"
              fill="#3aa8a0"/>
    </g>
    <g transform="matrix(.0043522 0 0 -.0043522 -61.767 30.106)">
        <path d="m15591 4813.1c0-391.75 317.5-709.28 709.3-709.28v1418.6c-391.8 0-709.3-317.58-709.3-709.34"
              fill="#fbf9ed"/>
    </g>
    <g transform="matrix(.0045416 0 0 -.0045416 -61.767 30.106)">
        <path d="m15620 5292.2v-1359.5c375.4 0 679.7 304.28 679.7 679.7s-304.3 679.76-679.7 679.76" fill="#c5ddce"/>
    </g>
    <g transform="matrix(.0043827 0 0 -.0043827 -61.767 30.106)">
        <path d="m16300 4779.6c0-62.73-50.9-113.62-113.6-113.62-62.8 0-113.6 50.89-113.6 113.62s50.8 113.63 113.6 113.63c62.7 0 113.6-50.9 113.6-113.63"
              fill="#3a474c"/>
    </g>
    <g transform="matrix(.0043637 0 0 -.0043637 -61.767 30.106)">
        <path d="m16300 4964.3c0-15.27-18.8-27.59-41.8-27.59-23.2 0-41.9 12.32-41.9 27.59v416.44c0 15.27 18.7 27.59 41.9 27.59 23 0 41.8-12.32 41.8-27.59v-416.44"
              fill="#3a474c"/>
    </g>
    <g transform="matrix(.0043244 0 0 -.0043244 -61.767 30.106)">
        <path d="m16034 4582.2c-23.6-11.62-52.9-0.65-65.4 24.6-12.4 25.3-3.4 55.2 20.2 66.87l232.8 115.1c23.7 11.68 52.9 0.65 65.4-24.6 12.5-25.3 3.5-55.25-20.2-66.87l-232.8-115.1"
              fill="#3a474c"/>
    </g>
</svg>
