<?xml version="1.0" encoding="UTF-8" standalone="no"?>
<svg
        xmlns:dc="http://purl.org/dc/elements/1.1/"
        xmlns:cc="http://creativecommons.org/ns#"
        xmlns:rdf="http://www.w3.org/1999/02/22-rdf-syntax-ns#"
        xmlns="http://www.w3.org/2000/svg"
        id="svg8"
        version="1.1"
        viewBox="0 0 44.677938 23.433968"
        height="23.433968mm"
        width="44.677937mm">
    <defs
            id="defs2"/>
    <metadata
            id="metadata5">
        <rdf:RDF>
            <cc:Work
                    rdf:about="">
                <dc:format>image/svg+xml</dc:format>
                <dc:type
                        rdf:resource="http://purl.org/dc/dcmitype/StillImage"/>
                <dc:title></dc:title>
            </cc:Work>
        </rdf:RDF>
    </metadata>
    <g
            transform="translate(-88.845154,-97.061712)"
            id="layer1">
        <path
                id="path937"
                style="fill:#171717;fill-opacity:1;fill-rule:nonzero;stroke:none;stroke-width:0.0352777"
                d="m 105.95761,114.96307 c 0.19967,-1.29364 0.29351,-2.59327 0.26882,-3.9183 -0.006,-0.34467 0.30021,-0.6477 0.64382,-0.64347 6.10058,0.0769 12.15813,-0.67451 18.07245,-2.13148 -1.44639,-0.4191 -2.89913,-0.80822 -4.38432,-1.08092 -0.58385,-0.10759 -0.54469,-0.86536 -0.14993,-1.14829 1.21003,-0.86642 2.32974,-1.84256 3.32634,-2.93476 -5.76298,2.44652 -11.88473,3.93454 -18.14654,4.39879 -0.47554,0.0353 -0.92216,-0.44344 -0.90522,-0.90487 0.0385,-1.01706 0.0691,-2.03377 0.1016,-3.05047 -1.99249,1.30633 -4.08341,2.36502 -6.315435,3.1944 2.814115,2.42817 5.360465,5.17313 7.488415,8.21937 m -9.788525,-9.57651 c 3.23003,-1.02411 6.318605,-2.50648 9.127775,-4.40549 0.56832,-0.38417 1.40441,0.12171 1.37619,0.78952 -0.0536,1.28023 -0.0988,2.56011 -0.14288,3.84034 6.58954,-0.61454 12.98152,-2.21862 19.08316,-4.81683 0.52564,-0.22401 1.37125,0.30762 0.91476,0.91475 -1.27777,1.7011 -2.67759,3.20076 -4.30425,4.51732 1.51801,0.29175 3.02437,0.62019 4.50462,1.08233 0.3997,0.12488 0.53693,0.47907 0.48578,0.80115 0.0349,0.17392 -0.0335,0.36901 -0.24024,0.45191 -0.12065,0.10654 -0.27976,0.17004 -0.47061,0.1524 -6.1602,1.97168 -12.5162,2.92418 -18.97909,2.97004 0.0159,1.8288 -0.1263,3.62902 -0.44309,5.43772 -0.12312,0.70273 -1.04669,0.65722 -1.38289,0.18062 -2.7365,-3.87562 -5.915385,-7.27957 -9.772305,-10.05699 -0.70485,-0.50765 -0.63606,-1.58045 0.24307,-1.85879"/>
        <path
                id="path1045"
                style="fill:#fefefe;fill-opacity:1;fill-rule:nonzero;stroke:none;stroke-width:0.0352777"
                d="m 112.46389,120.49568 c 0.01,0 0.018,-10e-4 0.0229,-0.005 0.0586,-0.0395 -0.0508,-0.0963 -0.10759,-0.0963 -0.01,0 -0.018,0.002 -0.0236,0.005 -0.0582,0.0402 0.0526,0.0963 0.1083,0.0963"/>
        <path
                id="path1057"
                style="fill:#fefefe;fill-opacity:1;fill-rule:nonzero;stroke:none;stroke-width:0.0352777"
                d="m 106.5344,120.03037 c 0.054,0 0.11254,-0.0247 0.16369,-0.0893 0,-0.061 0,-0.12136 0,-0.18309 -0.048,-0.007 -0.0903,-0.01 -0.12735,-0.01 -0.17604,0 -0.23072,0.0705 -0.21872,0.14111 0.012,0.0705 0.091,0.14111 0.18238,0.14111"/>
        <path
                id="path1059"
                style="fill:#fefefe;fill-opacity:1;fill-rule:nonzero;stroke:none;stroke-width:0.0352777"
                d="m 126.67448,120.03813 c 0.01,0 0.0183,-10e-4 0.024,-0.005 0.0582,-0.0402 -0.0533,-0.097 -0.11007,-0.097 -0.01,0 -0.018,0.002 -0.0233,0.005 -0.0575,0.0406 0.0522,0.097 0.10936,0.097"/>
        <path
                id="path1063"
                style="fill:#fefefe;fill-opacity:1;fill-rule:nonzero;stroke:none;stroke-width:0.0352777"
                d="m 111.54279,119.94676 c 0.01,0 0.0183,-0.002 0.024,-0.006 0.0572,-0.0402 -0.054,-0.097 -0.11007,-0.097 -0.01,0 -0.0176,0.002 -0.0229,0.005 -0.0575,0.0413 0.0519,0.0974 0.10901,0.0974"/>
        <path
                id="path1075"
                style="fill:#fefefe;fill-opacity:1;fill-rule:nonzero;stroke:none;stroke-width:0.0352777"
                d="m 104.56908,119.58058 c 0.01,0 0.0176,-0.002 0.0229,-0.005 0.0586,-0.0399 -0.0515,-0.097 -0.1083,-0.097 -0.01,0 -0.018,0.002 -0.0233,0.006 -0.0579,0.0406 0.0526,0.0967 0.10865,0.0967"/>
        <path
                id="path1085"
                style="fill:#fefefe;fill-opacity:1;fill-rule:nonzero;stroke:none;stroke-width:0.0352777"
                d="m 109.12767,119.45181 c 0.0349,0 0.0706,-0.0303 0.0695,-0.0603 -0.01,-0.043 -0.0349,-0.0589 -0.06,-0.0589 -0.0349,0 -0.0709,0.03 -0.0709,0.0589 0.0109,0.0441 0.036,0.0603 0.0614,0.0603"/>
        <path
                id="path1091"
                style="fill:#fefefe;fill-opacity:1;fill-rule:nonzero;stroke:none;stroke-width:0.0352777"
                d="m 106.89071,119.17735 c 0.0349,0 0.0705,-0.0303 0.0705,-0.06 -0.0106,-0.0434 -0.0356,-0.0593 -0.061,-0.0593 -0.0353,0 -0.0713,0.0303 -0.0713,0.0593 0.0109,0.0441 0.036,0.06 0.0617,0.06"/>
        <path
                id="path1095"
                style="fill:#fefefe;fill-opacity:1;fill-rule:nonzero;stroke:none;stroke-width:0.0352777"
                d="m 131.41158,119.12302 c 0.01,0 0.0176,-0.002 0.0229,-0.006 0.0575,-0.0399 -0.0519,-0.0967 -0.1076,-0.0967 -0.01,0 -0.0176,0.002 -0.0229,0.005 -0.0582,0.0402 0.0519,0.097 0.1076,0.097"/>
        <path
                id="path1101"
                style="fill:#fefefe;fill-opacity:1;fill-rule:nonzero;stroke:none;stroke-width:0.0352777"
                d="m 118.93349,118.7519 c -0.002,-0.0896 -0.16017,-0.0713 -0.26212,-0.0917 0.004,0.0893 0.16052,0.0705 0.26212,0.0917"/>
        <path
                id="path1107"
                style="fill:#fefefe;fill-opacity:1;fill-rule:nonzero;stroke:none;stroke-width:0.0352777"
                d="m 115.51613,118.57763 c 0.17885,0 0.2741,-0.0582 0.25999,-0.19226 -0.12982,0 -0.26282,0 -0.39511,0 0,0.0621 0,0.12276 0,0.18344 0.049,0.006 0.0942,0.009 0.13512,0.009"/>
        <path
                id="path1115"
                style="fill:#fefefe;fill-opacity:1;fill-rule:nonzero;stroke:none;stroke-width:0.0352777"
                d="m 105.96925,118.26225 c 0.0349,0 0.0706,-0.0303 0.0706,-0.0603 -0.0106,-0.043 -0.0356,-0.0589 -0.061,-0.0589 -0.0349,0 -0.0709,0.0303 -0.0706,0.0589 0.0106,0.0441 0.0356,0.0603 0.061,0.0603"/>
        <path
                id="path1121"
                style="fill:#fefefe;fill-opacity:1;fill-rule:nonzero;stroke:none;stroke-width:0.0352777"
                d="m 128.51668,118.1169 c 0.01,0 0.0173,-0.002 0.0222,-0.005 0.0589,-0.0413 -0.0526,-0.0977 -0.10901,-0.0977 -0.01,0 -0.0173,0.002 -0.0226,0.005 -0.0575,0.0413 0.054,0.0977 0.10936,0.0977"/>
        <path
                id="path1127"
                style="fill:#fefefe;fill-opacity:1;fill-rule:nonzero;stroke:none;stroke-width:0.0352777"
                d="m 92.331565,118.02483 c 0.01,0 0.0183,-0.002 0.024,-0.006 0.0579,-0.0402 -0.0512,-0.0963 -0.10725,-0.0963 -0.01,0 -0.0183,0.002 -0.0236,0.006 -0.0579,0.0399 0.0504,0.0963 0.10689,0.0963"/>
        <path
                id="path1133"
                style="fill:#fefefe;fill-opacity:1;fill-rule:nonzero;stroke:none;stroke-width:0.0352777"
                d="m 128.94002,117.75072 c 0.26388,0 0.42439,-0.073 0.38946,-0.28011 -0.0102,3.5e-4 -0.0201,7.2e-4 -0.0296,7.2e-4 -0.0967,0 -0.1591,-0.0236 -0.22084,-0.0473 -0.0621,-0.0233 -0.12347,-0.0469 -0.21872,-0.0469 -0.0173,0 -0.036,7.1e-4 -0.0561,0.002 0,0.121 0,0.24377 0,0.36583 0.048,0.004 0.0931,0.005 0.13582,0.005"/>
        <path
                id="path1143"
                style="fill:#fefefe;fill-opacity:1;fill-rule:nonzero;stroke:none;stroke-width:0.0352777"
                d="m 104.4068,117.56833 c 0.15205,-3.4e-4 0.17216,-0.0928 0.18521,-0.18873 -0.0138,0.002 -0.0261,0.003 -0.037,0.003 -0.0773,0 -0.0875,-0.0462 -0.0945,-0.0953 -0.15346,0.0152 -0.11042,0.16686 -0.13017,0.27481 0.0289,0.004 0.054,0.006 0.0765,0.006"/>
        <path
                id="path1147"
                style="fill:#fefefe;fill-opacity:1;fill-rule:nonzero;stroke:none;stroke-width:0.0352777"
                d="m 133.07387,117.43851 c 0.0349,0 0.0705,-0.03 0.0702,-0.0589 -0.0102,-0.0441 -0.0353,-0.0603 -0.0607,-0.0603 -0.0346,0 -0.0702,0.0303 -0.0702,0.0603 0.0106,0.0434 0.0353,0.0589 0.0607,0.0589"/>
        <path
                id="path1153"
                style="fill:#fefefe;fill-opacity:1;fill-rule:nonzero;stroke:none;stroke-width:0.0352777"
                d="m 125.75302,117.20109 c 0.01,0 0.018,-0.002 0.0233,-0.006 0.0582,-0.0399 -0.0515,-0.0967 -0.10795,-0.0967 -0.01,0 -0.018,0.002 -0.0233,0.006 -0.0575,0.0409 0.0519,0.0967 0.10795,0.0967"/>
        <path
                id="path1161"
                style="fill:#fefefe;fill-opacity:1;fill-rule:nonzero;stroke:none;stroke-width:0.0352777"
                d="m 103.80249,116.92134 c 0.0893,0 0.17498,0 0.26459,0 0,-0.0607 0,-0.12136 0,-0.18345 -0.0896,0 -0.17533,0 -0.26459,0 0,0.0621 0,0.12277 0,0.18345"/>
        <path
                id="path1163"
                style="fill:#fefefe;fill-opacity:1;fill-rule:nonzero;stroke:none;stroke-width:0.0352777"
                d="m 125.72868,116.74248 c 0.33514,0 0.37324,-0.24342 0.17957,-0.37006 -0.23213,0.0215 -0.29916,0.15663 -0.26318,0.36547 0.0296,0.003 0.0575,0.005 0.0836,0.005"/>
        <path
                id="path1173"
                style="fill:#fefefe;fill-opacity:1;fill-rule:nonzero;stroke:none;stroke-width:0.0352777"
                d="m 117.3922,116.55621 c 0.38876,0 0.43462,-0.40604 0.22754,-0.54998 -0.10195,0.0466 -0.20637,0.0917 -0.37747,0.0917 -0.006,0 -0.0123,0 -0.0187,0 -0.0423,0.21238 0.0215,0.35137 0.13159,0.45685 0.0127,0.001 0.025,0.001 0.037,0.001"/>
        <path
                id="path1197"
                style="fill:#fefefe;fill-opacity:1;fill-rule:nonzero;stroke:none;stroke-width:0.0352777"
                d="m 94.622855,116.1103 c 0.0289,0 0.0603,-0.002 0.0935,-0.007 0,-0.12241 0,-0.24412 0,-0.36618 -0.0339,-0.005 -0.066,-0.007 -0.0952,-0.007 -0.19015,0 -0.28505,0.0952 -0.28505,0.19015 2.6e-4,0.0949 0.096,0.19014 0.28681,0.19014"/>
        <path
                id="path1199"
                style="fill:#4a4c4e;fill-opacity:1;fill-rule:nonzero;stroke:none;stroke-width:0.0352777"
                d="m 106.30298,116.09796 c 0.16722,-0.15911 0.44521,-0.24025 0.39511,-0.54963 -0.17498,0 -0.35101,0 -0.52599,0 -0.0956,0.27975 0.1337,0.33408 0.13088,0.54963"/>
        <path
                id="path1207"
                style="fill:#fefefe;fill-opacity:1;fill-rule:nonzero;stroke:none;stroke-width:0.0352777"
                d="m 114.70015,115.55397 c 0.01,0 0.018,-0.002 0.0233,-0.006 0.0596,-0.0402 -0.0515,-0.0967 -0.10795,-0.0967 -0.01,0 -0.018,0.002 -0.0233,0.006 -0.0571,0.0402 0.0519,0.0967 0.10795,0.0967"/>
        <path
                id="path1233"
                style="fill:#4a4c4e;fill-opacity:1;fill-rule:nonzero;stroke:none;stroke-width:0.0352777"
                d="m 105.04815,114.96766 c 0.0346,0 0.0702,-0.0303 0.0702,-0.0603 -0.01,-0.0434 -0.0346,-0.0593 -0.06,-0.0593 -0.0349,0 -0.0709,0.03 -0.0709,0.0593 0.0106,0.0441 0.0353,0.0603 0.0607,0.0603"/>
        <path
                id="path1235"
                style="fill:#fefefe;fill-opacity:1;fill-rule:nonzero;stroke:none;stroke-width:0.0352777"
                d="m 121.56591,114.9987 c 0.0875,0 0.17639,0 0.26388,0 0,-0.0603 0,-0.121 0,-0.18168 -0.0875,0 -0.17639,0 -0.26388,0 0,0.0607 0,0.12135 0,0.18168"/>
        <path
                id="path1243"
                style="fill:#fefefe;fill-opacity:1;fill-rule:nonzero;stroke:none;stroke-width:0.0352777"
                d="m 111.9379,114.82231 c 0.01,0 0.0176,-0.002 0.0226,-0.005 0.0582,-0.0413 -0.0515,-0.0977 -0.10689,-0.0977 -0.01,0 -0.0176,0.002 -0.0229,0.005 -0.0586,0.0409 0.0519,0.0977 0.10724,0.0977"/>
        <path
                id="path1245"
                style="fill:#fefefe;fill-opacity:1;fill-rule:nonzero;stroke:none;stroke-width:0.0352777"
                d="m 122.75124,114.81702 c 0.33443,-0.01 0.31079,-0.3422 0.13158,-0.45826 -0.33584,0.009 -0.31185,0.34078 -0.13158,0.45826"/>
        <path
                id="path1257"
                style="fill:#fefefe;fill-opacity:1;fill-rule:nonzero;stroke:none;stroke-width:0.0352777"
                d="m 99.639005,114.32948 c 0.0444,0 0.0984,-0.0878 0.0854,-0.15416 -0.01,-0.0448 -0.0275,-0.0624 -0.0473,-0.0624 -0.0444,0 -0.0981,0.0878 -0.085,0.15416 0.009,0.0448 0.0272,0.0624 0.0469,0.0624"/>
        <path
                id="path1261"
                style="fill:#fefefe;fill-opacity:1;fill-rule:nonzero;stroke:none;stroke-width:0.0352777"
                d="m 126.30371,114.17534 c -0.004,-0.0885 -0.16157,-0.0713 -0.26317,-0.0921 0.003,0.0896 0.16086,0.0713 0.26317,0.0921"/>
        <path
                id="path1265"
                style="fill:#fefefe;fill-opacity:1;fill-rule:nonzero;stroke:none;stroke-width:0.0352777"
                d="m 124.04311,113.99787 c 0.01,0 0.0176,-0.002 0.0233,-0.005 0.0582,-0.0406 -0.0522,-0.0967 -0.1083,-0.0967 -0.01,0 -0.018,0.001 -0.0233,0.005 -0.0572,0.0402 0.0522,0.0967 0.1083,0.0967"/>
        <path
                id="path1277"
                style="fill:#fefefe;fill-opacity:1;fill-rule:nonzero;stroke:none;stroke-width:0.0352777"
                d="m 98.385235,113.44895 c 0.009,0 0.0169,-0.002 0.0219,-0.005 0.0593,-0.0409 -0.0508,-0.0974 -0.10689,-0.0974 -0.01,0 -0.0176,0.002 -0.0229,0.005 -0.0593,0.0406 0.0526,0.0974 0.10795,0.0974"/>
        <path
                id="path1291"
                style="fill:#fefefe;fill-opacity:1;fill-rule:nonzero;stroke:none;stroke-width:0.0352777"
                d="m 116.7452,113.23093 c 0.0448,0 0.0981,-0.0875 0.085,-0.15346 -0.01,-0.0448 -0.0275,-0.0621 -0.0476,-0.0621 -0.0445,0 -0.0981,0.0871 -0.0854,0.1524 0.01,0.0455 0.0279,0.0632 0.048,0.0632"/>
        <path
                id="path1297"
                style="fill:#fefefe;fill-opacity:1;fill-rule:nonzero;stroke:none;stroke-width:0.0352777"
                d="m 93.075225,112.77056 c 0.0346,0 0.0702,-0.03 0.0695,-0.0593 -0.01,-0.0434 -0.0346,-0.0593 -0.06,-0.0593 -0.0349,0 -0.0709,0.03 -0.0706,0.0593 0.0106,0.0434 0.0356,0.0593 0.061,0.0593"/>
        <path
                id="path1307"
                style="fill:#fefefe;fill-opacity:1;fill-rule:nonzero;stroke:none;stroke-width:0.0352777"
                d="m 88.935015,112.43577 c 0.38312,-0.0794 0.14782,-0.13653 0.13089,-0.36477 -0.21238,0.0889 -0.30198,0.24412 -0.13089,0.36477"/>
        <path
                id="path1313"
                style="fill:#fefefe;fill-opacity:1;fill-rule:nonzero;stroke:none;stroke-width:0.0352777"
                d="m 125.90825,112.3451 c -0.004,-0.0882 -0.16052,-0.0713 -0.26318,-0.0917 0.003,0.09 0.16087,0.0716 0.26318,0.0917"/>
        <path
                id="path1319"
                style="fill:#fefefe;fill-opacity:1;fill-rule:nonzero;stroke:none;stroke-width:0.0352777"
                d="m 92.224675,112.16237 c 0.16263,-0.0402 0.26846,-0.11677 0.26211,-0.27482 -0.0219,-0.003 -0.0413,-0.004 -0.0593,-0.004 -0.15699,0 -0.1838,0.091 -0.33514,0.0949 0.025,0.0744 0.13229,0.0924 0.13229,0.1838"/>
        <path
                id="path1323"
                style="fill:#fefefe;fill-opacity:1;fill-rule:nonzero;stroke:none;stroke-width:0.0352777"
                d="m 116.83305,112.03466 c 0.0226,0 -0.0208,-0.0384 -0.0744,-0.0769 -0.0536,-0.0388 -0.11748,-0.0776 -0.13617,-0.0776 -0.0152,0 -3.7e-4,0.0261 0.0748,0.0984 0.0811,0.0409 0.12171,0.0561 0.13582,0.0561"/>
        <path
                id="path1339"
                style="fill:#fefefe;fill-opacity:1;fill-rule:nonzero;stroke:none;stroke-width:0.0352777"
                d="m 104.33025,111.52174 c -0.0226,-0.10724 -0.2406,-0.0783 -0.39617,-0.0917 0.0215,0.1069 0.2413,0.0773 0.39617,0.0917"/>
        <path
                id="path1345"
                style="fill:#4a4c4e;fill-opacity:1;fill-rule:nonzero;stroke:none;stroke-width:0.0352777"
                d="m 106.54252,111.2522 c 0.01,0 0.018,-0.002 0.0233,-0.006 0.0582,-0.0399 -0.0515,-0.0967 -0.1083,-0.0967 -0.01,0 -0.0176,0.002 -0.0233,0.006 -0.0579,0.0406 0.0519,0.0967 0.10831,0.0967"/>
        <path
                id="path1365"
                style="fill:#4a4c4e;fill-opacity:1;fill-rule:nonzero;stroke:none;stroke-width:0.0352777"
                d="m 115.77612,110.42317 c 0.0882,0 0.17639,0 0.26459,0 0,-0.0617 0,-0.12206 0,-0.18309 -0.0882,0 -0.17639,0 -0.26459,0 0,0.061 0,0.12136 0,0.18309"/>
        <path
                id="path1373"
                style="fill:#fefefe;fill-opacity:1;fill-rule:nonzero;stroke:none;stroke-width:0.0352777"
                d="m 132.94263,110.20798 c 0.0349,0 0.0706,-0.0303 0.0706,-0.0589 -0.0102,-0.0441 -0.0353,-0.0603 -0.0607,-0.0603 -0.0349,0 -0.0705,0.0303 -0.0702,0.0603 0.0106,0.0434 0.0353,0.0589 0.0603,0.0589"/>
        <path
                id="path1381"
                style="fill:#fefefe;fill-opacity:1;fill-rule:nonzero;stroke:none;stroke-width:0.0352777"
                d="m 126.56512,109.96597 c 0.27446,-0.0522 0.28081,-0.14287 0.13335,-0.27481 -0.0896,0 -0.1771,0 -0.26529,0 -0.0356,0.14816 0.12488,0.15734 0.13194,0.27481"/>
        <path
                id="path1427"
                style="fill:#fefefe;fill-opacity:1;fill-rule:nonzero;stroke:none;stroke-width:0.0352777"
                d="m 106.01688,107.59107 c 0.01,0 0.0176,-0.001 0.0229,-0.005 0.0589,-0.0402 -0.0526,-0.0967 -0.10866,-0.0967 -0.01,0 -0.0176,0.002 -0.0229,0.005 -0.0589,0.0399 0.0522,0.0967 0.10865,0.0967"/>
        <path
                id="path1433"
                style="fill:#fefefe;fill-opacity:1;fill-rule:nonzero;stroke:none;stroke-width:0.0352777"
                d="m 130.64852,107.27604 c 0.0226,0 -0.0205,-0.0384 -0.0741,-0.0773 -0.0536,-0.0388 -0.11783,-0.0773 -0.13653,-0.0773 -0.0155,0 -6.9e-4,0.0258 0.0744,0.0984 0.0811,0.0406 0.12171,0.0561 0.13617,0.0561"/>
        <path
                id="path1449"
                style="fill:#fefefe;fill-opacity:1;fill-rule:nonzero;stroke:none;stroke-width:0.0352777"
                d="m 119.33001,106.48758 c 0.0878,0 0.17603,0 0.26388,0 0,-0.061 0,-0.12206 0,-0.18274 -0.0879,0 -0.17604,0 -0.26388,0 0,0.0607 0,0.12171 0,0.18274"/>
        <path
                id="path1455"
                style="fill:#4a4c4e;fill-opacity:1;fill-rule:nonzero;stroke:none;stroke-width:0.0352777"
                d="m 107.33274,106.31014 c 0.01,0 0.0176,-0.002 0.0229,-0.005 0.0582,-0.0399 -0.0522,-0.0967 -0.1083,-0.0967 -0.01,0 -0.0173,0.002 -0.0226,0.005 -0.0586,0.0402 0.0519,0.0967 0.10795,0.0967"/>
        <path
                id="path1465"
                style="fill:#4a4c4e;fill-opacity:1;fill-rule:nonzero;stroke:none;stroke-width:0.0352777"
                d="m 107.03817,106.1281 c 0.1524,0 0.17251,-0.0921 0.18662,-0.18909 -0.0145,0.002 -0.0275,0.003 -0.0388,0.003 -0.0769,0 -0.0861,-0.0462 -0.0942,-0.0945 -0.15346,0.0145 -0.11077,0.16546 -0.13053,0.27411 0.0289,0.004 0.0543,0.006 0.0769,0.006"/>
        <path
                id="path1467"
                style="fill:#4a4c4e;fill-opacity:1;fill-rule:nonzero;stroke:none;stroke-width:0.0352777"
                d="m 110.78079,106.08647 c 0.0229,0 -0.0205,-0.0388 -0.0741,-0.0776 -0.0536,-0.0388 -0.11748,-0.0773 -0.13653,-0.0773 -0.0152,0 -3.5e-4,0.0258 0.0751,0.0988 0.0804,0.0406 0.12101,0.0561 0.13547,0.0561"/>
        <path
                id="path1475"
                style="fill:#fefefe;fill-opacity:1;fill-rule:nonzero;stroke:none;stroke-width:0.0352777"
                d="m 100.64584,105.93901 c 0.0878,0 0.17427,0 0.26317,0 0.0318,-0.10477 -0.0243,-0.14746 -0.11501,-0.1658 -0.0614,0.0286 -0.12312,0.0571 -0.1852,0.0854 0.0212,0.0208 0.037,0.0452 0.037,0.0804"/>
        <path
                id="path1477"
                style="fill:#4a4c4e;fill-opacity:1;fill-rule:nonzero;stroke:none;stroke-width:0.0352777"
                d="m 100.6088,105.85858 c 0.0621,-0.0282 0.12382,-0.0568 0.1852,-0.0854 -0.079,-0.0159 -0.18379,-0.0134 -0.2801,-0.0173 0.0145,0.0455 0.0614,0.0695 0.0949,0.10266"/>
        <path
                id="path1487"
                style="fill:#fefefe;fill-opacity:1;fill-rule:nonzero;stroke:none;stroke-width:0.0352777"
                d="m 90.907045,105.57248 c -0.055,-0.10866 -0.15945,-0.18309 -0.37041,-0.18309 -0.008,0 -0.0155,0 -0.0236,3.4e-4 -0.0603,0.19544 0.18803,0.17462 0.39405,0.18274"/>
        <path
                id="path1489"
                style="fill:#fefefe;fill-opacity:1;fill-rule:nonzero;stroke:none;stroke-width:0.0352777"
                d="m 102.85811,105.57812 c 0.0102,0 0.0187,-0.002 0.0243,-0.006 0.0575,-0.0409 -0.0529,-0.0974 -0.10936,-0.0974 -0.01,0 -0.0176,0.002 -0.0229,0.005 -0.0579,0.0416 0.0508,0.0977 0.10795,0.0977"/>
        <path
                id="path1499"
                style="fill:#4a4c4e;fill-opacity:1;fill-rule:nonzero;stroke:none;stroke-width:0.0352777"
                d="m 113.54056,105.20629 c 0.0875,0 0.17604,0 0.26283,0 0,-0.0603 0,-0.12206 0,-0.18309 -0.0868,0 -0.17534,0 -0.26283,0 0,0.061 0,0.12277 0,0.18309"/>
        <path
                id="path1505"
                style="fill:#fefefe;fill-opacity:1;fill-rule:nonzero;stroke:none;stroke-width:0.0352777"
                d="m 108.53924,104.93148 c 0.17604,0 0.35101,0 0.52705,0 -0.12312,-0.20602 -0.0494,-0.55033 -0.47237,-0.55033 -0.0173,0 -0.0356,7.1e-4 -0.0547,0.002 0,0.18273 0,0.36547 0,0.54857"/>
        <path
                id="path1519"
                style="fill:#fefefe;fill-opacity:1;fill-rule:nonzero;stroke:none;stroke-width:0.0352777"
                d="m 96.543375,104.57094 c 0.01,0 0.018,-10e-4 0.0236,-0.005 0.0571,-0.0406 -0.0529,-0.0967 -0.10901,-0.0967 -0.01,0 -0.018,0.002 -0.0233,0.006 -0.0582,0.0399 0.0519,0.0963 0.10865,0.0963"/>
        <path
                id="path1535"
                style="fill:#fefefe;fill-opacity:1;fill-rule:nonzero;stroke:none;stroke-width:0.0352777"
                d="m 109.10721,104.26967 c 0.0952,0 0.19826,-0.0293 0.22296,-0.0695 0.0607,-0.10054 -0.0656,-0.15381 -0.19227,-0.15381 -0.12276,0 -0.24623,0.0497 -0.2032,0.15381 0.0205,0.0497 0.0942,0.0695 0.17251,0.0695"/>
        <path
                id="path1537"
                style="fill:#fefefe;fill-opacity:1;fill-rule:nonzero;stroke:none;stroke-width:0.0352777"
                d="m 110.51374,104.29154 c 0.28716,-0.0138 0.28363,-0.23107 0.26282,-0.45826 -0.0476,-0.0102 -0.0871,-0.0148 -0.1203,-0.0148 -0.27305,0 -0.0914,0.31891 -0.14252,0.47308"/>
        <path
                id="path1547"
                style="fill:#fefefe;fill-opacity:1;fill-rule:nonzero;stroke:none;stroke-width:0.0352777"
                d="m 126.72951,103.74333 c 0.096,0 0.15769,-0.0236 0.21978,-0.0473 0.0621,-0.0236 0.12418,-0.0473 0.22014,-0.0473 0.0173,0 0.036,0.001 0.0557,0.002 -0.0275,-0.1344 -0.16651,-0.1905 -0.38382,-0.1905 -0.0445,0 -0.0924,0.002 -0.14287,0.007 0,0.0914 0,0.18345 0,0.27482 0.0106,3.4e-4 0.0212,7.1e-4 0.031,7.1e-4"/>
        <path
                id="path1563"
                style="fill:#4a4c4e;fill-opacity:1;fill-rule:nonzero;stroke:none;stroke-width:0.0352777"
                d="m 124.19763,103.4678 c 0.13158,0 0.26387,0 0.3944,0 0.0385,-0.14781 -0.12312,-0.15733 -0.13053,-0.27446 -0.0882,0 -0.17568,0 -0.26387,0 0,0.0917 0,0.18204 0,0.27446"/>
        <path
                id="path1575"
                style="fill:#fefefe;fill-opacity:1;fill-rule:nonzero;stroke:none;stroke-width:0.0352777"
                d="m 100.77742,103.28507 c 0.27164,-0.0526 0.27658,-0.14359 0.13159,-0.27447 -0.0889,0 -0.17533,0 -0.26317,0 -0.0377,0.14747 0.12417,0.15664 0.13158,0.27447"/>
        <path
                id="path1581"
                style="fill:#fefefe;fill-opacity:1;fill-rule:nonzero;stroke:none;stroke-width:0.0352777"
                d="m 98.779985,103.19863 c 0.01,0 0.0176,-0.002 0.0229,-0.005 0.0582,-0.0406 -0.0529,-0.0974 -0.10901,-0.0974 -0.01,0 -0.0176,0.002 -0.0226,0.005 -0.0586,0.0409 0.0526,0.0974 0.10865,0.0974"/>
        <path
                id="path1587"
                style="fill:#fefefe;fill-opacity:1;fill-rule:nonzero;stroke:none;stroke-width:0.0352777"
                d="m 118.99273,103.06707 c 0.0219,0 0.0466,-0.0141 0.0769,-0.0286 0.0307,-0.0141 0.0674,-0.0286 0.11359,-0.0286 0.005,0 0.0102,0 0.0155,7e-4 -0.0155,-0.055 -0.0751,-0.0787 -0.13405,-0.0787 -0.0656,0 -0.13018,0.0296 -0.13123,0.0787 0.019,0.0423 0.0377,0.0564 0.0593,0.0564"/>
        <path
                id="path1589"
                style="fill:#4a4c4e;fill-opacity:1;fill-rule:nonzero;stroke:none;stroke-width:0.0352777"
                d="m 124.04311,103.10656 c 0.01,0 0.0176,-0.002 0.0233,-0.005 0.0579,-0.0399 -0.0515,-0.0967 -0.10795,-0.0967 -0.01,0 -0.0183,0.002 -0.0236,0.006 -0.0572,0.0399 0.0522,0.096 0.1083,0.096"/>
        <path
                id="path1601"
                style="fill:#fefefe;fill-opacity:1;fill-rule:nonzero;stroke:none;stroke-width:0.0352777"
                d="m 129.72354,102.82753 c 0.0885,0 0.17603,0 0.26352,0 0,-0.0621 0,-0.12276 0,-0.18379 -0.0875,0 -0.17498,0 -0.26352,0 0,0.061 0,0.1217 0,0.18379"/>
        <path
                id="path1607"
                style="fill:#fefefe;fill-opacity:1;fill-rule:nonzero;stroke:none;stroke-width:0.0352777"
                d="m 126.36439,102.70369 c 0.0349,0 0.0702,-0.0303 0.0688,-0.06 -0.01,-0.0434 -0.0346,-0.0593 -0.0596,-0.0593 -0.0349,0 -0.0706,0.0303 -0.0699,0.0593 0.0102,0.0437 0.0353,0.06 0.0607,0.06"/>
        <path
                id="path1617"
                style="fill:#fefefe;fill-opacity:1;fill-rule:nonzero;stroke:none;stroke-width:0.0352777"
                d="m 130.90922,102.36962 c 0.0871,0 0.17498,0 0.26247,0 0,-0.061 0,-0.12242 0,-0.1838 -0.0875,0 -0.17533,0 -0.26247,0 0,0.0614 0,0.12277 0,0.1838"/>
        <path
                id="path1629"
                style="fill:#fefefe;fill-opacity:1;fill-rule:nonzero;stroke:none;stroke-width:0.0352777"
                d="m 94.963635,102.19145 c 0.0102,0 0.0183,-0.002 0.024,-0.006 0.0572,-0.0395 -0.0519,-0.0963 -0.10795,-0.0963 -0.01,0 -0.018,0.002 -0.0233,0.005 -0.0589,0.0406 0.0504,0.0967 0.10724,0.0967"/>
        <path
                id="path1631"
                style="fill:#fefefe;fill-opacity:1;fill-rule:nonzero;stroke:none;stroke-width:0.0352777"
                d="m 116.10103,102.19004 c 0.15628,0 0.18345,-0.09 0.33338,-0.0952 -0.0261,-0.0748 -0.13159,-0.0917 -0.13159,-0.18238 -0.0875,0 -0.17392,0 -0.26211,0 0,0.0907 0,0.18238 0,0.2734 0.0222,0.003 0.0423,0.004 0.0603,0.004"/>
        <path
                id="path1637"
                style="fill:#fefefe;fill-opacity:1;fill-rule:nonzero;stroke:none;stroke-width:0.0352777"
                d="m 126.30441,102.00307 c 0.043,0 0.0861,0 0.12877,0 -0.0265,-0.0356 -0.0423,-0.0691 -0.0515,-0.10054 -0.0258,0.0335 -0.0515,0.0674 -0.0773,0.10054"/>
        <path
                id="path1639"
                style="fill:#4a4c4e;fill-opacity:1;fill-rule:nonzero;stroke:none;stroke-width:0.0352777"
                d="m 125.90825,102.00307 c 0.13229,0 0.26458,0 0.39616,0 0.0258,-0.0332 0.0515,-0.067 0.0773,-0.10054 -0.0586,-0.20285 0.16651,-0.32209 -0.34113,-0.35666 0.10901,0.25894 -0.18521,0.23742 -0.13229,0.4572"/>
        <path
                id="path1651"
                style="fill:#fefefe;fill-opacity:1;fill-rule:nonzero;stroke:none;stroke-width:0.0352777"
                d="m 131.04293,101.64606 c 0.17815,0 0.27375,-0.0582 0.26105,-0.19191 -0.13229,0 -0.26388,0 -0.39476,0 0,0.0603 0,0.12171 0,0.18309 0.0487,0.006 0.0935,0.009 0.13371,0.009"/>
        <path
                id="path1659"
                style="fill:#4a4c4e;fill-opacity:1;fill-rule:nonzero;stroke:none;stroke-width:0.0352777"
                d="m 125.22809,101.55116 c 0.01,0 0.0176,-0.002 0.0229,-0.005 0.0575,-0.0406 -0.0533,-0.0967 -0.10936,-0.0967 -0.009,0 -0.0169,0.001 -0.0222,0.005 -0.0582,0.0406 0.0522,0.097 0.10866,0.097"/>
        <path
                id="path1667"
                style="fill:#fefefe;fill-opacity:1;fill-rule:nonzero;stroke:none;stroke-width:0.0352777"
                d="m 123.93481,101.45416 c 0.0226,0 0.0452,0 0.0681,0 0.0649,-0.0254 0.12982,-0.0515 0.19474,-0.0773 0,-0.0353 0,-0.0709 0,-0.10619 -0.0871,0 -0.17569,0 -0.26282,0 0,0.061 0,0.12278 0,0.18345"/>
        <path
                id="path1669"
                style="fill:#4a4c4e;fill-opacity:1;fill-rule:nonzero;stroke:none;stroke-width:0.0352777"
                d="m 124.00289,101.45415 c 0.0649,0 0.13018,0 0.19474,0 0,-0.0254 0,-0.0515 0,-0.0773 -0.0649,0.0258 -0.12983,0.0519 -0.19474,0.0773"/>
        <path
                id="path1685"
                style="fill:#fefefe;fill-opacity:1;fill-rule:nonzero;stroke:none;stroke-width:0.0352777"
                d="m 129.72354,101.2707 c 0.22119,-0.20602 0.0755,-0.2988 -0.061,-0.2988 -0.14711,0 -0.28364,0.10795 0.061,0.2988"/>
        <path
                id="path1687"
                style="fill:#fefefe;fill-opacity:1;fill-rule:nonzero;stroke:none;stroke-width:0.0352777"
                d="m 123.67163,101.17933 c -0.003,-0.0896 -0.16016,-0.0709 -0.26282,-0.091 0.004,0.0889 0.16122,0.0713 0.26282,0.091"/>
        <path
                id="path1729"
                style="fill:#fefefe;fill-opacity:1;fill-rule:nonzero;stroke:none;stroke-width:0.0352777"
                d="m 114.83138,100.26987 c 0.01,0 0.0183,-0.002 0.0236,-0.006 0.0593,-0.0406 -0.0515,-0.0967 -0.1083,-0.0967 -0.01,0 -0.0176,0.002 -0.0233,0.006 -0.0572,0.0399 0.0515,0.0967 0.10795,0.0967"/>
        <path
                id="path1739"
                style="fill:#fefefe;fill-opacity:1;fill-rule:nonzero;stroke:none;stroke-width:0.0352777"
                d="m 95.645925,100.17321 c -0.0554,-0.10936 -0.16194,-0.183441 -0.37325,-0.183441 -0.007,0 -0.0145,3.4e-4 -0.0222,3.4e-4 -0.0621,0.195441 0.18768,0.174271 0.39548,0.183091"/>
        <path
                id="path1745"
                style="fill:#fefefe;fill-opacity:1;fill-rule:nonzero;stroke:none;stroke-width:0.0352777"
                d="m 128.96013,99.979182 c 0.14181,0 0.19614,-0.0889 0.18238,-0.177447 -0.0134,-0.08855 -0.0949,-0.177447 -0.22401,-0.177447 -0.0695,0 -0.15275,0.02575 -0.24658,0.09102 0,0.06138 0,0.121709 0,0.183092 0.12064,0.0575 0.21589,0.08079 0.28821,0.08079"/>
        <path
                id="path1755"
                style="fill:#fefefe;fill-opacity:1;fill-rule:nonzero;stroke:none;stroke-width:0.0352777"
                d="m 103.51617,99.812188 c 0.01,0 0.018,-0.002 0.0236,-0.006 0.0593,-0.0402 -0.0519,-0.0963 -0.10795,-0.0963 -0.01,0 -0.0176,10e-4 -0.0229,0.005 -0.0582,0.0402 0.0508,0.0967 0.10724,0.0967"/>
        <path
                id="path1761"
                style="fill:#fefefe;fill-opacity:1;fill-rule:nonzero;stroke:none;stroke-width:0.0352777"
                d="m 89.460655,99.715303 c -0.007,-0.29633 -0.14146,-0.39581 -0.26176,-0.39581 -0.21202,0 -0.38135,0.31009 0.26176,0.39581"/>
        <path
                id="path1783"
                style="fill:#fefefe;fill-opacity:1;fill-rule:nonzero;stroke:none;stroke-width:0.0352777"
                d="m 96.628015,99.042589 c 0.0349,0 0.0702,-0.03 0.0688,-0.06 -0.01,-0.0437 -0.0346,-0.0593 -0.06,-0.0593 -0.0349,0 -0.0709,0.0303 -0.0699,0.0593 0.0106,0.0441 0.0356,0.06 0.061,0.06"/>
        <path
                id="path1785"
                style="fill:#fefefe;fill-opacity:1;fill-rule:nonzero;stroke:none;stroke-width:0.0352777"
                d="m 106.03981,98.982585 c 0.0892,0 0.17639,0 0.26317,0 0,-0.061 0,-0.12171 0,-0.18203 -0.0868,0 -0.17392,0 -0.26317,0 0,0.0603 0,0.121 0,0.18203"/>
        <path
                id="path1791"
                style="fill:#fefefe;fill-opacity:1;fill-rule:nonzero;stroke:none;stroke-width:0.0352777"
                d="m 111.93765,98.714368 c 0.01,0 0.0173,-0.002 0.0226,-0.006 0.0582,-0.0399 -0.0519,-0.0967 -0.10725,-0.0967 -0.01,0 -0.0173,0.001 -0.0226,0.005 -0.0586,0.0402 0.0515,0.097 0.10724,0.097"/>
        <path
                id="path1795"
                style="fill:#fefefe;fill-opacity:1;fill-rule:nonzero;stroke:none;stroke-width:0.0352777"
                d="m 122.46372,98.622048 c 0.009,0 0.0173,-0.0014 0.0222,-0.0049 0.0586,-0.04057 -0.0519,-0.09737 -0.1076,-0.09737 -0.01,0 -0.0173,0.0018 -0.0226,0.0053 -0.0589,0.04057 0.0522,0.09701 0.10794,0.09701"/>
        <path
                id="path1803"
                style="fill:#fefefe;fill-opacity:1;fill-rule:nonzero;stroke:none;stroke-width:0.0352777"
                d="m 126.4928,98.399798 c 0.0215,0 0.0462,-0.01446 0.0773,-0.02893 0.0307,-0.01411 0.0677,-0.02857 0.11394,-0.02857 0.005,0 0.01,0 0.0145,3.52e-4 -0.0159,-0.05433 -0.0755,-0.07832 -0.13441,-0.07832 -0.0649,0 -0.12912,0.02928 -0.13088,0.07832 0.019,0.04304 0.0378,0.05715 0.0596,0.05715"/>
        <path
                id="path1807"
                style="fill:#fefefe;fill-opacity:1;fill-rule:nonzero;stroke:none;stroke-width:0.0352777"
                d="m 124.36061,98.325362 c 0.13723,0 0.24977,-0.07091 0.23142,-0.257528 -0.0713,-0.04904 -0.121,-0.06562 -0.1658,-0.06562 -0.0473,0 -0.0885,0.01835 -0.14288,0.03704 -0.0547,0.0187 -0.12206,0.0374 -0.2219,0.0374 -0.0374,0 -0.0794,-0.0028 -0.12664,-0.0088 0.0279,0.138289 0.24765,0.257528 0.4258,0.257528"/>
        <path
                id="path1811"
                style="fill:#fefefe;fill-opacity:1;fill-rule:nonzero;stroke:none;stroke-width:0.0352777"
                d="m 101.17112,98.250922 c 0.13159,0 0.26388,0 0.39582,0 0,-0.0917 0,-0.18309 0,-0.2741 -0.13194,0 -0.26423,0 -0.39582,0 0,0.091 0,0.18238 0,0.2741"/>
        <path
                id="path1813"
                style="fill:#fefefe;fill-opacity:1;fill-rule:nonzero;stroke:none;stroke-width:0.0352777"
                d="m 122.56568,98.257629 c 0.19649,0 0.17356,-0.1524 0.18556,-0.280812 -0.1076,0.01658 -0.13194,0.09102 -0.26423,0.09102 -3.7e-4,0 -7.1e-4,0 -0.001,0 0,0.06174 0,0.122061 0,0.183092 0.03,0.0046 0.0564,0.0067 0.0797,0.0067"/>
        <path
                id="path1839"
                style="fill:#fefefe;fill-opacity:1;fill-rule:nonzero;stroke:none;stroke-width:0.0352777"
                d="m 133.27671,97.518559 c 0.39124,-0.03951 0.23107,-0.260703 0.0988,-0.260703 -0.072,0 -0.13582,0.06526 -0.0988,0.260703"/>
        <path
                id="path1845"
                style="fill:#fefefe;fill-opacity:1;fill-rule:nonzero;stroke:none;stroke-width:0.0352777"
                d="m 98.144285,97.427542 c 0.133,0 0.26282,0 0.3944,0 0.0565,-0.19085 -0.0892,-0.24306 -0.13158,-0.36583 -0.22931,0.0208 -0.2988,0.15699 -0.26282,0.36583"/>
    </g>
</svg>
