<?xml version="1.0" encoding="UTF-8"?>
<svg xmlns:cc="http://creativecommons.org/ns#" xmlns:dc="http://purl.org/dc/elements/1.1/"
     xmlns:rdf="http://www.w3.org/1999/02/22-rdf-syntax-ns#" width="41.274mm" height="41.274mm"
     version="1.1" viewBox="0 0 41.274 41.274"
     xmlns="http://www.w3.org/2000/svg">
    <metadata>
        <rdf:RDF>
            <cc:Work rdf:about="">
                <dc:format>image/svg+xml</dc:format>
                <dc:type rdf:resource="http://purl.org/dc/dcmitype/StillImage"/>
                <dc:title/>
            </cc:Work>
        </rdf:RDF>
    </metadata>
    <g transform="translate(-40.479 -64.533)">
        <circle cx="61.116" cy="85.17" r="19.01" fill="#fff" stroke="#ffc700" stroke-width="3.2541"/>
        <g transform="matrix(.30503 0 0 .30503 25.49 45.624)">
            <path d="m139.5 134.45h-6.276v-20.753c0-9.058-7.3692-16.427-16.427-16.427s-16.427 7.3692-16.427 16.427v20.753h-6.276v-20.753c0-12.519 10.185-22.703 22.703-22.703s22.703 10.185 22.703 22.703v20.753"
                  fill="#72716f"/>
            <path d="m149.11 165.86c0 1.344-1.0895 2.4335-2.4335 2.4335h-59.754c-1.344 0-2.4335-1.0895-2.4335-2.4335v-38.825c0-1.344 1.0895-2.4335 2.4335-2.4335h59.754c1.344 0 2.4335 1.0895 2.4335 2.4335v38.825"
                  fill="#f2cb30"/>
            <path d="m149.11 165.86v-23.789c-19.686 16.656-48.071 22.914-64.155 25.21 0.44216 0.61081 1.1563 1.0121 1.9678 1.0121h59.754c1.344 0 2.4335-1.0895 2.4335-2.4335"
                  fill="#eab531"/>
            <path d="m122.13 139.87c0-2.9492-2.3908-5.34-5.34-5.34s-5.34 2.3908-5.34 5.34c0 1.7582 0.85339 3.3131 2.1644 4.2862l-1.6995 12.076h9.7503l-1.6996-12.076c1.311-0.97313 2.1644-2.528 2.1644-4.2862"
                  fill="#58595a"/>
            <path d="m86.521 129.21v8.3606c0.22122-3.5502 1.9298-11.276 12.616-11.276h-9.7009c-1.6033 0-2.915 1.3117-2.915 2.9149"
                  fill="#f7db5e"/>
            <path d="m111.92 156.23s7.236-2.0456 8.0507-12.076l1.6996 12.076h-9.7503" fill="#3e3d40"/>
        </g>
    </g>
</svg>
