<?xml version="1.0" encoding="UTF-8"?>
<svg xmlns:cc="http://creativecommons.org/ns#" xmlns:dc="http://purl.org/dc/elements/1.1/"
     xmlns:rdf="http://www.w3.org/1999/02/22-rdf-syntax-ns#" width="72.126mm" height="77.891mm"
     version="1.1" viewBox="0 0 72.126 77.891"
     xmlns="http://www.w3.org/2000/svg">
    <defs>
        <clipPath id="clipPath2554">
            <path d="m5054.4 1747.4c0-550.76-446.48-997.25-997.26-997.25-550.77 0-997.26 446.49-997.26 997.25 0 550.78 446.49 997.27 997.26 997.27 550.78 0 997.26-446.49 997.26-997.27"/>
        </clipPath>
        <clipPath id="clipPath2574">
            <path d="m5004.4 1777.4c0-550.76-446.48-997.25-997.26-997.25-550.77 0-997.26 446.49-997.26 997.25 0 550.77 446.49 997.27 997.26 997.27 550.78 0 997.26-446.5 997.26-997.27"/>
        </clipPath>
    </defs>
    <metadata>
        <rdf:RDF>
            <cc:Work rdf:about="">
                <dc:format>image/svg+xml</dc:format>
                <dc:type rdf:resource="http://purl.org/dc/dcmitype/StillImage"/>
                <dc:title/>
            </cc:Work>
        </rdf:RDF>
    </metadata>
    <g transform="translate(-67.502 -76.715)">
        <path d="m104.45 154.61c-6.9769 0-13.48-2.0314-18.949-5.5341 5.0818 2.8504 10.944 4.4757 17.185 4.4757 8.395 0 16.105-2.9416 22.153-7.8486 0.22578-0.15311 0.43568-0.32773 0.62689-0.52105 7.5872-6.453 12.402-16.071 12.402-26.811 0-9.3214-3.6248-17.796-9.5419-24.091-0.13794-0.28011-0.3609-0.52211-0.65617-0.68263l-7e-3 -4e-3c-1.8207-1.8352-3.8407-3.4696-6.0272-4.8701 10.739 6.0233 17.996 17.518 17.996 30.706 0 19.43-15.751 35.181-35.181 35.181"
              fill="#ffc700" fill-opacity=".73333"/>
        <g transform="matrix(.035278 0 0 -.035278 -38.68 181.07)">
            <g clip-path="url(#clipPath2554)">
                <path d="m4635.1 1002.6c6 4.87 11.88 9.76 17.77 14.77-5.42-5.48-11.37-10.43-17.77-14.77"
                      fill="#a1d5a6"/>
            </g>
        </g>
        <g>
            <path d="m128.32 94.276c-0.21767-0.23142-0.43957-0.46108-0.66323-0.68651l7e-3 4e-3c0.29527 0.16052 0.51823 0.40252 0.65617 0.68263"
                  fill="#a1d5a6"/>
            <path d="m92.652 84.637 0.13582-0.52987c0.2032 0.11077 0.45579 0.21625 0.73872 0.28257-0.29316 0.0787-0.58455 0.16122-0.87454 0.2473m2.2327-0.5835c6e-3 -0.0289 9e-3 -0.0596 9e-3 -0.0917 0-0.30515-0.25717-0.49847-0.85196-0.69885-0.86008-0.28893-1.4467-0.69109-1.4467-1.4707 0-0.70697 0.49848-1.2622 1.3582-1.4305v-0.76341h0.7874v0.70697c0.53869 0.0243 0.90029 0.13723 1.1652 0.26564l-0.23283 0.9077c-0.2092-0.0882-0.57856-0.27305-1.1571-0.27305-0.52247 0-0.69145 0.22507-0.69145 0.45014 0 0.26529 0.28152 0.43392 0.96485 0.69145 0.93239 0.32879 1.3222 0.75706 1.3409 1.4482-0.41804 0.079-0.83291 0.16475-1.2457 0.25823"
                  fill="#a1d5a6"/>
            <path d="m137.86 118.37c0 19.43-15.751 35.181-35.181 35.181-19.43 0-35.181-15.751-35.181-35.181 0-19.43 15.751-35.181 35.181-35.181 19.43 0 35.181 15.752 35.181 35.181"
                  fill="#ffc700"/>
        </g>
        <g transform="matrix(.035278 0 0 -.035278 -38.68 181.07)" clip-path="url(#clipPath2574)">
            <path d="m4715.3 2449.6-397.33 216.08c-10.76 5.85-23.46 7-35.09 3.16-11.62-3.84-21.14-12.32-26.3-23.42l-18.49-39.79-47.52 25.83c-10.76 5.85-23.45 7-35.08 3.16s-21.15-12.32-26.3-23.42l-18.49-39.81-47.55 25.86c-10.76 5.85-23.45 6.98-35.08 3.14s-21.15-12.31-26.3-23.42l-104.01-223.95-84.26 30.04-59.11 21.06c-7.79 2.78-15.84 3.01-23.34 1.26-27.75 71.32-96.9 121.95-178.03 121.95-105.58 0-191.16-85.58-191.16-191.16 0-105.56 85.58-191.14 191.16-191.14 24.61 0 48.06 4.81 69.67 13.29l-63.47-178.09h-34.98c-64.98 0-117.67-52.68-117.67-117.66v-732.49c0-64.98 52.69-117.67 117.67-117.67h994.93c4.06 0 8.07 0.21 12.03 0.61 59.33 6.02 105.63 56.13 105.63 117.06v228.49c21.03 11.44 35.31 33.73 35.31 59.34v156.82c0 25.62-14.28 47.91-35.31 59.33v228.51c0 64.98-52.68 117.66-117.66 117.66h-8.65l222.55 409.24c11.69 21.51 3.75 48.43-17.77 60.13"
                  fill="#ffa900"/>
        </g>
        <path d="m109.72 85.627c0.18203-0.39159 0.51787-0.69074 0.9278-0.82621 0.41028-0.13547 0.85831-0.0949 1.2379 0.11148l14.017 7.6228c0.75918 0.41275 1.0393 1.3621 0.62689 2.1212l-18.328 33.703c-0.41275 0.75883-1.3624 1.0393-2.1212 0.62654l-14.108-7.6719c-0.36442-0.19826-5.0737-0.9137-5.1911-1.3113-0.05891-0.19932 1.0386 1.1966 2.1731 2.5922 1.1282 1.3885 2.2927 2.7771 2.3915 2.5954l18.374-39.563"
              fill="#d9cfc2"/>
        <g fill="#6c8127">
            <path d="m111.81 87.651c-0.16404 0-0.32773 0.0258-0.48719 0.078-0.40887 0.13406-0.74506 0.4311-0.92816 0.82092l-14.54 30.952c-0.0346 0.0631-0.1143 0.0878-0.2226 0.0878-0.40005 0-1.1857-0.33973-1.4746-0.33973-0.08361 0-0.12524 0.0286-0.10336 0.10267 0.11712 0.39793 0.38806 0.73236 0.75248 0.93028l10.606 5.7676c0.23742 0.12912 0.49353 0.19016 0.74612 0.19016 0.55422 0 1.0912-0.29563 1.3748-0.81669l16.173-29.74c0.41275-0.75847 0.13194-1.7085-0.62653-2.1209l-10.522-5.7224c-0.23142-0.12594-0.48824-0.19014-0.74718-0.19014m0.0956 1.8549 10.142 5.5157-15.973 29.371-8.4095-4.5731 14.241-30.313"/>
            <path d="m115.25 98.314c0.26494 0.14429 0.46179 0.38735 0.54716 0.67663 0.0854 0.28927 0.0526 0.60042-0.0917 0.86536l-9.0212 16.589c-0.29986 0.55175-0.99024 0.75565-1.5416 0.45579l-2.5142-1.3674c-0.26494-0.14393-0.46179-0.38699-0.54716-0.67627-0.0854-0.28928-0.0526-0.60043 0.0914-0.86537l9.0216-16.589c0.29987-0.55139 0.9906-0.75565 1.542-0.45578l2.5139 1.367"/>
            <path d="m110.51 104.04c2.2924 1.246 3.4477 3.5496 2.5809 5.1438-0.86749 1.5942-3.429 1.8768-5.721 0.63041-2.2924-1.246-3.447-3.5496-2.5799-5.1442 0.86713-1.5949 3.428-1.8771 5.7199-0.63006"/>
        </g>
        <path d="m107.62 102.15c-1.7339 0-3.1221 0.72461-3.8089 1.9872-0.58914 1.0834-0.55668 2.443 0.0885 3.7296 0.58808 1.1716 1.6309 2.2084 2.9365 2.9178 1.0971 0.5969 2.2779 0.91229 3.4156 0.91229 1.7332 0 3.121-0.7239 3.8082-1.9861 0.58914-1.0837 0.55704-2.443-0.0882-3.7299-0.58773-1.1723-1.6309-2.2088-2.9365-2.9185-1.0978-0.59655-2.2782-0.91229-3.4152-0.91229m-2.6e-4 1.1091c0.91228-2.6e-4 1.9226 0.25294 2.8857 0.77752 2.2924 1.246 3.4477 3.5496 2.5809 5.1438-0.50342 0.92428-1.5759 1.4079-2.8346 1.4079-0.91264 0-1.923-0.25365-2.8864-0.77753-2.2924-1.246-3.447-3.5496-2.5799-5.1442 0.50236-0.92428 1.5748-1.4076 2.8342-1.4076"
              fill="#d6b796"/>
        <path d="m105.23 86.834c0.18168-0.39158 0.51753-0.69074 0.92781-0.8262 0.41028-0.13547 0.85795-0.0949 1.2375 0.11112l14.017 7.6232c0.75883 0.41275 1.0393 1.3621 0.62654 2.1212l-18.341 33.727c-0.40746 0.7493-1.3402 1.034-2.0966 0.63994l-14.119-7.3568c-0.36724-0.19967-0.6223 0.79551-0.74119 1.7904-0.127 1.0626-0.09878 2.1248 0.1143 1.7332l18.374-39.563"
              fill="#d9cfc2"/>
        <g fill="#6c8127">
            <path d="m107.31 88.858c-0.16368 0-0.32808 0.0261-0.48683 0.078-0.40957 0.13441-0.74542 0.43145-0.92851 0.82127l-14.54 30.952c-0.4124 0.75918-1.8069 0.36865-1.0481 0.7814l10.606 5.7679c0.23213 0.12594 0.4886 0.19015 0.74719 0.19015 0.14887 0 0.29809-0.0215 0.44344-0.0642 0.39758-0.11783 0.73237-0.38805 0.93063-0.75283l16.173-29.74c0.41275-0.75918 0.13229-1.7085-0.62689-2.1209l-10.522-5.7228c-0.23142-0.12559-0.4886-0.19015-0.74719-0.19015m0.0956 1.8549 10.142 5.5157-15.973 29.372-8.4095-4.5741 14.241-30.313"/>
            <path d="m110.75 99.522c0.26494 0.14429 0.46143 0.38735 0.54716 0.67663 0.0854 0.28928 0.0526 0.60043-0.0917 0.86537l-9.0216 16.588c-0.29986 0.55175-0.99025 0.75565-1.542 0.45579l-2.5135-1.367c-0.26494-0.14429-0.46179-0.38735-0.54716-0.67663-0.0854-0.28928-0.0526-0.60043 0.0914-0.86536l9.0216-16.588c0.29986-0.55174 0.99024-0.75565 1.542-0.45579l2.5139 1.367"/>
            <path d="m106.01 105.24c2.292 1.2464 3.4477 3.5496 2.5806 5.1446-0.86713 1.5938-3.4286 1.8764-5.7206 0.62936-2.292-1.2464-3.4474-3.549-2.5806-5.1435 0.86748-1.5949 3.429-1.8771 5.7206-0.63042"/>
        </g>
        <path d="m103.13 103.36c-1.7336 0-3.1214 0.72425-3.8079 1.9868-1.1772 2.1654 0.15099 5.0853 3.0244 6.6474 1.0971 0.5969 2.2786 0.91263 3.4163 0.91263 1.7332 0 3.121-0.72425 3.8075-1.9868 0.58914-1.0834 0.55739-2.4426-0.0882-3.7296-0.58808-1.1719-1.6305-2.2084-2.9365-2.9182-1.0975-0.5969-2.2782-0.91228-3.4156-0.91228m-2.7e-4 1.1084c0.91264 0 1.9234 0.254 2.8864 0.77787 2.292 1.2464 3.4477 3.5496 2.5806 5.1446-0.50306 0.92393-1.5752 1.4072-2.8339 1.4072-0.91229 0-1.9234-0.254-2.8868-0.77787-2.292-1.2464-3.4473-3.549-2.5802-5.1435 0.50271-0.92499 1.5752-1.4083 2.8339-1.4083"
              fill="#d6b796"/>
        <path d="m100.73 88.042c0.18168-0.39194 0.51752-0.69074 0.9278-0.82621 0.41028-0.13546 0.85796-0.0952 1.2376 0.11078l14.018 7.6232c0.36442 0.19826 0.635 0.53305 0.75283 0.93098 0.11712 0.39723 0.072 0.8255-0.12629 1.1903l-18.329 33.703c-0.4124 0.75883-1.3621 1.0393-2.1209 0.62654l-14.107-7.6719c-0.36795-0.20003-0.62336 0.8823-0.74189 1.965-0.12594 1.1511-0.09772 2.3022 0.115 1.911l18.374-39.563"
              fill="#d9cfc2"/>
        <g fill="#6c8127">
            <path d="m102.73 90.021c-0.14852 0-0.2981 0.0212-0.44309 0.0642-0.39794 0.11783-0.73272 0.38806-0.93063 0.75248l-16.173 29.74c-0.19791 0.36408-4.6817 0.4117-4.5646 0.80963 0.11783 0.39758 4.8267 1.113 5.1911 1.3113l10.606 5.7672c0.23777 0.12946 0.49354 0.1905 0.74577 0.1905 0.55492 0 1.0919-0.29563 1.3751-0.81739l16.173-29.739c0.41275-0.75918 0.13194-1.7085-0.62653-2.1209l-10.606-5.7683c-0.23177-0.12559-0.4886-0.18979-0.74718-0.18979m0.0843 1.8486 10.236 5.5675-15.972 29.371-10.237-5.5668 15.973-29.371"/>
            <path d="m106.26 100.73c0.26458 0.14429 0.46143 0.38735 0.54681 0.67663 0.0854 0.28928 0.0529 0.60043-0.0914 0.86536l-9.0216 16.588c-0.29986 0.55173-0.99025 0.75565-1.5416 0.45578l-2.5139-1.367c-0.26494-0.14428-0.46179-0.38735-0.54716-0.67662-0.08537-0.28928-0.05256-0.60043 0.09137-0.86537l9.0216-16.588c0.29986-0.55175 0.99025-0.75565 1.542-0.45579l2.5139 1.367"/>
            <path d="m101.52 106.45c2.292 1.2474 3.447 3.5507 2.5799 5.1446-0.86713 1.5946-3.4283 1.8771-5.7199 0.63041-2.2924-1.2467-3.4477-3.5493-2.5809-5.1446 0.86748-1.5942 3.4287-1.8764 5.721-0.63041"/>
        </g>
        <g>
            <path d="m98.633 104.57c-1.7336 0-3.1214 0.7239-3.8082 1.9865-1.1772 2.1657 0.15134 5.086 3.0247 6.6478 1.0971 0.59725 2.2786 0.91228 3.4156 0.91228 1.7332 0 3.1217-0.7239 3.8086-1.9865 1.1776-2.1646-0.15134-5.0853-3.0247-6.6478-1.0971-0.59725-2.2789-0.91228-3.416-0.91228zm0 1.1084c0.91264 0 1.9234 0.25364 2.8864 0.77717 2.292 1.2474 3.447 3.5507 2.5799 5.1446-0.50236 0.92463-1.5752 1.4083-2.8342 1.4083-0.91264 0-1.923-0.254-2.8857-0.77787-2.2924-1.2467-3.4477-3.5493-2.5809-5.1446 0.50307-0.92428 1.5755-1.4076 2.8346-1.4076"
                  fill="#d6b796"/>
            <path d="m91.643 96.536c0 3.7239-3.0194 6.743-6.7433 6.743-3.7246 0-6.7437-3.0191-6.7437-6.743 0-3.7246 3.0191-6.7437 6.7437-6.7437 3.7239 0 6.7433 3.0191 6.7433 6.7437"
                  fill="#e19e13"/>
            <path d="m90.254 96.536c0 2.9566-2.3971 5.3534-5.3538 5.3534-2.957 0-5.3541-2.3968-5.3541-5.3534 0-2.9573 2.3971-5.3545 5.3541-5.3545 2.9566 0 5.3538 2.3971 5.3538 5.3545"
                  fill="#ebb015"/>
            <path d="m84.337 100.87v-1.0086c-0.71155-0.0325-1.4019-0.22366-1.8055-0.45649l0.31821-1.2425c0.44662 0.24413 1.0732 0.46708 1.7632 0.46708 0.60572 0 1.0195-0.23424 1.0195-0.65899 0-0.40322-0.33972-0.65828-1.1261-0.92357-1.1359-0.38241-1.9114-0.91334-1.9114-1.9438 0-0.9345 0.65899-1.6676 1.7946-1.8898v-1.0089h1.0414v0.93416c0.7112 0.0321 1.1892 0.18097 1.5395 0.35066l-0.30762 1.2002c-0.27622-0.11713-0.76482-0.36125-1.5293-0.36125-0.69039 0-0.91334 0.29739-0.91334 0.59479 0 0.3503 0.37183 0.57396 1.2742 0.91369 1.2636 0.44556 1.7738 1.0301 1.7738 1.9854 0 0.94509-0.66922 1.7522-1.8905 1.9653v1.0827h-1.0407"
                  fill="#e19e13"/>
            <path d="m97.678 81.819c0 2.8176-2.2842 5.1026-5.1029 5.1026-2.818 0-5.1022-2.2849-5.1022-5.1026 0-2.8183 2.2842-5.1033 5.1022-5.1033 2.8187 0 5.1029 2.2849 5.1029 5.1033"
                  fill="#e19e13"/>
            <path d="m96.626 81.819c0 2.2373-1.8143 4.051-4.0517 4.051-2.237 0-4.0509-1.8136-4.0509-4.051 0-2.2377 1.814-4.0513 4.0509-4.0513 2.2373 0 4.0517 1.8136 4.0517 4.0513"
                  fill="#ebb015"/>
            <path d="m92.149 85.097v-0.76341c-0.53834-0.024-1.0604-0.16899-1.3663-0.34573l0.24095-0.9398c0.33796 0.18451 0.8121 0.35313 1.3342 0.35313 0.45826 0 0.77188-0.17744 0.77188-0.49847 0-0.30515-0.25718-0.49848-0.85196-0.69885-0.86007-0.28928-1.4467-0.6911-1.4467-1.4707 0-0.70696 0.49848-1.2622 1.3582-1.4305v-0.76341h0.7874v0.70697c0.53869 0.024 0.90029 0.13723 1.1652 0.26564l-0.23283 0.9077c-0.2092-0.0882-0.57856-0.27305-1.1575-0.27305-0.52211 0-0.69109 0.22542-0.69109 0.45014 0 0.26529 0.28152 0.43392 0.96485 0.69144 0.95638 0.33726 1.342 0.77929 1.342 1.5021 0 0.71508-0.50659 1.3261-1.4305 1.487v0.81986h-0.78775"
                  fill="#e19e13"/>
            <path d="m97.843 116.96c-0.27516 0.75742-1.1102 1.1504-1.869 0.87983l-11.019-3.9275c-0.76235-0.27164-1.1599-1.1098-0.8883-1.8718l6.0653-17.018c0.27164-0.76235 1.1098-1.1603 1.8722-0.8883l11.01 3.9243c0.762 0.27164 1.1603 1.4626 0.8883 2.225l-6.0597 16.676"
                  fill="#ee561b"/>
        </g>
        <g fill="#fff">
            <path d="m89.577 115.56-3.7112-1.3229 7.0485-19.778 3.7116 1.3233-7.0489 19.777"/>
            <path d="m101.69 102.49c-0.52387 1.4711-2.141 2.2377-3.6121 1.7134-1.4704-0.52388-2.2377-2.1407-1.7134-3.6114 0.52458-1.4707 2.141-2.2377 3.6117-1.7141 1.4704 0.52458 2.2384 2.1414 1.7138 3.6121"/>
            <path d="m98.157 101.17c-1.162 0-2.2507 0.72143-2.6628 1.8782-0.52388 1.4707 0.24271 3.0875 1.7131 3.6114 0.31432 0.11218 0.63465 0.1651 0.94968 0.1651 1.1617 0 2.2507-0.72143 2.6631-1.8782 0.52352-1.4707-0.24377-3.0879-1.7145-3.6117-0.31362-0.11183-0.6343-0.16475-0.94862-0.16475zm0 0.73907c0.23777 0 0.47342 0.0416 0.70026 0.12242 1.0841 0.38629 1.6521 1.5826 1.2658 2.667-0.29598 0.82902-1.0859 1.3864-1.966 1.3864-0.23778 0-0.47378-0.0409-0.70097-0.12171-1.0841-0.38629-1.6514-1.5826-1.2651-2.667 0.29562-0.82938 1.0862-1.3864 1.966-1.3871"/>
        </g>
        <g>
            <path d="m123.13 139.08c0 2.2924-1.8584 4.1511-4.1508 4.1511h-35.099c-2.2924 0-4.1511-1.8588-4.1511-4.1511v-25.841c0-2.2924 1.8588-4.1508 4.1511-4.1508h35.099c2.2924 0 4.1508 1.8584 4.1508 4.1508v25.841"
                  fill="#70565d"/>
            <path d="m79.734 139.08v-5.1488 5.1488" fill="#419c58"/>
            <path d="m79.734 139.08v-5.1488l32.543-24.843h6.707l-39.25 29.991" fill="#6b5258"/>
            <path d="m118.98 143.24h-35.098 35.098c2.2924 0 4.1508-1.8588 4.1508-4.1511v-25.767 25.767c0 2.2927-1.8584 4.1511-4.1508 4.1511"
                  fill="#388b4c"/>
            <path d="m118.98 143.24h-35.099l39.25-29.918v25.767c0 2.2924-1.8584 4.1511-4.1508 4.1511" fill="#6b5258"/>
            <path d="m124.38 128.93c0 1.3148-1.0657 2.3809-2.3805 2.3809h-11.434c-2.8427 0-5.1474-2.3044-5.1474-5.147 0-2.8423 2.3047-5.147 5.1474-5.147h11.434c1.3148 0 2.3805 1.0661 2.3805 2.3809v5.5323"
                  fill="#61494f"/>
            <path d="m112.91 125.97c0 1.3942-1.13 2.5248-2.5245 2.5248-1.3949 0-2.5252-1.1306-2.5252-2.5248 0-1.3945 1.1303-2.5248 2.5252-2.5248 1.3945 0 2.5245 1.1303 2.5245 2.5248"
                  fill="#fff"/>
        </g>
    </g>
</svg>
