<?xml version="1.0" encoding="UTF-8"?>
<svg xmlns:cc="http://creativecommons.org/ns#" xmlns:dc="http://purl.org/dc/elements/1.1/"
     xmlns:rdf="http://www.w3.org/1999/02/22-rdf-syntax-ns#" width="70.362mm" height="70.362mm"
     version="1.1" viewBox="0 0 70.362 70.362"
     xmlns="http://www.w3.org/2000/svg">
    <defs>
        <clipPath id="clipPath256-0">
            <path d="m7497.6 1777.4c0-550.76-446.49-997.25-997.27-997.25-550.77 0-997.25 446.49-997.25 997.25 0 550.77 446.48 997.27 997.25 997.27 550.78 0 997.27-446.5 997.27-997.27"/>
        </clipPath>
        <clipPath id="clipPath314-0">
            <path d="m7497.6 1777.4c0-550.76-446.49-997.25-997.27-997.25-550.77 0-997.25 446.49-997.25 997.25 0 550.77 446.48 997.27 997.25 997.27 550.78 0 997.27-446.5 997.27-997.27"/>
        </clipPath>
        <clipPath id="clipPath380-1">
            <path d="m6973.7 1289.3-176.24 189.83 225.86 20.72 176.23-189.83-225.85-20.72"/>
        </clipPath>
        <clipPath id="clipPath394-5">
            <path d="m6979 1321-176.23 189.82 225.85 20.73 176.23-189.82-225.85-20.73"/>
        </clipPath>
        <clipPath id="clipPath408-5">
            <path d="m6891.1 1665.9 103.63 284.73 243.49-46.49-103.62-284.74-243.5 46.5"/>
        </clipPath>
        <clipPath id="clipPath422-2">
            <path d="m6841.1 1695.9 103.63 284.74 243.49-46.5-103.62-284.74-243.5 46.5"/>
        </clipPath>
    </defs>
    <metadata>
        <rdf:RDF>
            <cc:Work rdf:about="">
                <dc:format>image/svg+xml</dc:format>
                <dc:type rdf:resource="http://purl.org/dc/dcmitype/StillImage"/>
                <dc:title/>
            </cc:Work>
        </rdf:RDF>
    </metadata>
    <g transform="translate(-67.638 -101.13)">
        <g>
            <path d="m138 136.31c0 19.43-15.751 35.181-35.181 35.181-19.43 0-35.181-15.751-35.181-35.181 0-19.43 15.751-35.181 35.181-35.181 19.43 0 35.181 15.752 35.181 35.181"
                  fill="#ffc700"/>
            <g transform="matrix(.035278 0 0 -.035278 -126.5 199.01)" fill="#ffa900">
                <g clip-path="url(#clipPath256-0)" fill="#ffa900">
                    <path d="m5894.6 1417.2c4.06-8.74 11.43-15.51 20.47-18.82 9.05-3.31 19.04-2.89 27.78 1.17l808.18 375.4c18.2 8.45 26.09 30.05 17.64 48.24l-157.13 338.29c-8.44 18.2-30.05 26.1-48.24 17.64l-808.18-375.38c-18.2-8.45-26.1-30.05-17.64-48.24l157.12-338.3"/>
                    <path d="m6949.5 1086.4-20.45-8.35c7.24 16.77 8.01 36.32 0.56 54.57-14.73 36.07-55.93 53.34-91.97 38.65l-40.36-16.48c-0.81 5.53-2.21 11.05-4.42 16.45-14.73 36.07-55.93 53.34-91.97 38.65l-41.73-17.04c0.31 7.58-0.9 15.34-3.95 22.82-11.39 27.88-43.19 41.23-71.08 29.87l-184.25-75.23c-1.82 1.17-3.73 2.22-5.52 3.43-37.45 25.25-82.78 55.79-122.74 82.97-67.43 45.83-146.27 66.78-227.48 59.63l-172.72-15.38c-2.55 25.67-23.96 45.8-50.31 45.8h-35.22v-16.4c0 28.06-22.74 50.81-50.81 50.81h-203.27l110.69-473.19h92.58c28.07 0 50.81 22.739 50.81 50.809v-13.527h35.22c23.55 0 43.15 16.09 48.93 37.808l150.27-44.961c21.78-6.367 43.73-10.867 65.8-13.539l523.64-111.47c9.15-1.954 18.38-2.911 27.59-2.911 17.02 0 33.93 3.301 49.92 9.829l317.98 129.82c37.72 15.39 55.81 58.44 40.41 96.15-15.39 37.69-58.43 55.79-96.15 40.41"/>
                    <path d="m7245.6 2496.5c-28.06 0-50.81-22.75-50.81-50.82v13.52h-35.23c-22.85 0-41.96-15.2-48.35-35.97l-147.4 43.14c-23.55 6.87-47.57 11.5-71.78 14.06l-521.1 110.94c-26.08 5.55-52.87 3.15-77.52-6.93l-317.97-129.81c-37.71-15.4-55.8-58.45-40.41-96.15 11.67-28.59 39.23-45.9 68.31-45.9 9.28 0 18.72 1.77 27.84 5.49l20.43 8.34c-7.22-16.77-7.99-36.31-0.54-54.55 11.16-27.35 37.51-43.9 65.34-43.9 8.87 0 17.91 1.69 26.63 5.24l40.36 16.48c0.81-5.53 2.22-11.05 4.42-16.45 11.16-27.34 37.53-43.89 65.34-43.89 8.88 0 17.91 1.69 26.64 5.24l41.71 17.03c-0.31-7.58 0.9-15.34 3.96-22.82 8.63-21.12 28.99-33.92 50.49-33.92 6.86 0 13.84 1.3 20.58 4.06l184.79 75.45c1.94-1.25 3.95-2.36 5.87-3.65 37.44-25.25 82.34-55.8 122.3-82.98 67.42-45.83 149.47-66.76 230.69-59.61l169.13 14.78c2.81-25.4 24.1-45.21 50.24-45.21h35.23v16.4c0-28.06 22.75-50.81 50.81-50.81h374.57v473.2h-374.57"/>
                </g>
            </g>
            <path d="m104.03 119.65c0.6417-0.29845 1.4041-0.0198 1.7018 0.62194l5.5432 11.934c0.2981 0.64206 0.0198 1.4041-0.62195 1.7022l-28.511 13.243c-0.30832 0.14322-0.66075 0.15804-0.98001 0.0413-0.31927-0.11677-0.57891-0.3556-0.72214-0.66393l-5.5428-11.934c-0.29845-0.6417-0.0198-1.4041 0.6223-1.7018l28.511-13.243"
                  fill="#d9cfc2"/>
        </g>
        <g fill="#6c8127">
            <path d="m103.58 121.79c-0.18486 0-0.36901 0.0402-0.54011 0.11924l-25.159 11.686c-0.64135 0.29809-0.92039 1.0601-0.6223 1.7022l4.1677 8.9711c0.2166 0.46743 0.6791 0.74154 1.1628 0.74154 0.18063 0 0.36442-0.0381 0.5387-0.11924l25.158-11.686c0.6424-0.29774 0.9211-1.0601 0.62265-1.7018l-4.1674-8.9715c-0.14287-0.30833-0.40287-0.54681-0.72178-0.66322-0.14252-0.0522-0.29175-0.0783-0.43991-0.0783zm-0.26035 1.9932 3.7151 7.9996-24.186 11.235-3.7158-7.9996 24.187-11.235"/>
            <path d="m101.44 130.81c0.2166 0.46637 0.0141 1.0206-0.45226 1.2372l-14.032 6.5179c-0.22401 0.10371-0.48048 0.11465-0.71225 0.0296-0.23213-0.0847-0.42087-0.25823-0.52494-0.48225l-0.98777-2.1269c-0.21661-0.46637-0.0141-1.0206 0.45226-1.2372l14.033-6.5179c0.22366-0.10407 0.48013-0.11501 0.71191-0.03 0.23212 0.0847 0.42086 0.25825 0.52493 0.4826l0.98778 2.1269"/>
            <path d="m95.526 132.26c0.90064 1.9385 0.53763 4.0188-0.81104 4.6454-1.3494 0.62689-3.1729-0.43744-4.0739-2.376-0.90065-1.9392-0.53729-4.0192 0.81209-4.6454 1.349-0.62654 3.1722 0.43709 4.0728 2.376"/>
        </g>
        <path d="m91.07 129.06c-1.8316 0.85126-2.3816 3.4216-1.2524 5.8526 1.1285 2.4306 3.4484 3.6682 5.2793 2.8176 1.8316-0.85054 2.382-3.4212 1.2531-5.8522-1.1292-2.4303-3.4484-3.6682-5.28-2.818zm0.38312 0.8248c1.349-0.62654 3.1722 0.43709 4.0728 2.376 0.90064 1.9385 0.53763 4.0188-0.81104 4.6454-1.3494 0.62689-3.1729-0.43744-4.0739-2.376-0.90065-1.9392-0.53729-4.0192 0.81209-4.6454"
              fill="#d9cfc2"/>
        <g fill="#e8af62">
            <path d="m113.7 155.2-11.116 4.5388-17.363-3.4075c-1.3487-0.26458-2.6564 0.61419-2.921 1.9629-0.26494 1.3487 0.61383 2.6568 1.9625 2.9214l18.824 3.6936 12.495-5.1012c1.2725-0.51964 1.8828-1.9724 1.3631-3.2448-0.51929-1.2721-1.972-1.8828-3.2445-1.3631"/>
            <path d="m108.88 153.84-11.116 4.5385-17.363-3.4071c-1.3487-0.26458-2.6564 0.61419-2.921 1.9629-0.26493 1.3487 0.61419 2.6564 1.9629 2.9214l18.824 3.6936 12.495-5.1015c1.2725-0.51928 1.8828-1.972 1.3635-3.2445-0.51964-1.2725-1.9724-1.8828-3.2445-1.3631h-2.6e-4"/>
            <path d="m104.76 152.58-11.273 4.6027-17.528-3.4399c-1.0421-0.20426-2.0525 0.47448-2.2571 1.5169-0.20461 1.0421 0.47449 2.0528 1.5166 2.2571l18.657 3.6615 12.339-5.0377c0.9832-0.40146 1.4549-1.5236 1.0534-2.5072-0.40146-0.98319-1.524-1.4548-2.5072-1.0534"/>
        </g>
        <g>
            <path d="m117.65 158.2-11.218 4.5798 0.2025 0.496v-0.53587c-0.0688 0-0.13794 0.0134-0.2025 0.0399l0.2025 0.496v-0.53587 0.53235l0.11041-0.5207c-0.036-8e-3 -0.073-0.0117-0.11041-0.0117v0.53235l0.11041-0.5207-0.0392-8e-3 -20.294-4.3201c-1.4055-0.29915-2.7873 0.59796-3.0865 2.0031-0.29915 1.4055 0.59761 2.7873 2.0031 3.0865l20.335 4.3286 2e-3 2.6e-4c0.31962 0.0681 0.64488 0.10195 0.96979 0.10195 0.60148 0 1.2012-0.11642 1.7642-0.34643l11.218-4.5794c1.3303-0.54328 1.9681-2.0616 1.4252-3.392-0.54293-1.3303-2.0616-1.9685-3.392-1.4256"
                  fill="#f5b961"/>
            <path d="m96.581 155.92c-0.62054-0.41945-1.2418-0.84032-1.8302-1.2404-2.074-1.4097-4.4538-2.1519-6.9282-2.1519-0.36406 0-0.72954 0.0162-1.0968 0.0483l-0.73237 0.0653c-0.084-0.29668-0.16792-0.59336-0.25294-0.88935 0.33126-0.0261 0.66181-0.0392 0.99166-0.0392 2.4874 0 4.9191 0.74119 6.992 2.1509 0.95321 0.6477 1.9872 1.3497 2.9654 2.0119l-0.10865 0.0444"
                  fill="#50ab58"/>
            <path d="m93.488 157.18-6.495-1.2746c-0.37783-1.07-0.68862-2.1689-0.99907-3.2671l0.73237-0.0653c0.36724-0.0321 0.73272-0.0483 1.0968-0.0483 2.4744 0 4.8542 0.74224 6.9282 2.1519 0.58843 0.40005 1.2097 0.82092 1.8302 1.2404l-3.0935 1.2629"
                  fill="#469a4e"/>
        </g>
        <g fill="#dfa75e">
            <path d="m106.59 162.71-4.1233-0.87772 7.2549-2.9619c0.42827 0.2092 0.80469 0.51859 1.0957 0.89465 0.40851 0.1591 0.75071 0.45085 0.97296 0.82197l-5.2003 2.123"/>
            <path d="m102.46 161.83-6.6989-1.4259 5.3608-2.1886c0.95285 0.26988 1.9428 0.40852 2.9425 0.40852 0.0416 0 0.084-2.6e-4 0.12559-7.9e-4l4.2679-0.0497c0.4445 0 0.87172 0.10654 1.257 0.29457l-7.2549 2.9619"/>
            <path d="m95.763 160.41-7.5008-1.5967c-0.14569-0.28575-0.28963-0.57185-0.42897-0.86042-0.32103-0.66287-0.59479-1.3466-0.84067-2.0426l6.495 1.2746 3.0935-1.2629 0.10865-0.0444c0.46885 0.3175 0.92499 0.62583 1.3529 0.91475 0.94967 0.63994 1.9907 1.1204 3.0812 1.4291l-5.3608 2.1886"/>
        </g>
        <g>
            <path d="m108.55 164.47-9.423-0.91835c-0.75847-0.0737-1.5318-0.11042-2.3043-0.11042-0.70591 0-1.4111 0.0307-2.1036 0.0917-0.39547 0.0346-0.82974 0.0589-1.2728 0.0589-1.5258 0-3.1482-0.28893-3.5884-1.433-0.44415-1.1536-1.0298-2.2461-1.5917-3.3489l14.2 3.0226 4.1233 0.87772 5.2003-2.123c0.17568 0.2928 0.27622 0.63535 0.27622 1.0019 0 0.85795-0.55209 1.5854-1.3204 1.8503-0.53235 0.62053-1.3215 1.0192-2.195 1.0305"
                  fill="#eaaf5e"/>
            <path d="m111.63 159.87c0-1.5967-1.476-2.9665-3.073-2.9665l-4.3145 0.0497c-2.1883 0.0254-4.3596-0.61383-6.1736-1.8373-1.3208-0.89112-2.9203-1.9682-4.33-2.927-2.3788-1.6168-5.1601-2.3558-8.025-2.1036l-6.1867 0.55069v11.193l5.346 1.5995c2.0754 0.60678 4.1945 0.73935 6.3274 0.38904l4.3095-0.71219c0.63429-0.10512 1.2661-0.16122 1.9089-0.16898l11.229-0.13899c1.5829-0.0201 2.9824-1.3088 2.9824-2.8914v-0.036"
                  fill="#f5b961"/>
            <path d="m107.58 161.87c-0.61524 0-1.1137-0.49847-1.1137-1.1137v-1.6902c0-0.6156 0.49848-1.1141 1.1137-1.1141h2.5241c1.0816 0 1.9586 0.87736 1.9586 1.959 0 1.0816-0.87701 1.959-1.9586 1.959h-2.5241"
                  fill="#f3cda0"/>
        </g>
        <g fill="#e8af62">
            <path d="m89.2 117.74 11.117-4.5385 17.362 3.4071c1.3487 0.26494 2.6568-0.61383 2.9214-1.9625 0.26459-1.3487-0.61418-2.6564-1.9628-2.9214l-18.824-3.6939-12.495 5.1012c-1.2725 0.51929-1.8831 1.972-1.3635 3.2445 0.51929 1.2725 1.972 1.8828 3.2445 1.3635"/>
            <path d="m94.024 119.1 11.116-4.5385 17.362 3.4071c1.3487 0.26458 2.6564-0.61419 2.9214-1.9629 0.26458-1.3487-0.61419-2.6564-1.9628-2.921l-18.824-3.6939-12.495 5.1015c-1.2725 0.51929-1.8828 1.972-1.3631 3.2445 0.51929 1.2725 1.972 1.8828 3.2445 1.3631"/>
            <path d="m98.143 120.36 11.273-4.6027 17.528 3.4396c1.0421 0.20461 2.0528-0.47449 2.2574-1.5166 0.20425-1.0421-0.47484-2.0528-1.5166-2.2571l-18.658-3.6615-12.339 5.0377c-0.9832 0.40111-1.4549 1.5236-1.0534 2.5068 0.40146 0.98354 1.524 1.4552 2.5072 1.0537"/>
        </g>
        <path d="m85.254 114.75 11.217-4.5798-0.20214-0.49707v0.53658c0.0691 0 0.13829-0.0134 0.20284-0.0399l-0.20284-0.49671v0.53658-0.53658l-0.11183 0.52494c0.037 8e-3 0.0744 0.0116 0.11183 0.0116v-0.53658l-0.11183 0.52494 20.335 4.3286c1.4051 0.29916 2.787-0.59725 3.0861-2.0027 0.29916-1.4055-0.5976-2.7873-2.0027-3.0864l-20.335-4.3289c-0.32138-0.0681-0.64699-0.10195-0.97119-0.10195-0.60219 0-1.2019 0.11642-1.765 0.34643l-11.217 4.5794c-1.3303 0.54293-1.9685 2.0616-1.4256 3.392 0.54328 1.3303 2.062 1.9685 3.3923 1.4256"
              fill="#f5b961"/>
        <path d="m123.27 111.56c0-0.9899 0.80257-1.7925 1.7925-1.7925h1.2428v14.164h-1.2428c-0.98989 0-1.7925-0.80222-1.7925-1.7925v-10.579"
              fill="#f3cda0"/>
        <g transform="matrix(.035278 0 0 -.035278 -126.5 199.01)">
            <g clip-path="url(#clipPath314-0)">
                <path d="m5757.1 1029.5c0-28.06-22.74-50.81-50.81-50.81h-92.58l-110.69 473.19h203.27c28.07 0 50.81-22.75 50.81-50.81v-371.57"
                      fill="#564146"/>
                <path d="m5843.2 1066.8c0-28.07-22.74-50.81-50.81-50.81h-35.22v401.49h35.22c28.07 0 50.81-22.75 50.81-50.81v-299.87"
                      fill="#f3cda0"/>
                <path d="m7166 2516.4c0 28.06 22.75 50.81 50.81 50.81h374.57v-473.2h-374.57c-28.06 0-50.81 22.76-50.81 50.81v371.58"
                      fill="#564146"/>
            </g>
        </g>
        <path d="m116.17 121.23c-2.4871 0-4.9184-0.74118-6.991-2.1509-0.9532-0.6477-1.9876-1.3497-2.9658-2.0119l3.2018-1.307 6.4957 1.2746c0.47942 1.3589 0.85125 2.7647 1.2516 4.1561-0.33126 0.0261-0.66216 0.0392-0.99236 0.0392"
              fill="#469a4e"/>
        <g fill="#dfa75e">
            <path d="m93.187 114.07c-0.42827-0.20884-0.80504-0.51858-1.0961-0.89464-0.40816-0.15911-0.75036-0.4505-0.97261-0.82198l5.1999-2.1227 4.1229 0.87736-7.2542 2.9619"/>
            <path d="m101.78 114.72c-0.95286-0.26952-1.9431-0.40852-2.9425-0.40852-0.042 0-0.084 3.5e-4 -0.12594 7.2e-4l-4.2683 0.0497c-0.4445 0-0.87136-0.10654-1.2566-0.29457l7.2542-2.9619 6.6992 1.4263-5.3601 2.1883"/>
            <path d="m106.21 117.06c-0.46884-0.3175-0.92498-0.62582-1.3533-0.9144-0.94932-0.64029-1.99-1.1208-3.0804-1.4294l5.3601-2.1883 7.5015 1.5967c0.14534 0.28575 0.28928 0.57185 0.42863 0.85972 0.32102 0.66322 0.59513 1.3473 0.84102 2.0433l-6.4957-1.2746-3.2018 1.307"/>
        </g>
        <g>
            <path d="m114.64 114.13-7.5015-1.5967-6.6992-1.4263-4.1229-0.87736-5.1999 2.1227c-0.17568-0.2928-0.27657-0.63535-0.27657-1.0019 0-0.8583 0.55245-1.5854 1.3204-1.8503 0.53235-0.62053 1.3215-1.0195 2.1953-1.0305l9.4234 0.91793c0.75812 0.0741 1.5318 0.11077 2.305 0.11077 0.7052 0 1.4104-0.0307 2.1029-0.0917 0.39546-0.0346 0.82973-0.0589 1.2728-0.0589 1.5254 0 3.1475 0.28893 3.5881 1.433 0.44415 1.1536 1.0298 2.2461 1.5921 3.3493"
                  fill="#eaaf5e"/>
            <path d="m91.519 113.07c0 1.5963 1.3547 2.9662 2.9517 2.9662l4.2541-0.0494c2.1879-0.0254 4.3293 0.61348 6.1436 1.8369 1.3208 0.89111 2.9048 1.9685 4.3145 2.9274 2.3784 1.6168 5.273 2.3555 8.1382 2.1033l6.3006-0.55069v-11.193l-5.4674-1.5998c-2.0754-0.60642-4.2552-0.73942-6.3878-0.38911l-4.3395 0.71261c-0.63465 0.10513-1.2816 0.16122-1.9248 0.16898l-11.115 0.13864c-1.5833 0.0201-2.8688 1.3088-2.8688 2.8914v0.0363"
                  fill="#f5b961"/>
            <path d="m95.324 111.07c0.61524 0 1.1137 0.49848 1.1137 1.1137v1.6902c0 0.61524-0.49848 1.1137-1.1137 1.1137h-2.5241c-1.082 0-1.9586-0.87701-1.9586-1.9586 0-1.0816 0.87736-1.959 1.959-1.959h2.5238"
                  fill="#f3cda0"/>
            <path d="m108.23 151.53c-3.018 0-5.4638-2.4465-5.4638-5.4642 0-3.018 2.4458-5.4645 5.4638-5.4645 3.018 0 5.4645 2.4465 5.4645 5.4645 0 3.0177-2.4465 5.4642-5.4645 5.4642m0-9.803c-2.3957 0-4.3381 1.9424-4.3381 4.3388 0 2.3957 1.9424 4.3385 4.3381 4.3385 2.3964 0 4.3388-1.9428 4.3388-4.3385 0-2.3964-1.9424-4.3388-4.3388-4.3388"
                  fill="#ffa900"/>
            <path d="m108.23 150.4c-2.3957 0-4.3381-1.9428-4.3381-4.3385 0-2.3964 1.9424-4.3388 4.3381-4.3388 2.3964 0 4.3388 1.9424 4.3388 4.3388 0 2.3957-1.9424 4.3385-4.3388 4.3385m-1.6605-3.0215-0.25823 1.0065c0.32702 0.18909 0.88653 0.34432 1.4626 0.37007v0.81774h0.84349v-0.87807c0.98919-0.1718 1.5325-0.8262 1.5325-1.5924 0-0.77434-0.41346-1.2474-1.4376-1.6087-0.73167-0.27552-1.0326-0.45579-1.0326-0.74048 0-0.24024 0.18027-0.48154 0.73978-0.48154 0.61948 0 1.0156 0.1979 1.2397 0.29245l0.24942-0.97261c-0.2847-0.13758-0.67169-0.25788-1.2485-0.28363v-0.75742h-0.84349v0.81704c-0.92039 0.18097-1.4538 0.77505-1.4538 1.5321 0 0.83502 0.62829 1.2651 1.549 1.5748 0.63747 0.21519 0.91229 0.42192 0.91229 0.74895 0 0.34396-0.3355 0.53375-0.82621 0.53375-0.55951 0-1.0672-0.18097-1.4284-0.37853"
                  fill="#ffa900"/>
            <path d="m108.62 149.58h-0.84349v-0.81774c-0.57609-0.0258-1.1356-0.18098-1.4626-0.37007l0.25823-1.0065c0.36125 0.19756 0.86889 0.37853 1.4284 0.37853 0.49071 0 0.82621-0.18979 0.82621-0.53375 0-0.32703-0.27482-0.53376-0.91229-0.74895-0.92075-0.30974-1.549-0.73978-1.549-1.5748 0-0.75706 0.5334-1.3511 1.4538-1.5321v-0.81704h0.84349v0.75742c0.5768 0.0258 0.96379 0.14605 1.2485 0.28363l-0.24942 0.97261c-0.22401-0.0945-0.62018-0.29245-1.2397-0.29245-0.55951 0-0.73978 0.2413-0.73978 0.48154 0 0.28469 0.30092 0.46496 1.0326 0.74048 1.0241 0.36124 1.4376 0.83432 1.4376 1.6087 0 0.76624-0.54328 1.4206-1.5325 1.5924v0.87807"
                  fill="#3a9e52"/>
            <path d="m111.93 145.01c0 3.0177-2.4465 5.4642-5.4645 5.4642s-5.4638-2.4465-5.4638-5.4642c0-3.018 2.4458-5.4645 5.4638-5.4645s5.4645 2.4465 5.4645 5.4645"
                  fill="#e19e13"/>
            <path d="m110.8 145.01c0 2.3957-1.9424 4.3385-4.3388 4.3385-2.3957 0-4.3381-1.9428-4.3381-4.3385 0-2.3964 1.9424-4.3388 4.3381-4.3388 2.3964 0 4.3388 1.9424 4.3388 4.3388"
                  fill="#ebb015"/>
            <path d="m106.01 148.52v-0.81773c-0.57609-0.0258-1.1356-0.18098-1.4626-0.37007l0.25823-1.0065c0.36125 0.19755 0.8689 0.37853 1.4284 0.37853 0.49072 0 0.82621-0.1898 0.82621-0.53376 0-0.32702-0.27482-0.53375-0.91229-0.74894-0.92075-0.30974-1.549-0.73978-1.549-1.5748 0-0.75706 0.5334-1.3511 1.4538-1.5321v-0.81703h0.8435v0.75741c0.57679 0.0258 0.96378 0.14605 1.2485 0.28364l-0.24942 0.9726c-0.22401-0.0945-0.62018-0.29245-1.2397-0.29245-0.5595 0-0.73977 0.2413-0.73977 0.48154 0 0.2847 0.30092 0.46532 1.0326 0.74048 1.0241 0.36125 1.4376 0.83432 1.4376 1.6087 0 0.76623-0.54293 1.4206-1.5325 1.5924v0.87806h-0.84349"
                  fill="#e19e13"/>
        </g>
        <g transform="matrix(.035278 0 0 -.035278 -126.5 199.01)">
            <g clip-path="url(#clipPath380-1)">
                <path d="m6910.4 1489.5c-62.36-5.73-73.48-52.87-24.81-105.29s138.68-90.25 201.05-84.53 73.48 52.83 24.82 105.25c-48.68 52.42-138.67 90.29-201.06 84.57"
                      fill="#dfbd1c"/>
                <path d="m7021 1364.7c10.13 0.92 14.02 4.86 8.49 10.81-5.27 5.68-14.3 8.76-30.93 11.29-24.03 3.65-43.95 9.92-57.4 24.42-12.22 13.15-10.74 24.46 5.36 29.37l-13.19 14.2 17.42 1.6 12.22-13.16c12.33 0.63 22.28-0.71 30.36-2.57l10.51-17.35c-6.13 1.2-17.52 3.89-30.32 2.73-11.57-1.08-11.38-5.62-7.5-9.79 4.56-4.92 13.71-7.51 33.29-10.91 26.96-4.33 43.13-11.77 55.62-25.21 12.34-13.3 11.68-25.69-5.99-30.56l14.14-15.23-17.42-1.61-13.16 14.18c-12.34-0.63-26.4 1.01-36.22 3.68l-10.88 17.96c10.65-2.76 24.04-4.92 35.6-3.85"
                      fill="#ecd357"/>
                <path d="m6950.8 1456.4-17.42-1.6 13.19-14.2c-16.1-4.91-17.58-16.22-5.36-29.37 13.45-14.5 33.37-20.77 57.4-24.42 16.63-2.53 25.66-5.61 30.93-11.29 5.53-5.95 1.64-9.89-8.49-10.81-11.56-1.07-24.95 1.09-35.6 3.85l10.88-17.96c9.82-2.67 23.88-4.31 36.22-3.68l13.16-14.18 17.42 1.61-14.14 15.23c17.67 4.87 18.33 17.26 5.99 30.56-12.49 13.44-28.66 20.88-55.62 25.21-19.58 3.4-28.73 5.99-33.29 10.91-3.88 4.17-4.07 8.71 7.5 9.79 12.8 1.16 24.19-1.53 30.32-2.73l-10.51 17.35c-8.08 1.86-18.03 3.2-30.36 2.57l-12.22 13.16"
                      fill="#dfbd1c"/>
            </g>
        </g>
        <g transform="matrix(.035278 0 0 -.035278 -126.5 199.01)">
            <g clip-path="url(#clipPath394-5)">
                <path d="m6915.7 1521.2c-62.37-5.72-73.47-52.87-24.81-105.28 48.67-52.43 138.67-90.27 201.04-84.53 62.39 5.71 73.49 52.82 24.83 105.25-48.68 52.41-138.67 90.27-201.06 84.56m158.1-170.27c-49.54-4.54-121 25.51-159.62 67.12-38.64 41.63-29.82 79.02 19.71 83.58 49.49 4.53 120.95-25.51 159.6-67.14 38.62-41.59 29.8-79.03-19.69-83.56"
                      fill="#e19e13"/>
                <path d="m6933.9 1501.6c-49.53-4.56-58.35-41.95-19.71-83.58 38.62-41.61 110.08-71.66 159.62-67.12 49.49 4.53 58.31 41.97 19.69 83.56-38.65 41.63-110.11 71.67-159.6 67.14m92.46-105.23c10.12 0.92 14.01 4.86 8.47 10.81-5.27 5.69-14.3 8.75-30.91 11.29-24.05 3.65-43.95 9.91-57.4 24.42-12.22 13.15-10.74 24.46 5.35 29.35l-13.19 14.22 17.42 1.59 12.22-13.15c12.34 0.63 22.28-0.7 30.37-2.57l10.5-17.35c-6.12 1.2-17.52 3.89-30.33 2.71-11.55-1.05-11.37-5.59-7.49-9.77 4.58-4.93 13.71-7.5 33.29-10.91 26.95-4.33 43.13-11.77 55.61-25.22 12.36-13.3 11.68-25.68-5.98-30.55l14.14-15.24-17.41-1.6-13.18 14.18c-12.34-0.63-26.37 1.01-36.21 3.67l-10.88 17.97c10.66-2.76 24.04-4.91 35.61-3.85"
                      fill="#ebb015"/>
                <path d="m6956.1 1488.1-17.42-1.59 13.19-14.22c-16.09-4.89-17.57-16.2-5.35-29.35 13.45-14.51 33.35-20.77 57.4-24.42 16.61-2.54 25.64-5.6 30.91-11.29 5.54-5.95 1.65-9.89-8.47-10.81-11.57-1.06-24.95 1.09-35.61 3.85l10.88-17.97c9.84-2.66 23.87-4.3 36.21-3.67l13.18-14.18 17.41 1.6-14.14 15.24c17.66 4.87 18.34 17.25 5.98 30.55-12.48 13.45-28.66 20.89-55.61 25.22-19.58 3.41-28.71 5.98-33.29 10.91-3.88 4.18-4.06 8.72 7.49 9.77 12.81 1.18 24.21-1.51 30.33-2.71l-10.5 17.35c-8.09 1.87-18.03 3.2-30.37 2.57l-12.22 13.15"
                      fill="#e19e13"/>
            </g>
        </g>
        <g transform="matrix(.035278 0 0 -.035278 -126.5 199.01)" fill="#ffa900">
            <g clip-path="url(#clipPath408-5)" fill="#ffa900">
                <path d="m7033.3 1640.7c-6.88 0-13.72 0.62-20.45 1.91-67.2 12.83-98.53 87-69.92 165.58 25.75 70.76 91.27 121.05 153.11 121.05 6.87 0 13.71-0.62 20.43-1.91 67.19-12.82 98.52-86.88 70.02-165.44l-0.14-0.4c-25.79-70.62-91.25-120.79-153.05-120.79m6.47 29.71h0.14c48.65 0.07 100.08 39.29 120.87 94.63 0.18 0.48 0.36 0.97 0.54 1.45 5.72 15.74 8.43 31.24 8.42 45.8-0.04 43.22-24.01 78.07-63.95 85.69-5.34 1.02-10.76 1.51-16.22 1.51h-0.01-0.14c-48.53-0.07-99.85-39.08-120.74-94.25-0.04-0.11-0.09-0.23-0.13-0.34-0.06-0.16-0.12-0.31-0.18-0.47-0.01-0.03-0.01-0.05-0.03-0.08-0.11-0.31-0.23-0.63-0.34-0.94-5.73-15.73-8.43-31.23-8.41-45.78 0.04-43.21 24.01-78.09 63.93-85.71 5.35-1.02 10.77-1.51 16.24-1.51h0.01"/>
                <path d="m7039.8 1670.4h-0.01c-5.46 0-10.89 0.49-16.24 1.51-39.92 7.62-63.89 42.5-63.93 85.71-0.02 14.55 2.68 30.05 8.41 45.78 0.11 0.31 0.23 0.63 0.34 0.94 0.02 0.03 0.02 0.05 0.03 0.08 0.06 0.16 0.12 0.31 0.18 0.47 0.04 0.11 0.09 0.23 0.13 0.34 20.89 55.17 72.21 94.18 120.74 94.25h0.14 0.01c5.46 0 10.88-0.49 16.22-1.51 39.94-7.62 63.91-42.47 63.95-85.69 0.01-14.56-2.7-30.06-8.42-45.8-0.18-0.48-0.36-0.97-0.54-1.45-20.79-55.34-72.22-94.56-120.87-94.63h-0.14m-18.55 25.02 18.8-3.58 8.33 22.88c23.66 0.26 41.96 15.02 49.2 34.93 2.18 6 3.3 11.46 3.29 16.53-0.03 12.01-6.41 21.83-20.05 31.54-11.31 8.53-16.7 14.08-16.7 19.94 0 1.22 0.24 2.44 0.69 3.72 1.92 5.25 6.64 9.95 15.39 9.97h0.05 0.03c1.71 0 3.58-0.18 5.61-0.57 13.82-2.63 20.76-9.48 24.85-12.88l14.76 24.27c-5.03 4.79-12.49 9.6-25.08 12.7l7.19 19.73-18.83 3.6-7.75-21.32c-22.22-0.76-39.75-13.98-46.94-33.71-1.88-5.18-2.75-9.92-2.75-14.29 0.02-13.97 8.98-24.21 22.36-33.35 9.58-6.56 14.2-12.02 14.21-18.21 0-1.65-0.33-3.35-0.99-5.14-0.03-0.11-0.07-0.21-0.11-0.31-2.73-7.08-9.25-10.66-17.37-10.68h-0.07-0.02c-1.89 0-3.87 0.2-5.9 0.59-12.46 2.37-22.03 9.25-28.25 15.91l-15.27-25.1c5.5-6.34 16.49-12.75 29.08-15.86l-7.76-21.31"/>
                <path d="m7040 1691.9-18.8 3.58 7.76 21.31c-12.59 3.11-23.58 9.52-29.08 15.86l15.27 25.1c6.22-6.66 15.79-13.54 28.25-15.91 2.03-0.39 4.01-0.59 5.9-0.59h0.02 0.07c8.12 0.02 14.64 3.6 17.37 10.68 0.04 0.1 0.08 0.2 0.11 0.31 0.66 1.79 0.99 3.49 0.99 5.14-0.01 6.19-4.63 11.65-14.21 18.21-13.38 9.14-22.34 19.38-22.36 33.35 0 4.37 0.87 9.11 2.75 14.29 7.19 19.73 24.72 32.95 46.94 33.71l7.75 21.32 18.83-3.6-7.19-19.73c12.59-3.1 20.05-7.91 25.08-12.7l-14.76-24.27c-4.09 3.4-11.03 10.25-24.85 12.88-2.03 0.39-3.9 0.57-5.61 0.57h-0.03-0.05c-8.75-0.02-13.47-4.72-15.39-9.97-0.45-1.28-0.69-2.5-0.69-3.72 0-5.86 5.39-11.41 16.7-19.94 13.64-9.71 20.02-19.53 20.05-31.54 0.01-5.07-1.11-10.53-3.29-16.53-7.24-19.91-25.54-34.67-49.2-34.93l-8.33-22.88"/>
            </g>
        </g>
        <g transform="matrix(.035278 0 0 -.035278 -126.5 199.01)">
            <g clip-path="url(#clipPath422-2)">
                <path d="m7066.5 1957.4c-67.2 12.84-144.93-40.51-173.54-119.14-28.6-78.58 2.72-152.75 69.92-165.58 67.24-12.85 144.97 40.49 173.57 119.09 28.62 78.63-2.71 152.8-69.95 165.63m-92.95-255.41c-53.36 10.19-78.24 69.08-55.52 131.49 22.73 62.44 84.42 104.75 137.79 94.57 53.39-10.19 78.25-69.04 55.53-131.49-22.73-62.4-84.4-104.77-137.8-94.57"
                      fill="#e19e13"/>
                <path d="m7055.8 1928c-53.37 10.18-115.06-32.13-137.79-94.57-22.72-62.41 2.16-121.3 55.52-131.49 53.4-10.2 115.07 32.17 137.8 94.57 22.72 62.45-2.14 121.3-55.53 131.49m-62.37-156.19c10.94-2.09 20.2 1.42 23.47 10.4 3.1 8.48-1.08 15.04-13.22 23.35-17.57 12.01-27.52 25.88-19.61 47.64 7.19 19.73 24.72 32.95 46.94 33.71l7.75 21.32 18.83-3.6-7.19-19.73c12.59-3.1 20.05-7.91 25.08-12.7l-14.76-24.27c-4.09 3.4-11.03 10.25-24.85 12.88-12.46 2.39-18.78-3.11-21.07-9.4-2.68-7.4 2.34-13.36 16-23.66 19.4-13.81 24.11-27.85 16.76-48.07-7.24-19.92-25.54-34.67-49.2-34.93l-8.33-22.89-18.8 3.59 7.76 21.31c-12.58 3.11-23.58 9.52-29.08 15.86l15.27 25.1c6.22-6.66 15.79-13.54 28.25-15.91"
                      fill="#ebb015"/>
                <path d="m7057.6 1904.6-18.83 3.6-7.75-21.32c-22.22-0.76-39.75-13.98-46.94-33.71-7.91-21.76 2.04-35.63 19.61-47.64 12.14-8.31 16.32-14.87 13.22-23.35-3.27-8.98-12.53-12.49-23.47-10.4-12.46 2.37-22.03 9.25-28.25 15.91l-15.27-25.1c5.5-6.34 16.5-12.75 29.08-15.86l-7.76-21.31 18.8-3.59 8.33 22.89c23.66 0.26 41.96 15.01 49.2 34.93 7.35 20.22 2.64 34.26-16.76 48.07-13.66 10.3-18.68 16.26-16 23.66 2.29 6.29 8.61 11.79 21.07 9.4 13.82-2.63 20.76-9.48 24.85-12.88l14.76 24.27c-5.03 4.79-12.49 9.6-25.08 12.7l7.19 19.73"
                      fill="#e19e13"/>
            </g>
        </g>
    </g>
</svg>
