<?xml version="1.0" encoding="UTF-8"?>
<svg xmlns:cc="http://creativecommons.org/ns#" xmlns:dc="http://purl.org/dc/elements/1.1/"
     xmlns:rdf="http://www.w3.org/1999/02/22-rdf-syntax-ns#" width="72.126mm" height="75.948mm"
     version="1.1" viewBox="0 0 72.126 75.948"
     xmlns="http://www.w3.org/2000/svg">
    <defs>
        <clipPath id="clipPath94">
            <path d="m5054.4 6458.9c0-550.78-446.48-997.26-997.26-997.26-550.77 0-997.26 446.48-997.26 997.26 0 550.77 446.49 997.26 997.26 997.26 550.78 0 997.26-446.49 997.26-997.26"/>
        </clipPath>
        <clipPath id="clipPath106">
            <path d="m5054.4 6458.9c0-550.78-446.48-997.26-997.26-997.26-550.77 0-997.26 446.48-997.26 997.26 0 550.77 446.49 997.26 997.26 997.26 550.78 0 997.26-446.49 997.26-997.26"/>
        </clipPath>
        <clipPath id="clipPath118">
            <path d="m5004.4 6488.9c0-550.77-446.48-997.26-997.26-997.26-550.77 0-997.26 446.49-997.26 997.26s446.49 997.26 997.26 997.26c550.78 0 997.26-446.49 997.26-997.26"/>
        </clipPath>
        <clipPath id="clipPath150">
            <path d="m5004.4 6488.9c0-550.77-446.48-997.26-997.26-997.26-550.77 0-997.26 446.49-997.26 997.26s446.49 997.26 997.26 997.26c550.78 0 997.26-446.49 997.26-997.26"/>
        </clipPath>
    </defs>
    <metadata>
        <rdf:RDF>
            <cc:Work rdf:about="">
                <dc:format>image/svg+xml</dc:format>
                <dc:type rdf:resource="http://purl.org/dc/dcmitype/StillImage"/>
                <dc:title/>
            </cc:Work>
        </rdf:RDF>
    </metadata>
    <g transform="translate(-67.502 -38.755)">
        <g fill="#ffc700">
            <g fill-opacity=".73333">
                <path d="m97.565 114.03c-4.3674-0.86607-8.4441-2.5411-12.067-4.8616 3.1644 1.7752 6.6308 3.0748 10.303 3.8029 0.50659 0.10055 1.0181 0.1905 1.5325 0.26882l0.23142 0.78987m26.616-5.3784 0.13265-2.4402c8.2483-6.4382 13.551-16.474 13.551-27.748 0-12.453-6.4696-23.395-16.232-29.647 10.739 6.0233 17.996 17.517 17.996 30.706 0 12.117-6.1246 22.802-15.447 29.13"/>
                <g transform="matrix(.035278 0 0 -.035278 -38.68 307.38)">
                    <g clip-path="url(#clipPath94)" fill="#ffc700" fill-opacity=".73333">
                        <path d="m4461 5546.8 2.99 55.4c35.49 18.32 69.74 38.71 102.59 61 18.36 12.47 36.3 25.54 53.76 39.17l-3.76-69.17c-48.94-33.21-100.95-62.18-155.58-86.4"
                              fill="#ffc700" fill-opacity=".73333"/>
                    </g>
                </g>
                <g transform="matrix(.035278 0 0 -.035278 -38.68 307.38)">
                    <g clip-path="url(#clipPath106)" fill="#ffc700" fill-opacity=".73333">
                        <path d="m4057.2 5461.6c-66.77 0-132 6.56-195.09 19.07l-6.56 22.39c49.46-7.55 100.08-11.46 151.65-11.46 143.71 0 280.37 30.42 403.8 85.13 17.96 7.97 35.6 16.43 52.99 25.4l-2.99-55.4c-123.43-54.71-260.09-85.13-403.8-85.13"
                              fill="#ffc700" fill-opacity=".73333"/>
                    </g>
                </g>
            </g>
            <path d="m137.86 78.464c0 19.43-15.751 35.181-35.181 35.181-19.43 0-35.181-15.751-35.181-35.181 0-19.43 15.751-35.181 35.181-35.181 19.43 0 35.181 15.751 35.181 35.181"/>
        </g>
        <g transform="matrix(.035278 0 0 -.035278 -38.68 307.38)" fill="#ffa900" fill-opacity=".73333">
            <g clip-path="url(#clipPath118)" fill="#ffa900" fill-opacity=".73333">
                <path d="m4243.7 6479.4-1.14 1.99 0.24 1.66h1.51c-0.23-1.16-0.39-2.47-0.61-3.65m302.13-285.23-91.41 85.96 0.01 0.03-201.78 189.79c-3.89 3.63-6.62 8.19-8.34 13.1h133.21c42.48 0 76.91 34.44 76.91 76.92v948.31c0 42.49-34.43 76.93-76.91 76.93h-355.97v3.22h-206.83v-3.22h-50.76c-42.49 0-76.92-34.44-76.92-76.93v-948.31c0-23.37 10.46-44.26 26.91-58.36-25.97-15.74-45.38-41.25-52.97-71.49h7.26c-2.45-9.12-3.88-18.65-3.88-28.53 0-60.68 49.19-109.87 109.87-109.87h87.38l-15.45-59.45h7.27l-56.31-216.71c-15.27-58.73 19.96-118.71 78.69-133.97 9.27-2.41 18.56-3.56 27.71-3.56 2.31 0 4.59 0.14 6.88 0.29-4.64-33.21-7.12-66.58-6.93-99.91 0.2-46.38 5.36-92.58 14.91-138.18 3.71-17.8 7.87-35.54 13-53.08l77.15-263.23h539.55l41.45 761.9c2.23 41.03-13.77 80.21-43.7 108.35"
                      fill="#ffa900" fill-opacity=".73333"/>
            </g>
        </g>
        <g>
            <path d="m93.632 80.284-3.6273 13.958c-0.53834 2.0719 0.7045 4.1878 2.7764 4.7262 2.0719 0.53834 4.1878-0.70485 4.7262-2.7764l3.6273-13.958c0.53834-2.0719-0.70485-4.1878-2.7764-4.7262-2.0719-0.53834-4.1878 0.70485-4.7262 2.7764"
                  fill="#f5b961"/>
            <path d="m95.595 86.597h-3.604l0.45367-1.7459 0.09137-0.35137h3.0847l-0.02569 2.0973" fill="#eaaf5e"/>
            <path d="m89.197 84.5h11.517c2.1406 0 3.8756-1.7353 3.8756-3.876 0-2.1403-1.735-3.8756-3.8756-3.8756h-11.517c-2.1407 0-3.8756 1.7353-3.8756 3.8756 0 2.1407 1.735 3.876 3.8756 3.876"
                  fill="#f5b961"/>
            <path d="m95.681 79.618h-10.228c0.27023-1.0079 0.93662-1.8535 1.8221-2.3601 0.44132 0.31045 0.97931 0.49283 1.5596 0.49283h6.8689l-0.02291 1.8673"
                  fill="#eaaf5e"/>
            <path d="m113.19 75.037c0 1.4986-1.215 2.7136-2.7136 2.7136h-21.645c-1.4986 0-2.7136-1.215-2.7136-2.7136v-33.454c0-1.499 1.215-2.7139 2.7136-2.7139h21.645c1.4986 0 2.7136 1.215 2.7136 2.7139v33.454"
                  fill="#ee561b"/>
        </g>
        <g fill="#fff">
            <path d="m97.922 77.75h-7.2969v-38.995h7.2969v38.995"/>
            <path d="m110.93 47.417c0 2.891-2.3435 5.2349-5.2342 5.2349-2.891 0-5.2349-2.3439-5.2349-5.2349s2.3438-5.2345 5.2349-5.2345c2.8907 0 5.2342 2.3435 5.2342 5.2345"/>
            <path d="m105.7 47.002c-2.891 0-5.2349 2.3439-5.2349 5.2345 0 2.891 2.3438 5.2345 5.2349 5.2345 2.8907 0 5.2342-2.3435 5.2342-5.2345 0-2.8907-2.3435-5.2345-5.2342-5.2345zm0 1.1924c2.2285 0 4.0414 1.8133 4.0414 4.0421 0 2.2285-1.8129 4.0418-4.0414 4.0418-2.2288 0-4.0425-1.8133-4.0425-4.0418 0-2.2288 1.8136-4.0421 4.0425-4.0421"/>
        </g>
        <g transform="matrix(.035278 0 0 -.035278 -38.68 307.38)">
            <g clip-path="url(#clipPath150)">
                <path d="m3953.6 6910c76.97 0 136.41-77.12 136.41-154.1v-236.04c0-9.02 5.21-17.65 11.78-23.84l293.96-275.77c29.93-28.14 46.31-67.32 44.06-108.35l-41.08-761.9h-539.56l-77.15 263.23c-29.21 100.02-35.61 204.95-18.72 307.78l41.92 255.04 7.26 589.05c0.96 76.29 63.07 144.9 139.38 144.9h1.74"
                      fill="#f5b961"/>
            </g>
        </g>
        <g>
            <path d="m97.383 70.197c0 1.046 0.84808 1.8941 1.8941 1.8941h2.8741c1.0463 0 1.8941-0.84808 1.8941-1.8941v-1.948c0-1.8394-1.4912-3.3309-3.3309-3.3309-1.8397 0-3.3313 1.4915-3.3313 3.3313v1.9477"
                  fill="#f3cda0"/>
            <path d="m113.19 84.934-7.1646-6.7211c-0.1016-0.09596-0.19403-0.20814-0.26564-0.33091 8e-3 -0.04445 0.0159-0.08819 0.0243-0.13158 0.0603 0.17321 0.15734 0.33408 0.29421 0.46249l7.1187 6.6954c-2e-3 0.0085-5e-3 0.01693-7e-3 0.02574"
                  fill="#469a4e"/>
            <path d="m105.78 77.75v-2.65e-4 2.65e-4" fill="#e5601b"/>
            <path d="m112.37 106.56c0.1584-8.8032-2.0627-9.1997-4.9177-14.197-2.855-4.9964-1.8718-13.225-1.8718-13.225 0.0452-0.4579 0.10371-0.87312 0.17251-1.2552 0.0716 0.12277 0.16404 0.23495 0.26564 0.33091l7.1646 6.7211c-1.397 5.2994-2.6345 8.6258-0.80504 13.377 1.832 4.7586-8e-3 8.2483-8e-3 8.2483"
                  fill="#eaaf5e"/>
        </g>
    </g>
</svg>
