<?xml version="1.0" encoding="UTF-8"?>
<svg xmlns:cc="http://creativecommons.org/ns#" xmlns:dc="http://purl.org/dc/elements/1.1/"
     xmlns:rdf="http://www.w3.org/1999/02/22-rdf-syntax-ns#" width="44.678mm" height="23.434mm"
     version="1.1" viewBox="0 0 44.678 23.434"
     xmlns="http://www.w3.org/2000/svg">
    <metadata>
        <rdf:RDF>
            <cc:Work rdf:about="">
                <dc:format>image/svg+xml</dc:format>
                <dc:type rdf:resource="http://purl.org/dc/dcmitype/StillImage"/>
                <dc:title/>
            </cc:Work>
        </rdf:RDF>
    </metadata>
    <g transform="translate(-88.845 -97.062)">
        <path d="m116.41 114.96c-0.19967-1.2936-0.29351-2.5933-0.26882-3.9183 6e-3 -0.34467-0.30021-0.6477-0.64382-0.64347-6.1006 0.0769-12.158-0.67451-18.072-2.1315 1.4464-0.4191 2.8991-0.80822 4.3843-1.0809 0.58385-0.10759 0.54469-0.86536 0.14993-1.1483-1.21-0.86642-2.3297-1.8426-3.3263-2.9348 5.763 2.4465 11.885 3.9345 18.147 4.3988 0.47554 0.0353 0.92216-0.44344 0.90522-0.90487-0.0385-1.0171-0.0691-2.0338-0.1016-3.0505 1.9925 1.3063 4.0834 2.365 6.3154 3.1944-2.8141 2.4282-5.3605 5.1731-7.4884 8.2194m9.7885-9.5765c-3.23-1.0241-6.3186-2.5065-9.1278-4.4055-0.56832-0.38417-1.4044 0.12171-1.3762 0.78952 0.0536 1.2802 0.0988 2.5601 0.14288 3.8403-6.5895-0.61454-12.982-2.2186-19.083-4.8168-0.52564-0.22401-1.3712 0.30762-0.91476 0.91475 1.2778 1.7011 2.6776 3.2008 4.3042 4.5173-1.518 0.29175-3.0244 0.62019-4.5046 1.0823-0.3997 0.12488-0.53693 0.47907-0.48578 0.80115-0.0349 0.17392 0.0335 0.36901 0.24024 0.45191 0.12065 0.10654 0.27976 0.17004 0.47061 0.1524 6.1602 1.9717 12.516 2.9242 18.979 2.97-0.0159 1.8288 0.1263 3.629 0.44309 5.4377 0.12312 0.70273 1.0467 0.65722 1.3829 0.18062 2.7365-3.8756 5.9154-7.2796 9.7723-10.057 0.70485-0.50765 0.63606-1.5804-0.24307-1.8588"
              fill="#171717"/>
        <g fill="#fefefe">
            <path d="m109.9 120.5c-0.01 0-0.018-1e-3 -0.0229-5e-3 -0.0586-0.0395 0.0508-0.0963 0.10759-0.0963 0.01 0 0.018 2e-3 0.0236 5e-3 0.0582 0.0402-0.0526 0.0963-0.1083 0.0963"/>
            <path d="m115.83 120.03c-0.054 0-0.11254-0.0247-0.16369-0.0893v-0.18309c0.048-7e-3 0.0903-0.01 0.12735-0.01 0.17604 0 0.23072 0.0705 0.21872 0.14111-0.012 0.0705-0.091 0.14111-0.18238 0.14111"/>
            <path d="m95.694 120.04c-0.01 0-0.0183-1e-3 -0.024-5e-3 -0.0582-0.0402 0.0533-0.097 0.11007-0.097 0.01 0 0.018 2e-3 0.0233 5e-3 0.0575 0.0406-0.0522 0.097-0.10936 0.097"/>
            <path d="m110.83 119.95c-0.01 0-0.0183-2e-3 -0.024-6e-3 -0.0572-0.0402 0.054-0.097 0.11007-0.097 0.01 0 0.0176 2e-3 0.0229 5e-3 0.0575 0.0413-0.0519 0.0974-0.10901 0.0974"/>
            <path d="m117.8 119.58c-0.01 0-0.0176-2e-3 -0.0229-5e-3 -0.0586-0.0399 0.0515-0.097 0.1083-0.097 0.01 0 0.018 2e-3 0.0233 6e-3 0.0579 0.0406-0.0526 0.0967-0.10865 0.0967"/>
            <path d="m113.24 119.45c-0.0349 0-0.0706-0.0303-0.0695-0.0603 0.01-0.043 0.0349-0.0589 0.06-0.0589 0.0349 0 0.0709 0.03 0.0709 0.0589-0.0109 0.0441-0.036 0.0603-0.0614 0.0603"/>
            <path d="m115.48 119.18c-0.0349 0-0.0705-0.0303-0.0705-0.06 0.0106-0.0434 0.0356-0.0593 0.061-0.0593 0.0353 0 0.0713 0.0303 0.0713 0.0593-0.0109 0.0441-0.036 0.06-0.0617 0.06"/>
            <path d="m90.957 119.12c-0.01 0-0.0176-2e-3 -0.0229-6e-3 -0.0575-0.0399 0.0519-0.0967 0.1076-0.0967 0.01 0 0.0176 2e-3 0.0229 5e-3 0.0582 0.0402-0.0519 0.097-0.1076 0.097"/>
            <path d="m103.43 118.75c2e-3 -0.0896 0.16017-0.0713 0.26212-0.0917-4e-3 0.0893-0.16052 0.0705-0.26212 0.0917"/>
            <path d="m106.85 118.58c-0.17885 0-0.2741-0.0582-0.25999-0.19226h0.39511v0.18344c-0.049 6e-3 -0.0942 9e-3 -0.13512 9e-3"/>
            <path d="m116.4 118.26c-0.0349 0-0.0706-0.0303-0.0706-0.0603 0.0106-0.043 0.0356-0.0589 0.061-0.0589 0.0349 0 0.0709 0.0303 0.0706 0.0589-0.0106 0.0441-0.0356 0.0603-0.061 0.0603"/>
            <path d="m93.852 118.12c-0.01 0-0.0173-2e-3 -0.0222-5e-3 -0.0589-0.0413 0.0526-0.0977 0.10901-0.0977 0.01 0 0.0173 2e-3 0.0226 5e-3 0.0575 0.0413-0.054 0.0977-0.10936 0.0977"/>
            <path d="m130.04 118.02c-0.01 0-0.0183-2e-3 -0.024-6e-3 -0.0579-0.0402 0.0512-0.0963 0.10725-0.0963 0.01 0 0.0183 2e-3 0.0236 6e-3 0.0579 0.0399-0.0504 0.0963-0.10689 0.0963"/>
            <path d="m93.428 117.75c-0.26388 0-0.42439-0.073-0.38946-0.28011 0.0102 3.5e-4 0.0201 7.2e-4 0.0296 7.2e-4 0.0967 0 0.1591-0.0236 0.22084-0.0473 0.0621-0.0233 0.12347-0.0469 0.21872-0.0469 0.0173 0 0.036 7.1e-4 0.0561 2e-3v0.36583c-0.048 4e-3 -0.0931 5e-3 -0.13582 5e-3"/>
            <path d="m117.96 117.57c-0.15205-3.4e-4 -0.17216-0.0928-0.18521-0.18873 0.0138 2e-3 0.0261 3e-3 0.037 3e-3 0.0773 0 0.0875-0.0462 0.0945-0.0953 0.15346 0.0152 0.11042 0.16686 0.13017 0.27481-0.0289 4e-3 -0.054 6e-3 -0.0765 6e-3"/>
            <path d="m89.294 117.44c-0.0349 0-0.0705-0.03-0.0702-0.0589 0.0102-0.0441 0.0353-0.0603 0.0607-0.0603 0.0346 0 0.0702 0.0303 0.0702 0.0603-0.0106 0.0434-0.0353 0.0589-0.0607 0.0589"/>
            <path d="m96.615 117.2c-0.01 0-0.018-2e-3 -0.0233-6e-3 -0.0582-0.0399 0.0515-0.0967 0.10795-0.0967 0.01 0 0.018 2e-3 0.0233 6e-3 0.0575 0.0409-0.0519 0.0967-0.10795 0.0967"/>
            <path d="m118.57 116.92h-0.26459v-0.18345h0.26459v0.18345"/>
            <path d="m96.64 116.74c-0.33514 0-0.37324-0.24342-0.17957-0.37006 0.23213 0.0215 0.29916 0.15663 0.26318 0.36547-0.0296 3e-3 -0.0575 5e-3 -0.0836 5e-3"/>
            <path d="m104.98 116.56c-0.38876 0-0.43462-0.40604-0.22754-0.54998 0.10195 0.0466 0.20637 0.0917 0.37747 0.0917h0.0187c0.0423 0.21238-0.0215 0.35137-0.13159 0.45685-0.0127 1e-3 -0.025 1e-3 -0.037 1e-3"/>
            <path d="m127.75 116.11c-0.0289 0-0.0603-2e-3 -0.0935-7e-3v-0.36618c0.0339-5e-3 0.066-7e-3 0.0952-7e-3 0.19015 0 0.28505 0.0952 0.28505 0.19015-2.6e-4 0.0949-0.096 0.19014-0.28681 0.19014"/>
        </g>
        <path d="m116.07 116.1c-0.16722-0.15911-0.44521-0.24025-0.39511-0.54963h0.52599c0.0956 0.27975-0.1337 0.33408-0.13088 0.54963"
              fill="#4a4c4e"/>
        <path d="m107.67 115.55c-0.01 0-0.018-2e-3 -0.0233-6e-3 -0.0596-0.0402 0.0515-0.0967 0.10795-0.0967 0.01 0 0.018 2e-3 0.0233 6e-3 0.0571 0.0402-0.0519 0.0967-0.10795 0.0967"
              fill="#fefefe"/>
        <path d="m117.32 114.97c-0.0346 0-0.0702-0.0303-0.0702-0.0603 0.01-0.0434 0.0346-0.0593 0.06-0.0593 0.0349 0 0.0709 0.03 0.0709 0.0593-0.0106 0.0441-0.0353 0.0603-0.0607 0.0603"
              fill="#4a4c4e"/>
        <g fill="#fefefe">
            <path d="m100.8 115h-0.26388v-0.18168h0.26388v0.18168"/>
            <path d="m110.43 114.82c-0.01 0-0.0176-2e-3 -0.0226-5e-3 -0.0582-0.0413 0.0515-0.0977 0.10689-0.0977 0.01 0 0.0176 2e-3 0.0229 5e-3 0.0586 0.0409-0.0519 0.0977-0.10724 0.0977"/>
            <path d="m99.617 114.82c-0.33443-0.01-0.31079-0.3422-0.13158-0.45826 0.33584 9e-3 0.31185 0.34078 0.13158 0.45826"/>
            <path d="m122.73 114.33c-0.0444 0-0.0984-0.0878-0.0854-0.15416 0.01-0.0448 0.0275-0.0624 0.0473-0.0624 0.0444 0 0.0981 0.0878 0.085 0.15416-9e-3 0.0448-0.0272 0.0624-0.0469 0.0624"/>
            <path d="m96.065 114.18c4e-3 -0.0885 0.16157-0.0713 0.26317-0.0921-3e-3 0.0896-0.16086 0.0713-0.26317 0.0921"/>
            <path d="m98.325 114c-0.01 0-0.0176-2e-3 -0.0233-5e-3 -0.0582-0.0406 0.0522-0.0967 0.1083-0.0967 0.01 0 0.018 1e-3 0.0233 5e-3 0.0572 0.0402-0.0522 0.0967-0.1083 0.0967"/>
            <path d="m123.98 113.45c-9e-3 0-0.0169-2e-3 -0.0219-5e-3 -0.0593-0.0409 0.0508-0.0974 0.10689-0.0974 0.01 0 0.0176 2e-3 0.0229 5e-3 0.0593 0.0406-0.0526 0.0974-0.10795 0.0974"/>
            <path d="m105.62 113.23c-0.0448 0-0.0981-0.0875-0.085-0.15346 0.01-0.0448 0.0275-0.0621 0.0476-0.0621 0.0445 0 0.0981 0.0871 0.0854 0.1524-0.01 0.0455-0.0279 0.0632-0.048 0.0632"/>
            <path d="m129.29 112.77c-0.0346 0-0.0702-0.03-0.0695-0.0593 0.01-0.0434 0.0346-0.0593 0.06-0.0593 0.0349 0 0.0709 0.03 0.0706 0.0593-0.0106 0.0434-0.0356 0.0593-0.061 0.0593"/>
            <path d="m133.43 112.44c-0.38312-0.0794-0.14782-0.13653-0.13089-0.36477 0.21238 0.0889 0.30198 0.24412 0.13089 0.36477"/>
            <path d="m96.46 112.35c4e-3 -0.0882 0.16052-0.0713 0.26318-0.0917-3e-3 0.09-0.16087 0.0716-0.26318 0.0917"/>
            <path d="m130.14 112.16c-0.16263-0.0402-0.26846-0.11677-0.26211-0.27482 0.0219-3e-3 0.0413-4e-3 0.0593-4e-3 0.15699 0 0.1838 0.091 0.33514 0.0949-0.025 0.0744-0.13229 0.0924-0.13229 0.1838"/>
            <path d="m105.54 112.03c-0.0226 0 0.0208-0.0384 0.0744-0.0769 0.0536-0.0388 0.11748-0.0776 0.13617-0.0776 0.0152 0 3.7e-4 0.0261-0.0748 0.0984-0.0811 0.0409-0.12171 0.0561-0.13582 0.0561"/>
            <path d="m118.04 111.52c0.0226-0.10724 0.2406-0.0783 0.39617-0.0917-0.0215 0.10689-0.2413 0.0773-0.39617 0.0917"/>
        </g>
        <path d="m115.83 111.25c-0.01 0-0.018-2e-3 -0.0233-6e-3 -0.0582-0.0399 0.0515-0.0967 0.1083-0.0967 0.01 0 0.0176 2e-3 0.0233 6e-3 0.0579 0.0406-0.0519 0.0967-0.10831 0.0967"
              fill="#4a4c4e"/>
        <path d="m106.59 110.42h-0.26459v-0.18309h0.26459v0.18309" fill="#4a4c4e"/>
        <g fill="#fefefe">
            <path d="m89.426 110.21c-0.0349 0-0.0706-0.0303-0.0706-0.0589 0.0102-0.0441 0.0353-0.0603 0.0607-0.0603 0.0349 0 0.0705 0.0303 0.0702 0.0603-0.0106 0.0434-0.0353 0.0589-0.0603 0.0589"/>
            <path d="m95.803 109.97c-0.27446-0.0522-0.28081-0.14287-0.13335-0.27481h0.26529c0.0356 0.14816-0.12488 0.15734-0.13194 0.27481"/>
            <path d="m116.35 107.59c-0.01 0-0.0176-1e-3 -0.0229-5e-3 -0.0589-0.0402 0.0526-0.0967 0.10866-0.0967 0.01 0 0.0176 2e-3 0.0229 5e-3 0.0589 0.0399-0.0522 0.0967-0.10865 0.0967"/>
            <path d="m91.72 107.28c-0.0226 0 0.0205-0.0384 0.0741-0.0773 0.0536-0.0388 0.11783-0.0773 0.13653-0.0773 0.0155 0 6.88e-4 0.0258-0.0744 0.0984-0.0811 0.0406-0.12171 0.0561-0.13617 0.0561"/>
            <path d="m103.04 106.49h-0.26388v-0.18274h0.26388v0.18274"/>
        </g>
        <g fill="#4a4c4e">
            <path d="m115.04 106.31c-0.01 0-0.0176-2e-3 -0.0229-5e-3 -0.0582-0.0399 0.0522-0.0967 0.1083-0.0967 0.01 0 0.0173 2e-3 0.0226 5e-3 0.0586 0.0402-0.0519 0.0967-0.10795 0.0967"/>
            <path d="m115.33 106.13c-0.1524 0-0.17251-0.0921-0.18662-0.18909 0.0145 2e-3 0.0275 3e-3 0.0388 3e-3 0.0769 0 0.0861-0.0462 0.0942-0.0945 0.15346 0.0145 0.11077 0.16546 0.13053 0.27411-0.0289 4e-3 -0.0543 6e-3 -0.0769 6e-3"/>
            <path d="m111.59 106.09c-0.0229 0 0.0205-0.0388 0.0741-0.0776s0.11748-0.0773 0.13653-0.0773c0.0152 0 3.5e-4 0.0258-0.0751 0.0988-0.0804 0.0406-0.12101 0.0561-0.13547 0.0561"/>
        </g>
        <path d="m121.72 105.94h-0.26317c-0.0318-0.10477 0.0243-0.14746 0.11501-0.1658 0.0614 0.0286 0.12312 0.0571 0.1852 0.0854-0.0212 0.0208-0.037 0.0452-0.037 0.0804"
              fill="#fefefe"/>
        <path d="m121.76 105.86c-0.0621-0.0282-0.12382-0.0568-0.1852-0.0854 0.079-0.0159 0.18379-0.0134 0.2801-0.0173-0.0145 0.0455-0.0614 0.0695-0.0949 0.10266"
              fill="#4a4c4e"/>
        <path d="m131.46 105.57c0.055-0.10866 0.15945-0.18309 0.37041-0.18309 8e-3 0 0.0155 0 0.0236 3.4e-4 0.0603 0.19544-0.18803 0.17462-0.39405 0.18274"
              fill="#fefefe"/>
        <path d="m119.51 105.58c-0.0102 0-0.0187-2e-3 -0.0243-6e-3 -0.0575-0.0409 0.0529-0.0974 0.10936-0.0974 0.01 0 0.0176 2e-3 0.0229 5e-3 0.0579 0.0416-0.0508 0.0977-0.10795 0.0977"
              fill="#fefefe"/>
        <path d="m108.83 105.21h-0.26282v-0.18309h0.26282v0.18309" fill="#4a4c4e"/>
        <g fill="#fefefe">
            <path d="m113.83 104.93h-0.52705c0.12312-0.20602 0.0494-0.55033 0.47237-0.55033 0.0173 0 0.0356 7.1e-4 0.0547 2e-3v0.54857"/>
            <path d="m125.82 104.57c-0.01 0-0.018-1e-3 -0.0236-5e-3 -0.0571-0.0406 0.0529-0.0967 0.10901-0.0967 0.01 0 0.018 2e-3 0.0233 6e-3 0.0582 0.0399-0.0519 0.0963-0.10865 0.0963"/>
            <path d="m113.26 104.27c-0.0952 0-0.19826-0.0293-0.22296-0.0695-0.0607-0.10054 0.0656-0.15381 0.19227-0.15381 0.12276 0 0.24623 0.0497 0.2032 0.15381-0.0205 0.0497-0.0942 0.0695-0.17251 0.0695"/>
            <path d="m111.85 104.29c-0.28716-0.0138-0.28363-0.23107-0.26282-0.45826 0.0476-0.0102 0.0871-0.0148 0.1203-0.0148 0.27305 0 0.0914 0.31891 0.14252 0.47308"/>
            <path d="m95.639 103.74c-0.096 0-0.15769-0.0236-0.21978-0.0473-0.0621-0.0236-0.12418-0.0473-0.22014-0.0473-0.0173 0-0.036 1e-3 -0.0557 2e-3 0.0275-0.1344 0.16651-0.1905 0.38382-0.1905 0.0445 0 0.0924 2e-3 0.14287 7e-3v0.27482c-0.0106 3.4e-4 -0.0212 7.1e-4 -0.031 7.1e-4"/>
        </g>
        <path d="m98.171 103.47h-0.3944c-0.0385-0.14781 0.12312-0.15733 0.13053-0.27446h0.26387v0.27446"
              fill="#4a4c4e"/>
        <g fill="#fefefe">
            <path d="m121.59 103.29c-0.27164-0.0526-0.27658-0.14359-0.13159-0.27447h0.26317c0.0377 0.14747-0.12417 0.15664-0.13158 0.27447"/>
            <path d="m123.59 103.2c-0.01 0-0.0176-2e-3 -0.0229-5e-3 -0.0582-0.0406 0.0529-0.0974 0.10901-0.0974 0.01 0 0.0176 2e-3 0.0226 5e-3 0.0586 0.0409-0.0526 0.0974-0.10865 0.0974"/>
            <path d="m103.38 103.07c-0.0219 0-0.0466-0.0141-0.0769-0.0286-0.0307-0.0141-0.0674-0.0286-0.11359-0.0286-5e-3 0-0.0102 0-0.0155 7.1e-4 0.0155-0.055 0.0751-0.0787 0.13405-0.0787 0.0656 0 0.13018 0.0296 0.13123 0.0787-0.019 0.0423-0.0377 0.0564-0.0593 0.0564"/>
        </g>
        <path d="m98.325 103.11c-0.01 0-0.0176-2e-3 -0.0233-5e-3 -0.0579-0.0399 0.0515-0.0967 0.10795-0.0967 0.01 0 0.0183 2e-3 0.0236 6e-3 0.0572 0.0399-0.0522 0.096-0.1083 0.096"
              fill="#4a4c4e"/>
        <g fill="#fefefe">
            <path d="m92.645 102.83h-0.26352v-0.18379h0.26352v0.18379"/>
            <path d="m96.004 102.7c-0.0349 0-0.0702-0.0303-0.0688-0.06 0.01-0.0434 0.0346-0.0593 0.0596-0.0593 0.0349 0 0.0706 0.0303 0.0699 0.0593-0.0102 0.0437-0.0353 0.06-0.0607 0.06"/>
            <path d="m91.459 102.37h-0.26247v-0.1838h0.26247v0.1838"/>
            <path d="m127.4 102.19c-0.0102 0-0.0183-2e-3 -0.024-6e-3 -0.0572-0.0395 0.0519-0.0963 0.10795-0.0963 0.01 0 0.018 2e-3 0.0233 5e-3 0.0589 0.0406-0.0504 0.0967-0.10724 0.0967"/>
            <path d="m106.27 102.19c-0.15628 0-0.18345-0.09-0.33338-0.0952 0.0261-0.0748 0.13159-0.0917 0.13159-0.18238h0.26211v0.2734c-0.0222 3e-3 -0.0423 4e-3 -0.0603 4e-3"/>
            <path d="m96.064 102h-0.12877c0.0265-0.0356 0.0423-0.0691 0.0515-0.10054 0.0258 0.0335 0.0515 0.0674 0.0773 0.10054"/>
        </g>
        <path d="m96.46 102h-0.39616c-0.0258-0.0332-0.0515-0.067-0.0773-0.10054 0.0586-0.20285-0.16651-0.32209 0.34113-0.35666-0.10901 0.25894 0.18521 0.23742 0.13229 0.4572"
              fill="#4a4c4e"/>
        <path d="m91.325 101.65c-0.17815 0-0.27375-0.0582-0.26105-0.19191h0.39476v0.18309c-0.0487 6e-3 -0.0935 9e-3 -0.13371 9e-3"
              fill="#fefefe"/>
        <path d="m97.14 101.55c-0.01 0-0.0176-2e-3 -0.0229-5e-3 -0.0575-0.0406 0.0533-0.0967 0.10936-0.0967 9e-3 0 0.0169 1e-3 0.0222 5e-3 0.0582 0.0406-0.0522 0.097-0.10866 0.097"
              fill="#4a4c4e"/>
        <path d="m98.433 101.45h-0.0681c-0.0649-0.0254-0.12982-0.0515-0.19474-0.0773v-0.10619h0.26282v0.18345"
              fill="#fefefe"/>
        <path d="m98.365 101.45h-0.19474v-0.0773c0.0649 0.0258 0.12983 0.0519 0.19474 0.0773" fill="#4a4c4e"/>
        <g fill="#fefefe">
            <path d="m92.645 101.27c-0.22119-0.20602-0.0755-0.2988 0.061-0.2988 0.14711 0 0.28364 0.10795-0.061 0.2988"/>
            <path d="m98.697 101.18c3e-3 -0.0896 0.16016-0.0709 0.26282-0.091-4e-3 0.0889-0.16122 0.0713-0.26282 0.091"/>
            <path d="m107.54 100.27c-0.01 0-0.0183-2e-3 -0.0236-6e-3 -0.0593-0.0406 0.0515-0.0967 0.1083-0.0967 0.01 0 0.0176 2e-3 0.0233 6e-3 0.0572 0.0399-0.0515 0.0967-0.10795 0.0967"/>
            <path d="m126.72 100.17c0.0554-0.10936 0.16193-0.18344 0.37324-0.18344 7e-3 0 0.0145 3.44e-4 0.0222 3.44e-4 0.0621 0.19544-0.18768 0.17427-0.39547 0.18309"/>
            <path d="m93.408 99.979c-0.14181 0-0.19614-0.0889-0.18238-0.17745 0.0134-0.08855 0.0949-0.17745 0.22401-0.17745 0.0695 0 0.15275 0.02575 0.24659 0.09102v0.18309c-0.12065 0.0575-0.2159 0.08079-0.28822 0.08079"/>
            <path d="m118.85 99.812c-0.01 0-0.018-0.0018-0.0236-0.0056-0.0593-0.04022 0.0519-0.09631 0.10795-0.09631 0.01 0 0.0176 0.0014 0.0229 0.0053 0.0582 0.04022-0.0508 0.09666-0.10724 0.09666"/>
            <path d="m132.91 99.715c7e-3 -0.29633 0.14146-0.39582 0.26176-0.39582 0.21202 0 0.38135 0.31009-0.26176 0.39582"/>
            <path d="m125.74 99.043c-0.0349 0-0.0702-0.02999-0.0688-0.05997 0.01-0.04374 0.0346-0.05927 0.06-0.05927 0.0349 0 0.0709 0.03034 0.0699 0.05927-0.0106 0.0441-0.0356 0.05997-0.061 0.05997"/>
            <path d="m116.33 98.983h-0.26317v-0.18203h0.26317v0.18203"/>
            <path d="m110.43 98.714c-0.01 0-0.0173-0.0018-0.0226-0.0056-0.0582-0.03986 0.0519-0.09666 0.10725-0.09666 0.01 0 0.0173 0.0014 0.0226 0.0053 0.0586 0.04022-0.0515 0.09701-0.10724 0.09701"/>
            <path d="m99.905 98.622c-9e-3 0-0.0173-0.0014-0.0222-0.0049-0.0586-0.04057 0.0519-0.09737 0.1076-0.09737 0.01 0 0.0173 0.0018 0.0226 0.0053 0.0589 0.04057-0.0522 0.09701-0.10794 0.09701"/>
            <path d="m95.875 98.4c-0.0215 0-0.0462-0.01446-0.0773-0.02893-0.0307-0.01411-0.0677-0.02857-0.11394-0.02857-5e-3 0-0.01 0-0.0145 3.52e-4 0.0159-0.05433 0.0755-0.07832 0.13441-0.07832 0.0649 0 0.12912 0.02928 0.13088 0.07832-0.019 0.04304-0.0378 0.05715-0.0596 0.05715"/>
            <path d="m98.008 98.325c-0.13723 0-0.24977-0.07091-0.23142-0.25753 0.0713-0.04904 0.121-0.06562 0.1658-0.06562 0.0473 0 0.0885 0.01835 0.14288 0.03704 0.0547 0.0187 0.12206 0.0374 0.2219 0.0374 0.0374 0 0.0794-0.0028 0.12664-0.0088-0.0279 0.13829-0.24765 0.25753-0.4258 0.25753"/>
            <path d="m121.2 98.251h-0.39582v-0.27411h0.39582v0.27411"/>
            <path d="m99.803 98.258c-0.19649 0-0.17356-0.1524-0.18556-0.28081 0.1076 0.01658 0.13194 0.09102 0.26423 0.09102h1e-3v0.18309c-0.03 0.0046-0.0564 0.0067-0.0797 0.0067"/>
            <path d="m89.092 97.519c-0.39124-0.03951-0.23107-0.2607-0.0988-0.2607 0.072 0 0.13582 0.06526 0.0988 0.2607"/>
            <path d="m124.22 97.428h-0.3944c-0.0565-0.19085 0.0892-0.24306 0.13158-0.36583 0.22931 0.02081 0.2988 0.15699 0.26282 0.36583"/>
        </g>
    </g>
</svg>
