<?xml version="1.0" encoding="UTF-8"?>
<svg xmlns:cc="http://creativecommons.org/ns#" xmlns:dc="http://purl.org/dc/elements/1.1/"
     xmlns:rdf="http://www.w3.org/1999/02/22-rdf-syntax-ns#" width="60.642mm" height="60.642mm"
     version="1.1" viewBox="0 0 60.642 60.642"
     xmlns="http://www.w3.org/2000/svg">
    <metadata>
        <rdf:RDF>
            <cc:Work rdf:about="">
                <dc:format>image/svg+xml</dc:format>
                <dc:type rdf:resource="http://purl.org/dc/dcmitype/StillImage"/>
                <dc:title/>
            </cc:Work>
        </rdf:RDF>
    </metadata>
    <circle cx="30.321" cy="30.321" r="28.019" fill="#fff" stroke="#ffc700" stroke-width="4.6043"/>
    <g transform="translate(-87.603 -58.125)">
        <path d="m117.93 108.29c-7.1124 0-13.735-3.9141-17.203-10.067-0.0411-0.07302-0.0817-0.14605-0.12181-0.21943 3.4689 6.1507 10.09 10.062 17.2 10.062 10.398 0 18.936-8.0878 19.669-18.302h3.8354l0.14076 0.22437h-3.8516c-0.73307 10.215-9.2717 18.302-19.669 18.302m-0.1524-4.789c-4.8151 0-9.0147-2.6363-11.234-6.544-0.0413-0.07267-0.0819-0.14605-0.12181-0.21943 2.2198 3.9052 6.4175 6.5391 11.231 6.5391 7.1296 0 12.91-5.7799 12.91-12.909v-0.001814c0-0.20179-5e-3 -0.40287-0.0138-0.60254h3.4043c-6e-3 0.07479-0.0134 0.14993-0.0212 0.22437h-3.26c9e-3 0.20038 0.0152 0.40181 0.0152 0.60431 0 7.1293-5.7799 12.909-12.91 12.909m-14.099-7.1991c-0.1294-0.22895-0.25329-0.46108-0.37193-0.69709l0.0114-0.0056c0.0371 0.07691 0.0748 0.15381 0.11314 0.23001 0.0801 0.15946 0.16234 0.31644 0.24736 0.47272m26.791-7.5011c-0.19015-1.5723-0.66287-3.0579-1.366-4.4037 0.01 0.01729 0.019 0.03457 0.0286 0.05186 0.70168 1.2954 1.1885 2.7252 1.4125 4.24l-0.0751 0.11183m-4.282-8.122c-0.0681-0.05997-0.13653-0.11924-0.20603-0.1778 0.11184-0.05398 0.20991-0.13935 0.27905-0.25329l0.50977-0.84279c0.10371-0.1718 0.12065-0.37183 0.0635-0.54857 0.0564 0.06668 0.0984 0.14288 0.12453 0.22437 0.0572 0.17674 0.0402 0.37677-0.0635 0.54857l-0.50977 0.84243c-0.0519 0.08537-0.11994 0.15487-0.19755 0.20708m-16.259-0.65722-0.35514-0.58773-0.046-0.0762-0.028-0.04621c-0.02-0.03281-0.0368-0.06703-0.0504-0.1016l0.43583 0.72037 0.0596 0.07937c-5e-3 0.0039-0.0106 0.0078-0.0159 0.01199m2.2137-1.3335c-7.2e-4 -0.0018-1e-3 -0.0035-2e-3 -0.0053l3e-3 0.0049c-3.5e-4 3.44e-4 -7.2e-4 3.44e-4 -1e-3 3.44e-4m7.0428-1.1423c-0.042-0.0049-0.0829-0.0095-0.12488-0.01411v-1.307c0.43603-0.0088 0.78634-0.36266 0.78634-0.80045v-1.8062c0-0.0956-0.0166-0.18697-0.0473-0.27199 0.0434 0.05468 0.0797 0.11536 0.10724 0.18027 6e-3 0.01446 0.012 0.02928 0.0176 0.0441 0.0303 0.08502 0.0469 0.17639 0.0469 0.27164v1.8066c0 0.4378-0.3503 0.79163-0.78598 0.80045v1.0968m-2.8388-1.1088c-0.1979-0.03492-0.37112-0.14217-0.49071-0.29386-0.0427-0.05433-0.0787-0.1143-0.10654-0.17886-6e-3 -0.01482-0.0123-0.02999-0.0176-0.04516 0.14393 0.18238 0.36548 0.30057 0.61489 0.30551v0.21237"
              fill="#4e1612"/>
        <path d="m99.293 92.149-0.11574-0.23424 6.8635-7.716 0.24846 0.0388c-0.0207 0.0381-0.0411 0.07655-0.0615 0.11501l-0.0626 0.07056-6.8633 7.716-0.0088 0.0099m3.2461-8.7023-0.18729-0.02928c2.0984-6.6626 8.2774-11.296 15.457-11.296 5.6127 0 10.749 2.8413 13.74 7.6006l2.9613-1.8606c0.0462 0.07161 0.0921 0.14358 0.13758 0.2159l-0.0134 0.0081-2.9609 1.8609c-2.9905-4.7593-8.1269-7.6006-13.74-7.6006-7.1099 0-13.238 4.5431-15.394 11.101"
              fill="#4e1612"/>
        <path d="m117.81 108.06c-7.1106 0-13.731-3.9116-17.2-10.062-0.20285-0.35983-0.39479-0.72708-0.57559-1.1014l3.1636-1.5268c0.037 0.07655 0.0748 0.15346 0.11313 0.22966 0.11864 0.23601 0.24254 0.46814 0.37194 0.69709 0.0207 0.03634 0.0414 0.07302 0.0624 0.10936 0.0214 0.03704 0.0433 0.07444 0.0649 0.11148 0.0218 0.03704 0.0435 0.07373 0.0656 0.11077 0.0219 0.03634 0.0441 0.07338 0.0663 0.10972 0.0223 0.03669 0.0449 0.07338 0.0675 0.10972 0.0193 0.03105 0.0386 0.06209 0.0582 0.09313 3e-3 0.0049 6e-3 0.01024 9e-3 0.01516 1.4804 2.346 3.5348 4.2527 5.9211 5.5686 0.0543 0.0296 0.1083 0.0593 0.16298 0.0885 0.0667 0.0356 0.13335 0.0709 0.20038 0.10583 0.0815 0.042 0.16369 0.084 0.24588 0.12488 0.1009 0.0501 0.20179 0.0991 0.30375 0.14747 0.12558 0.0593 0.25223 0.11712 0.37923 0.17356 0.15946 0.0702 0.32032 0.13829 0.4819 0.20355 0.20778 0.084 0.41698 0.16334 0.62829 0.23884 0.28152 0.10054 0.56586 0.19332 0.85302 0.27834 0.41275 0.12206 0.83114 0.22824 1.2541 0.31714 0.73696 0.15558 1.4887 0.26 2.2493 0.3101 0.34925 0.0233 0.70026 0.0349 1.053 0.0349 2.328 0 4.5438-0.49354 6.5465-1.3815 0.91017-0.40323 1.7759-0.88794 2.589-1.445 0.53446-0.36618 1.046-0.76306 1.5321-1.1892 0.36936-0.3235 0.7239-0.66358 1.0629-1.0192 0.27164-0.28504 0.5327-0.57961 0.78317-0.88371 0.20602-0.25047 0.40569-0.508 0.5969-0.77082 0.16087-0.22084 0.31644-0.44626 0.46638-0.67557 0.1277-0.19544 0.25117-0.3937 0.37077-0.59478 0.10301-0.17322 0.20249-0.34819 0.2988-0.52564 0.0836-0.15346 0.16545-0.30938 0.24412-0.46602 0.0688-0.13723 0.13582-0.27517 0.20108-0.41451 0.27729-0.59267 0.52-1.2058 0.72496-1.8348 0.0243-0.07444 0.048-0.14922 0.0713-0.22437 0.0229-0.07444 0.0455-0.14922 0.0677-0.22437 0.0219-0.07444 0.0434-0.14922 0.0642-0.22437 0.0205-0.07444 0.0409-0.14922 0.0607-0.22401 0.0194-0.07479 0.0385-0.14958 0.0572-0.22437 0.0183-0.07444 0.0363-0.14958 0.0536-0.22437s0.0342-0.14922 0.0505-0.22437c0.0162-0.07479 0.0317-0.14922 0.0469-0.22437 0.0152-0.07479 0.0296-0.14922 0.0437-0.22437 0.0141-0.07444 0.0275-0.14958 0.0406-0.22437 0.0127-0.07444 0.0251-0.14958 0.037-0.22437 0.0116-0.07444 0.0229-0.14922 0.0339-0.22401 0.0106-0.07444 0.0212-0.14958 0.0307-0.22437 0.01-0.07479 0.0187-0.14922 0.0275-0.22437 9e-3 -0.07444 0.0169-0.14922 0.0243-0.22437 8e-3 -0.07444 0.0148-0.14958 0.0212-0.22437h-3.4043c-0.0152-0.32385-0.042-0.64488-0.0801-0.96238l0.0751-0.11183 0.0713-0.10619 0.0646-0.0956 0.0582-0.08643 0.0522-0.07761 0.0469-0.0695 0.0416-0.06174 0.0367-0.05433 0.0317-0.04762 0.0279-0.04092 0.0233-0.03493 0.0194-0.02893 0.0155-0.02293 0.012-0.01799 8e-3 -0.01235 5e-3 -0.0074 3.5616-5.2903 0.35313-0.52423 0.35313-0.52493 0.35313-0.52423 0.0963-0.14288 0.037 0.05927 0.13617 0.21661 0.13617 0.21731 0.13618 0.21696 5.105 8.1351h-3.8516c-0.73308 10.215-9.2717 18.302-19.669 18.302m-0.1524-4.789c-4.8136 0-9.0114-2.6338-11.231-6.5391-0.90205-1.5871-1.4778-3.3849-1.6349-5.3005-9e-3 -0.11254-0.0169-0.22472-0.0233-0.33796-7e-3 -0.11571-0.0114-0.23178-0.0149-0.34819-3e-3 -0.11853-5e-3 -0.23812-5e-3 -0.35772v-0.02685c0 7.1286 5.7797 12.908 12.91 12.908 7.1293 0 12.909-5.7792 12.91-12.908v7.14e-4c0 7.1293-5.7799 12.909-12.91 12.909m-12.909-12.913v-0.01235 0.01235m21.237-9.8623c-0.62195-0.52564-1.2943-0.99342-2.0091-1.3952 0.0152-0.06738 0.0388-0.13406 0.0765-0.19614l0.50977-0.84279c0.12488-0.20602 0.34396-0.32032 0.56867-0.32032 0.11713 0 0.23566 0.03104 0.34291 0.09596l1.0756 0.65017c0.14217 0.08608 0.24025 0.21696 0.28787 0.36371 0.0571 0.17674 0.0402 0.37677-0.0635 0.54857l-0.50976 0.84279c-0.0691 0.11395-0.16722 0.19932-0.27905 0.25329m-16.037-0.49142-0.0596-0.07937-0.43582-0.72037-0.0461-0.0762-0.028-0.04621c-0.0372-0.06174-0.0633-0.12665-0.0789-0.19297-0.0258-0.11007-0.0223-0.22401 8e-3 -0.33055 0.0441-0.15663 0.14538-0.29739 0.29559-0.38806l1.0753-0.65052c0.0737-0.0448 0.15275-0.07338 0.23284-0.08714 0.0367-6e-3 0.0737-0.0092 0.11041-0.0092 0.1009 0 0.20038 0.02293 0.29105 0.06703 0.0822 0.03986 0.15663 0.09701 0.21766 0.17004 0.0219 0.02611 0.042 0.05398 0.06 0.08361l0.0797 0.13194 0.43004 0.71014c0.0176 0.02963 0.0314 0.05997 0.0437 0.09102 7.1e-4 0.0018 1e-3 0.0035 2e-3 0.0053-0.77858 0.3683-1.5145 0.81209-2.1978 1.3215m9.1158-2.4779c-0.46179-0.05009-0.93133-0.07585-1.4065-0.07585-0.44132 0-0.87735 0.02222-1.3074 0.06562v-1.2968c-0.24944-0.0049-0.47098-0.12312-0.61491-0.30551-0.043-0.05468-0.079-0.11465-0.1069-0.17921-0.0321-0.07479-0.0533-0.15522-0.061-0.23954-3e-3 -0.02505-4e-3 -0.05045-4e-3 -0.0762v-1.8062c0-0.04163 3e-3 -0.0822 9e-3 -0.12206 0.0141-0.09278 0.0441-0.18062 0.0871-0.26035 0.0614-0.11254 0.14888-0.2092 0.25436-0.28116 0.12841-0.08784 0.28398-0.13935 0.45155-0.13935h2.6818c0.0511 0 0.10125 0.0049 0.14993 0.01411 0.17392 0.03281 0.32773 0.12171 0.44238 0.24694 0.0603 0.06597 0.11007 0.14252 0.1457 0.22578 6e-3 0.01446 0.012 0.02928 0.0173 0.0441 0.0307 0.08502 0.0473 0.17639 0.0473 0.27199v1.8062c0 0.4378-0.35031 0.79163-0.78634 0.80045v1.307"
              fill="#46130f"/>
        <path d="m99.169 91.924-4.7663-9.6389 4.4235 0.67557c2.3631-8.431 10.033-14.352 18.983-14.352 6.8284 0 13.076 3.4555 16.714 9.2438l-0.013 0.0085-2.9612 1.8606c-2.9905-4.7593-8.127-7.6006-13.74-7.6006-7.1797 0-13.359 4.6337-15.457 11.296l0.18729 0.02928 0.19005 0.02963 0.19251 0.02999 0.19512 0.03034 0.19773 0.03104 0.20052 0.0314 0.20327 0.03175 0.20574 0.0321 0.20877 0.03281 0.21153 0.03281 0.21428 0.03351 0.21717 0.03422 0.22009 0.03422 0.22296 0.03493 0.22599 0.03528 0.22902 0.03563 0.52684 0.08255-0.15998 0.17992-6.8635 7.716-0.0087 0.0099"
              fill="#46130f"/>
        <path d="m112.1 78.586c0.18944 0.31397 0.0893 0.72249-0.22472 0.91228l-1.0753 0.65017c-0.31362 0.19015-0.72178 0.08925-0.91157-0.22437l-0.50995-0.84279c-0.19004-0.31397-0.0893-0.72214 0.22448-0.91158l1.0753-0.65017c0.31398-0.1905 0.72179-0.08996 0.91194 0.22401l0.50976 0.84243"
              fill="#303953"/>
        <path d="m124.05 78.904c-0.18979 0.31362-0.0896 0.72178 0.22437 0.91228l1.0753 0.65017c0.31397 0.19015 0.72213 0.0889 0.91193-0.22437l0.50976-0.84279c0.1898-0.31397 0.0893-0.72249-0.22436-0.91193l-1.0756-0.65052c-0.31362-0.18979-0.72214-0.08925-0.91158 0.22437l-0.50977 0.84279"
              fill="#303953"/>
        <path d="m119.06 78.421h-2.7139v-2.7778h2.7139v2.7778" fill="#1a1e2b"/>
        <path d="m119.85 75.418c0 0.44309-0.35912 0.80222-0.80256 0.80222h-2.6818c-0.44309 0-0.80222-0.35913-0.80222-0.80222v-1.8062c0-0.44309 0.35913-0.80292 0.80222-0.80292h2.6818c0.44344 0 0.80256 0.35983 0.80256 0.80292v1.8062"
              fill="#303953"/>
        <path d="m130.57 90.362c0 7.1293-5.7799 12.909-12.91 12.909-7.13 0-12.91-5.7796-12.91-12.909 0-7.1296 5.7797-12.91 12.91-12.91 7.1296 0 12.91 5.7803 12.91 12.91"
              fill="#303953"/>
        <path d="m117.7 101.72c-6.2745 0-11.361-5.0864-11.361-11.361 0-6.2752 5.0865-11.362 11.361-11.362 6.2748 0 11.361 5.0864 11.361 11.362 0 6.2745-5.0864 11.361-11.361 11.361"
              fill="#282f44"/>
        <path d="m127.78 90.362c0 5.5876-4.5297 10.116-10.117 10.116s-10.116-4.5286-10.116-10.116c0-5.5869 4.5292-10.116 10.116-10.116 5.587 0 10.117 4.5293 10.117 10.116"
              fill="#fff"/>
        <path d="m117.66 90.312h8.4458c-0.0265-4.6436-3.797-8.4-8.4458-8.4025v8.4025" fill="#303953"/>
        <path d="m141.33 89.757-5.5506-8.8452-5.9552 8.8452h4.1324c-0.72426 8.2755-7.6877 14.79-16.148 14.79-6.1867 0-11.922-3.6019-14.612-9.1782l-3.1634 1.5272c3.2719 6.7811 10.249 11.164 17.776 11.164 10.398 0 18.936-8.0878 19.669-18.302h3.8516"
              fill="#ebb62f"/>
        <path d="m102.35 83.415c2.0984-6.6622 8.2774-11.296 15.457-11.296 5.6127 0 10.749 2.8413 13.74 7.6006l2.9743-1.8687c-3.6375-5.7887-9.8855-9.2442-16.714-9.2442-8.9505 0-16.62 5.9214-18.983 14.352l-4.4235-0.67557 4.7663 9.6389 7.0321-7.9054-3.8489-0.60219"
              fill="#ebb62f"/>
    </g>
</svg>
